<svg width="691" height="183" viewBox="0 0 691 183" fill="none" xmlns="http://www.w3.org/2000/svg">
<rect x="2.39258" y="2.69727" width="685.774" height="177.965" rx="88.9825" stroke="url(#paint0_linear_89_41392)" stroke-width="4"/>
<path d="M110.927 69.6625H109.047C106.004 69.6916 106.019 74.2957 109.047 74.3044H110.927C114.162 74.3363 116.271 71.3336 115.871 68.27C115.871 63.5121 112.018 59.6592 107.26 59.6592H62.0952C57.3605 59.6592 53.4844 63.5119 53.4844 68.27V116.034C53.4844 120.792 57.3604 124.645 62.0952 124.645H107.26C112.018 124.645 115.871 120.792 115.871 116.034C116.265 112.962 114.165 109.974 110.927 110H109.047C107.771 110 106.726 111.021 106.726 112.321C106.726 113.597 107.771 114.642 109.047 114.642H110.927C111.09 114.642 111.229 114.758 111.229 114.92C112.044 120.85 103.793 122.025 103.315 116.034V68.27C103.724 62.2907 112.099 63.5005 111.229 69.384C111.229 69.5465 111.09 69.6625 110.927 69.6625ZM64.1374 87.6729C64.1839 85.5377 65.3675 83.5881 67.2242 82.5437L75.4637 77.9715C77.2973 76.9271 79.5021 76.9271 81.3356 77.9715L89.5513 82.5437C91.4545 83.5881 92.6149 85.5145 92.6613 87.6497C92.7774 91.6649 91.8258 101.552 80.871 106.565C80.0819 106.937 79.2464 107.099 78.3876 107.099C77.5521 107.099 76.6934 106.937 75.9274 106.565C64.9497 101.552 64.0216 91.6656 64.1374 87.6729Z" fill="#FD395C"/>
<path d="M78.9223 102.365C87.0919 98.6279 88.1361 91.6185 88.0203 87.7891C88.0203 87.2785 87.7418 86.8376 87.3008 86.6054L79.0851 82.01C78.8762 81.8939 78.6209 81.8475 78.3888 81.8475C78.2612 81.4878 69.804 86.5184 69.4995 86.6054C69.0585 86.8375 68.78 87.2784 68.7568 87.7891C68.664 91.6186 69.7083 98.628 77.8548 102.364C78.1797 102.504 78.6205 102.504 78.9223 102.365ZM75.6033 96.4229L72.6557 93.4753C70.5233 91.3285 73.7784 88.0705 75.9282 90.2029L77.2279 91.5026L80.8485 87.8819C83.0186 85.7554 86.2795 88.9902 84.1442 91.1544L78.8757 96.4229C77.9966 97.3223 76.491 97.3339 75.6033 96.4229Z" fill="#FD395C"/>
<path d="M159.806 64.764L162.911 64.008C163.505 65.682 164.801 66.6 166.583 66.6C168.284 66.6 169.958 65.574 169.958 63.711C169.958 61.902 168.365 61.308 166.88 60.957L165.881 60.741C162.938 60.12 160.292 58.527 160.292 55.206C160.292 51.696 163.262 49.509 166.664 49.509C169.607 49.509 172.253 51.183 173.009 54.153L169.931 54.909C169.364 53.37 168.257 52.398 166.583 52.398C165.098 52.398 163.613 53.316 163.613 54.963C163.613 56.718 165.368 57.312 166.799 57.636L167.798 57.852C171.47 58.689 173.306 60.552 173.306 63.441C173.306 67.194 170.201 69.489 166.556 69.489C163.532 69.489 160.643 67.815 159.806 64.764ZM175.938 54.963H178.773L178.881 56.853C179.745 55.368 181.338 54.558 183.039 54.558C184.983 54.558 186.576 55.557 187.413 57.339C188.277 55.557 190.194 54.558 192.138 54.558C195.675 54.558 197.295 57.339 197.295 60.66V69.084H194.19V61.011C194.19 59.175 193.488 57.366 191.355 57.366C189.411 57.366 188.169 58.932 188.169 60.849V69.084H185.064V61.011C185.064 59.175 184.362 57.366 182.229 57.366C180.285 57.366 179.043 58.932 179.043 60.849V69.084H175.938V54.963ZM199.969 65.061C199.969 61.902 202.885 60.552 205.72 60.552C206.908 60.552 208.069 60.768 209.176 61.227V60.336C209.176 58.554 208.177 57.15 206.26 57.15C204.964 57.15 203.83 57.879 203.344 59.094L200.482 58.446C201.184 55.908 203.803 54.558 206.314 54.558C209.77 54.558 212.254 56.907 212.254 60.471V69.084H209.419L209.311 67.221C208.42 68.787 206.692 69.489 204.964 69.489C202.372 69.489 199.969 67.869 199.969 65.061ZM203.101 64.926C203.101 66.33 204.424 67.005 205.693 67.005C207.583 67.005 209.176 65.682 209.176 63.711V63.387C208.717 63.198 208.231 63.036 207.745 62.901C207.232 62.793 206.719 62.739 206.206 62.739C204.856 62.739 203.101 63.279 203.101 64.926ZM215.594 54.963H218.429L218.564 57.285C219.266 55.719 220.589 54.774 222.317 54.774C222.803 54.774 223.316 54.828 223.775 55.017L223.424 58.041C223.019 57.879 222.587 57.852 222.155 57.852C219.725 57.852 218.699 59.715 218.699 61.929V69.084H215.594V54.963ZM225.269 54.963H227.753V50.184H230.858V54.963H234.962V57.474H230.858V64.413C230.858 65.628 231.344 66.762 232.721 66.762C233.045 66.762 233.396 66.708 233.774 66.6C234.152 66.519 234.503 66.384 234.827 66.195L235.529 68.544C235.124 68.841 234.638 69.057 234.098 69.246C233.531 69.408 232.937 69.489 232.316 69.489C229.346 69.489 227.753 67.653 227.753 64.737V57.474H225.269V54.963ZM243.296 59.634C243.296 54.288 246.941 49.374 252.665 49.374C256.256 49.374 259.415 51.264 260.684 54.747L257.525 55.638C256.607 53.613 254.879 52.398 252.638 52.398C248.804 52.398 246.698 56.07 246.698 59.607C246.698 63.144 248.777 66.6 252.692 66.6C254.987 66.6 256.715 65.385 257.714 63.36L260.873 64.251C259.604 67.734 256.31 69.624 252.665 69.624C247.076 69.624 243.296 65.169 243.296 59.634ZM262.908 62.01C262.908 57.825 265.851 54.558 270.198 54.558C274.41 54.558 277.38 57.771 277.38 62.01C277.38 66.195 274.437 69.489 270.09 69.489C265.905 69.489 262.908 66.222 262.908 62.01ZM270.144 57.366C267.579 57.366 266.094 59.58 266.094 62.01C266.094 64.359 267.579 66.681 270.144 66.681C272.709 66.681 274.194 64.413 274.194 62.01C274.194 59.607 272.763 57.366 270.144 57.366ZM280.114 54.963H282.949L283.057 56.907C283.921 55.341 285.622 54.558 287.377 54.558C290.887 54.558 292.615 57.366 292.615 60.687V69.084H289.51V61.038C289.51 59.121 288.754 57.366 286.594 57.366C284.596 57.366 283.219 58.878 283.219 60.876V69.084H280.114V54.963ZM294.351 54.963H296.835V50.184H299.94V54.963H304.044V57.474H299.94V64.413C299.94 65.628 300.426 66.762 301.803 66.762C302.127 66.762 302.478 66.708 302.856 66.6C303.234 66.519 303.585 66.384 303.909 66.195L304.611 68.544C304.206 68.841 303.72 69.057 303.18 69.246C302.613 69.408 302.019 69.489 301.398 69.489C298.428 69.489 296.835 67.653 296.835 64.737V57.474H294.351V54.963ZM307.062 54.963H309.897L310.032 57.285C310.734 55.719 312.057 54.774 313.785 54.774C314.271 54.774 314.784 54.828 315.243 55.017L314.892 58.041C314.487 57.879 314.055 57.852 313.623 57.852C311.193 57.852 310.167 59.715 310.167 61.929V69.084H307.062V54.963ZM316.512 65.061C316.512 61.902 319.428 60.552 322.263 60.552C323.451 60.552 324.612 60.768 325.719 61.227V60.336C325.719 58.554 324.72 57.15 322.803 57.15C321.507 57.15 320.373 57.879 319.887 59.094L317.025 58.446C317.727 55.908 320.346 54.558 322.857 54.558C326.313 54.558 328.797 56.907 328.797 60.471V69.084H325.962L325.854 67.221C324.963 68.787 323.235 69.489 321.507 69.489C318.915 69.489 316.512 67.869 316.512 65.061ZM319.644 64.926C319.644 66.33 320.967 67.005 322.236 67.005C324.126 67.005 325.719 65.682 325.719 63.711V63.387C325.26 63.198 324.774 63.036 324.288 62.901C323.775 62.793 323.262 62.739 322.749 62.739C321.399 62.739 319.644 63.279 319.644 64.926ZM331.516 62.118C331.516 58.122 334.324 54.558 338.563 54.558C341.317 54.558 343.801 56.07 344.584 58.824L341.641 59.526C341.074 58.23 339.967 57.366 338.509 57.366C336.025 57.366 334.702 59.85 334.702 62.091C334.702 64.359 335.971 66.681 338.509 66.681C339.967 66.681 341.209 65.898 341.803 64.548L344.719 65.223C343.963 67.923 341.209 69.489 338.509 69.489C334.405 69.489 331.516 66.195 331.516 62.118ZM345.951 54.963H348.435V50.184H351.54V54.963H355.644V57.474H351.54V64.413C351.54 65.628 352.026 66.762 353.403 66.762C353.727 66.762 354.078 66.708 354.456 66.6C354.834 66.519 355.185 66.384 355.509 66.195L356.211 68.544C355.806 68.841 355.32 69.057 354.78 69.246C354.213 69.408 353.619 69.489 352.998 69.489C350.028 69.489 348.435 67.653 348.435 64.737V57.474H345.951V54.963ZM363.249 49.914H366.84L372.429 65.358L377.991 49.914H381.447L374.103 69.084H370.593L363.249 49.914ZM383.131 62.847V54.963H386.236V62.901C386.236 64.872 387.154 66.681 389.368 66.681C391.582 66.681 392.5 64.872 392.5 62.901V54.963H395.605V62.847C395.605 66.627 393.391 69.489 389.341 69.489C385.426 69.489 383.131 66.735 383.131 62.847ZM398.951 69.084V48.996H402.056V69.084H398.951ZM405.411 54.963H408.246L408.354 56.907C409.218 55.341 410.919 54.558 412.674 54.558C416.184 54.558 417.912 57.366 417.912 60.687V69.084H414.807V61.038C414.807 59.121 414.051 57.366 411.891 57.366C409.893 57.366 408.516 58.878 408.516 60.876V69.084H405.411V54.963ZM420.637 62.01C420.637 58.068 423.391 54.558 427.576 54.558C431.761 54.558 434.299 57.717 434.299 61.848V62.766H423.85C424.066 64.953 425.443 66.789 427.819 66.789C429.304 66.789 430.438 66.141 431.275 64.818L434.002 65.871C432.922 68.301 430.411 69.489 427.819 69.489C423.58 69.489 420.637 66.276 420.637 62.01ZM427.576 57.069C425.551 57.069 424.309 58.662 423.931 60.552H431.059C430.762 58.689 429.655 57.069 427.576 57.069ZM436.946 54.963H439.781L439.916 57.285C440.618 55.719 441.941 54.774 443.669 54.774C444.155 54.774 444.668 54.828 445.127 55.017L444.776 58.041C444.371 57.879 443.939 57.852 443.507 57.852C441.077 57.852 440.051 59.715 440.051 61.929V69.084H436.946V54.963ZM446.396 65.061C446.396 61.902 449.312 60.552 452.147 60.552C453.335 60.552 454.496 60.768 455.603 61.227V60.336C455.603 58.554 454.604 57.15 452.687 57.15C451.391 57.15 450.257 57.879 449.771 59.094L446.909 58.446C447.611 55.908 450.23 54.558 452.741 54.558C456.197 54.558 458.681 56.907 458.681 60.471V69.084H455.846L455.738 67.221C454.847 68.787 453.119 69.489 451.391 69.489C448.799 69.489 446.396 67.869 446.396 65.061ZM449.528 64.926C449.528 66.33 450.851 67.005 452.12 67.005C454.01 67.005 455.603 65.682 455.603 63.711V63.387C455.144 63.198 454.658 63.036 454.172 62.901C453.659 62.793 453.146 62.739 452.633 62.739C451.283 62.739 449.528 63.279 449.528 64.926ZM462.022 48.996H465.127V57.015C466.18 55.422 467.881 54.558 469.771 54.558C473.794 54.558 476.359 58.095 476.359 61.956C476.359 65.817 473.794 69.489 469.609 69.489C467.692 69.489 466.018 68.652 464.992 67.005L464.857 69.084H462.022V48.996ZM469.123 57.366C466.558 57.366 465.073 59.58 465.073 62.01C465.073 64.359 466.558 66.681 469.123 66.681C471.688 66.681 473.173 64.413 473.173 62.01C473.173 59.607 471.742 57.366 469.123 57.366ZM482.186 69.084H479.081V54.963H482.186V69.084ZM479 51.966C478.811 51.669 478.73 51.372 478.73 51.021C478.73 50.67 478.811 50.373 479 50.076C479.162 49.779 479.378 49.563 479.675 49.374C479.972 49.212 480.269 49.131 480.62 49.131C480.971 49.131 481.268 49.212 481.565 49.374C481.862 49.563 482.078 49.779 482.267 50.076C482.429 50.373 482.51 50.67 482.51 51.021C482.51 51.372 482.429 51.669 482.267 51.966C482.078 52.263 481.862 52.479 481.565 52.641C481.268 52.83 480.971 52.911 480.62 52.911C480.269 52.911 479.972 52.83 479.675 52.641C479.378 52.479 479.162 52.263 479 51.966ZM485.541 69.084V48.996H488.646V69.084H485.541ZM495.106 69.084H492.001V54.963H495.106V69.084ZM491.92 51.966C491.731 51.669 491.65 51.372 491.65 51.021C491.65 50.67 491.731 50.373 491.92 50.076C492.082 49.779 492.298 49.563 492.595 49.374C492.892 49.212 493.189 49.131 493.54 49.131C493.891 49.131 494.188 49.212 494.485 49.374C494.782 49.563 494.998 49.779 495.187 50.076C495.349 50.373 495.43 50.67 495.43 51.021C495.43 51.372 495.349 51.669 495.187 51.966C494.998 52.263 494.782 52.479 494.485 52.641C494.188 52.83 493.891 52.911 493.54 52.911C493.189 52.911 492.892 52.83 492.595 52.641C492.298 52.479 492.082 52.263 491.92 51.966ZM497.246 54.963H499.73V50.184H502.835V54.963H506.939V57.474H502.835V64.413C502.835 65.628 503.321 66.762 504.698 66.762C505.022 66.762 505.373 66.708 505.751 66.6C506.129 66.519 506.48 66.384 506.804 66.195L507.506 68.544C507.101 68.841 506.615 69.057 506.075 69.246C505.508 69.408 504.914 69.489 504.293 69.489C501.323 69.489 499.73 67.653 499.73 64.737V57.474H497.246V54.963ZM513.062 69.084H509.957V54.963H513.062V69.084ZM509.876 51.966C509.687 51.669 509.606 51.372 509.606 51.021C509.606 50.67 509.687 50.373 509.876 50.076C510.038 49.779 510.254 49.563 510.551 49.374C510.848 49.212 511.145 49.131 511.496 49.131C511.847 49.131 512.144 49.212 512.441 49.374C512.738 49.563 512.954 49.779 513.143 50.076C513.305 50.373 513.386 50.67 513.386 51.021C513.386 51.372 513.305 51.669 513.143 51.966C512.954 52.263 512.738 52.479 512.441 52.641C512.144 52.83 511.847 52.911 511.496 52.911C511.145 52.911 510.848 52.83 510.551 52.641C510.254 52.479 510.038 52.263 509.876 51.966ZM515.796 62.01C515.796 58.068 518.55 54.558 522.735 54.558C526.92 54.558 529.458 57.717 529.458 61.848V62.766H519.009C519.225 64.953 520.602 66.789 522.978 66.789C524.463 66.789 525.597 66.141 526.434 64.818L529.161 65.871C528.081 68.301 525.57 69.489 522.978 69.489C518.739 69.489 515.796 66.276 515.796 62.01ZM522.735 57.069C520.71 57.069 519.468 58.662 519.09 60.552H526.218C525.921 58.689 524.814 57.069 522.735 57.069ZM531.32 65.709L534.128 64.98C534.614 66.249 535.721 66.924 537.071 66.924C538.151 66.924 539.474 66.411 539.474 65.142C539.474 63.927 538.178 63.495 537.179 63.333L536.288 63.171C533.993 62.766 531.725 61.659 531.725 59.013C531.725 56.097 534.263 54.558 536.99 54.558C539.447 54.558 541.661 55.827 542.363 58.284L539.582 58.959C539.123 57.771 538.232 57.096 536.963 57.096C535.964 57.096 534.776 57.609 534.776 58.77C534.776 59.931 536.315 60.282 537.206 60.444L538.097 60.606C540.392 60.984 542.579 62.253 542.579 64.845C542.579 67.869 539.879 69.489 537.044 69.489C534.533 69.489 532.103 68.22 531.32 65.709Z" fill="black"/>
<path d="M160.286 97.5937H166.905V98.8074H161.645V102.497H166.452V103.727H161.645V107.854H167.067V109.084H160.286V97.5937ZM169.228 100.733H170.393L170.458 102.06C170.992 101.041 172.028 100.491 173.161 100.491C175.313 100.491 176.3 102.174 176.3 104.197V109.084H175.005V104.277C175.005 102.902 174.471 101.672 172.918 101.672C171.494 101.672 170.523 102.691 170.523 104.132V109.084H169.228V100.733ZM177.955 107.32L179.12 106.899C179.525 107.692 180.237 108.194 181.143 108.194C181.968 108.194 182.939 107.773 182.939 106.818C182.939 106.122 182.438 105.669 181.418 105.459L180.787 105.329C179.508 105.07 178.198 104.488 178.198 102.983C178.198 101.332 179.606 100.491 181.143 100.491C182.502 100.491 183.651 101.154 184.137 102.481L182.972 102.869C182.794 102.465 182.551 102.157 182.243 101.931C181.92 101.72 181.548 101.607 181.127 101.607C180.382 101.607 179.492 101.979 179.492 102.853C179.492 103.76 180.447 104.035 181.175 104.164L181.806 104.294C183.101 104.553 184.266 105.216 184.266 106.689C184.266 108.404 182.745 109.327 181.143 109.327C179.767 109.327 178.489 108.647 177.955 107.32ZM185.916 100.733H187.21V105.475C187.21 106.851 187.858 108.145 189.411 108.145C190.965 108.145 191.612 106.915 191.612 105.475V100.733H192.907V105.459C192.907 107.595 191.693 109.327 189.379 109.327C187.097 109.327 185.916 107.676 185.916 105.459V100.733ZM195.115 100.733H196.281L196.361 102.287C196.782 101.251 197.591 100.62 198.724 100.62C198.902 100.62 199.08 100.636 199.226 100.652C199.372 100.685 199.485 100.717 199.598 100.766L199.436 101.996C199.194 101.898 198.935 101.882 198.676 101.882C197.122 101.882 196.41 103.226 196.41 104.65V109.084H195.115V100.733ZM200.463 104.925C200.463 102.611 201.984 100.507 204.46 100.507C206.775 100.507 208.296 102.335 208.296 104.634V105.168H201.806C201.936 106.786 202.842 108.178 204.638 108.178C205.658 108.178 206.483 107.741 207.034 106.867L208.134 107.369C207.454 108.663 206.111 109.327 204.671 109.327C202.162 109.327 200.463 107.433 200.463 104.925ZM204.46 101.607C203.004 101.607 202.098 102.805 201.871 104.164H206.937C206.807 102.805 205.949 101.607 204.46 101.607ZM213.135 107.32L214.3 106.899C214.705 107.692 215.417 108.194 216.323 108.194C217.149 108.194 218.12 107.773 218.12 106.818C218.12 106.122 217.618 105.669 216.598 105.459L215.967 105.329C214.689 105.07 213.378 104.488 213.378 102.983C213.378 101.332 214.786 100.491 216.323 100.491C217.683 100.491 218.832 101.154 219.317 102.481L218.152 102.869C217.974 102.465 217.731 102.157 217.424 101.931C217.1 101.72 216.728 101.607 216.307 101.607C215.563 101.607 214.673 101.979 214.673 102.853C214.673 103.76 215.627 104.035 216.356 104.164L216.987 104.294C218.281 104.553 219.447 105.216 219.447 106.689C219.447 108.404 217.925 109.327 216.323 109.327C214.948 109.327 213.669 108.647 213.135 107.32ZM220.74 104.925C220.74 102.611 222.261 100.507 224.737 100.507C227.052 100.507 228.573 102.335 228.573 104.634V105.168H222.083C222.213 106.786 223.119 108.178 224.915 108.178C225.935 108.178 226.76 107.741 227.31 106.867L228.411 107.369C227.731 108.663 226.388 109.327 224.948 109.327C222.439 109.327 220.74 107.433 220.74 104.925ZM224.737 101.607C223.281 101.607 222.374 102.805 222.148 104.164H227.213C227.084 102.805 226.226 101.607 224.737 101.607ZM234.094 109.327C231.682 109.327 230.08 107.336 230.08 104.973C230.08 102.643 231.666 100.491 234.159 100.491C235.664 100.491 236.91 101.316 237.492 102.724L236.311 103.128C235.858 102.271 235.113 101.672 234.11 101.672C232.362 101.672 231.407 103.355 231.407 104.957C231.407 106.09 231.909 107.433 233.026 107.903C233.349 108.064 233.705 108.145 234.094 108.145C235.081 108.145 235.987 107.611 236.408 106.705L237.589 107.11C237.023 108.534 235.599 109.327 234.094 109.327ZM239.271 100.733H240.566V105.475C240.566 106.851 241.213 108.145 242.767 108.145C244.32 108.145 244.968 106.915 244.968 105.475V100.733H246.262V105.459C246.262 107.595 245.048 109.327 242.734 109.327C240.452 109.327 239.271 107.676 239.271 105.459V100.733ZM248.47 100.733H249.636L249.717 102.287C250.137 101.251 250.947 100.62 252.079 100.62C252.257 100.62 252.435 100.636 252.581 100.652C252.727 100.685 252.84 100.717 252.953 100.766L252.791 101.996C252.549 101.898 252.29 101.882 252.031 101.882C250.477 101.882 249.765 103.226 249.765 104.65V109.084H248.47V100.733ZM255.834 109.084H254.539V100.733H255.834V109.084ZM255.187 99.1796C254.717 99.1796 254.297 98.7589 254.297 98.2895C254.297 97.804 254.701 97.3995 255.187 97.3995C255.688 97.3995 256.077 97.7717 256.077 98.2895C256.077 98.7751 255.672 99.1796 255.187 99.1796ZM257.221 100.733H258.759V97.9335H260.053V100.733H262.675V101.834H260.053V106.592C260.053 107.433 260.393 108.162 261.332 108.162C261.769 108.162 262.271 108.016 262.643 107.773L263.031 108.776C262.481 109.165 261.882 109.327 261.219 109.327C259.6 109.327 258.759 108.259 258.759 106.656V101.834H257.221V100.733ZM263.86 100.733H265.284L267.954 107.595L270.366 100.733H271.741L268.019 110.395C267.566 111.609 266.805 112.547 265.414 112.547C264.928 112.547 264.604 112.466 264.184 112.24L264.556 111.204C264.799 111.333 265.074 111.398 265.349 111.398C266.174 111.398 266.611 110.799 266.886 110.087L267.323 109.003L263.86 100.733ZM276.308 106.737C276.308 104.828 278.056 104.051 279.755 104.051C280.467 104.051 281.374 104.213 282.005 104.52V103.905C282.005 102.627 281.26 101.64 279.901 101.64C278.962 101.64 278.121 102.109 277.748 102.999L276.616 102.611C277.085 101.219 278.525 100.507 279.917 100.507C281.956 100.507 283.251 101.866 283.251 103.938V109.084H282.118L282.037 107.789C281.503 108.825 280.435 109.327 279.302 109.327C277.765 109.327 276.308 108.437 276.308 106.737ZM277.619 106.689C277.619 107.757 278.574 108.242 279.545 108.242C280.904 108.242 282.005 107.239 282.005 105.831V105.524C281.325 105.248 280.629 105.07 279.901 105.07C278.881 105.07 277.619 105.459 277.619 106.689ZM285.032 104.763C285.032 102.53 286.585 100.491 288.964 100.491C290.194 100.491 291.327 101.089 291.926 102.19L291.991 100.733H293.156V108.372C293.156 110.783 291.683 112.628 289.11 112.628C287.589 112.628 286.294 111.997 285.485 110.654L286.569 110.104C287.168 110.994 288.026 111.512 289.11 111.512C290.939 111.512 291.861 110.184 291.861 108.42V107.352C291.23 108.42 290.146 109.003 288.9 109.003C286.585 109.003 285.032 107.012 285.032 104.763ZM286.359 104.747C286.359 106.365 287.378 107.822 289.126 107.822C290.842 107.822 291.894 106.414 291.894 104.747C291.894 103.112 290.906 101.672 289.126 101.672C287.411 101.672 286.359 103.08 286.359 104.747ZM295.02 106.737C295.02 104.828 296.768 104.051 298.467 104.051C299.18 104.051 300.086 104.213 300.717 104.52V103.905C300.717 102.627 299.973 101.64 298.613 101.64C297.674 101.64 296.833 102.109 296.461 102.999L295.328 102.611C295.797 101.219 297.238 100.507 298.629 100.507C300.668 100.507 301.963 101.866 301.963 103.938V109.084H300.83L300.749 107.789C300.215 108.825 299.147 109.327 298.014 109.327C296.477 109.327 295.02 108.437 295.02 106.737ZM296.331 106.689C296.331 107.757 297.286 108.242 298.257 108.242C299.616 108.242 300.717 107.239 300.717 105.831V105.524C300.037 105.248 299.341 105.07 298.613 105.07C297.594 105.07 296.331 105.459 296.331 106.689ZM305.459 109.084H304.165V100.733H305.459V109.084ZM304.812 99.1796C304.343 99.1796 303.922 98.7589 303.922 98.2895C303.922 97.804 304.327 97.3995 304.812 97.3995C305.314 97.3995 305.702 97.7717 305.702 98.2895C305.702 98.7751 305.298 99.1796 304.812 99.1796ZM307.721 100.733H308.886L308.951 102.06C309.485 101.041 310.52 100.491 311.653 100.491C313.806 100.491 314.793 102.174 314.793 104.197V109.084H313.498V104.277C313.498 102.902 312.964 101.672 311.411 101.672C309.986 101.672 309.015 102.691 309.015 104.132V109.084H307.721V100.733ZM316.448 107.32L317.613 106.899C318.017 107.692 318.729 108.194 319.636 108.194C320.461 108.194 321.432 107.773 321.432 106.818C321.432 106.122 320.93 105.669 319.911 105.459L319.28 105.329C318.001 105.07 316.69 104.488 316.69 102.983C316.69 101.332 318.098 100.491 319.636 100.491C320.995 100.491 322.144 101.154 322.63 102.481L321.464 102.869C321.286 102.465 321.044 102.157 320.736 101.931C320.412 101.72 320.04 101.607 319.619 101.607C318.875 101.607 317.985 101.979 317.985 102.853C317.985 103.76 318.94 104.035 319.668 104.164L320.299 104.294C321.594 104.553 322.759 105.216 322.759 106.689C322.759 108.404 321.238 109.327 319.636 109.327C318.26 109.327 316.982 108.647 316.448 107.32ZM323.568 100.733H325.105V97.9335H326.4V100.733H329.022V101.834H326.4V106.592C326.4 107.433 326.74 108.162 327.678 108.162C328.115 108.162 328.617 108.016 328.989 107.773L329.378 108.776C328.827 109.165 328.229 109.327 327.565 109.327C325.947 109.327 325.105 108.259 325.105 106.656V101.834H323.568V100.733ZM334.588 100.733H335.753L335.818 102.319C336.449 101.154 337.566 100.491 338.893 100.491C341.288 100.491 342.809 102.594 342.809 104.892C342.809 107.174 341.288 109.327 338.828 109.327C337.582 109.327 336.498 108.744 335.883 107.66V112.385H334.588V100.733ZM335.85 104.909C335.85 105.734 336.077 106.608 336.659 107.223C337.161 107.822 337.889 108.145 338.666 108.145C340.446 108.145 341.482 106.608 341.482 104.909C341.482 104.051 341.256 103.242 340.689 102.578C340.139 101.996 339.475 101.672 338.666 101.672C336.886 101.672 335.85 103.226 335.85 104.909ZM348.44 109.327C345.98 109.327 344.313 107.336 344.313 104.909C344.313 102.53 345.964 100.491 348.473 100.491C350.949 100.491 352.599 102.449 352.599 104.909C352.599 107.304 350.965 109.327 348.44 109.327ZM345.641 104.909C345.641 105.734 345.867 106.608 346.45 107.223C346.951 107.822 347.68 108.145 348.456 108.145C350.237 108.145 351.272 106.608 351.272 104.909C351.272 104.051 351.046 103.242 350.479 102.578C349.929 101.996 349.266 101.672 348.456 101.672C346.676 101.672 345.641 103.226 345.641 104.909ZM353.374 100.733H354.912V97.9335H356.207V100.733H358.828V101.834H356.207V106.592C356.207 107.433 356.546 108.162 357.485 108.162C357.922 108.162 358.424 108.016 358.796 107.773L359.184 108.776C358.634 109.165 358.035 109.327 357.372 109.327C355.753 109.327 354.912 108.259 354.912 106.656V101.834H353.374V100.733ZM360.276 104.925C360.276 102.611 361.797 100.507 364.273 100.507C366.587 100.507 368.109 102.335 368.109 104.634V105.168H361.619C361.748 106.786 362.655 108.178 364.451 108.178C365.471 108.178 366.296 107.741 366.846 106.867L367.947 107.369C367.267 108.663 365.924 109.327 364.483 109.327C361.975 109.327 360.276 107.433 360.276 104.925ZM364.273 101.607C362.817 101.607 361.91 102.805 361.684 104.164H366.749C366.62 102.805 365.762 101.607 364.273 101.607ZM369.958 100.733H371.123L371.188 102.06C371.722 101.041 372.758 100.491 373.89 100.491C376.043 100.491 377.03 102.174 377.03 104.197V109.084H375.735V104.277C375.735 102.902 375.201 101.672 373.648 101.672C372.224 101.672 371.253 102.691 371.253 104.132V109.084H369.958V100.733ZM378.124 100.733H379.661V97.9335H380.956V100.733H383.578V101.834H380.956V106.592C380.956 107.433 381.296 108.162 382.235 108.162C382.672 108.162 383.173 108.016 383.545 107.773L383.934 108.776C383.384 109.165 382.785 109.327 382.121 109.327C380.503 109.327 379.661 108.259 379.661 106.656V101.834H378.124V100.733ZM386.899 109.084H385.604V100.733H386.899V109.084ZM386.251 99.1796C385.782 99.1796 385.361 98.7589 385.361 98.2895C385.361 97.804 385.766 97.3995 386.251 97.3995C386.753 97.3995 387.141 97.7717 387.141 98.2895C387.141 98.7751 386.737 99.1796 386.251 99.1796ZM388.755 106.737C388.755 104.828 390.503 104.051 392.203 104.051C392.915 104.051 393.821 104.213 394.452 104.52V103.905C394.452 102.627 393.708 101.64 392.348 101.64C391.41 101.64 390.568 102.109 390.196 102.999L389.063 102.611C389.532 101.219 390.973 100.507 392.364 100.507C394.403 100.507 395.698 101.866 395.698 103.938V109.084H394.565L394.484 107.789C393.95 108.825 392.882 109.327 391.749 109.327C390.212 109.327 388.755 108.437 388.755 106.737ZM390.066 106.689C390.066 107.757 391.021 108.242 391.992 108.242C393.352 108.242 394.452 107.239 394.452 105.831V105.524C393.772 105.248 393.076 105.07 392.348 105.07C391.329 105.07 390.066 105.459 390.066 106.689ZM397.9 109.084V97.0758H399.194V109.084H397.9ZM159.315 125.733H160.739L163.28 132.692L165.821 125.733H167.196L163.927 134.084H162.584L159.315 125.733ZM168.563 125.733H169.857V130.475C169.857 131.851 170.505 133.145 172.058 133.145C173.612 133.145 174.259 131.915 174.259 130.475V125.733H175.554V130.459C175.554 132.595 174.34 134.327 172.026 134.327C169.744 134.327 168.563 132.676 168.563 130.459V125.733ZM177.762 134.084V122.076H179.057V134.084H177.762ZM181.318 125.733H182.483L182.548 127.06C183.082 126.041 184.118 125.491 185.251 125.491C187.403 125.491 188.39 127.174 188.39 129.197V134.084H187.096V129.277C187.096 127.902 186.562 126.672 185.008 126.672C183.584 126.672 182.613 127.691 182.613 129.132V134.084H181.318V125.733ZM190.175 129.925C190.175 127.611 191.696 125.507 194.172 125.507C196.486 125.507 198.007 127.335 198.007 129.634V130.168H191.518C191.647 131.786 192.554 133.178 194.35 133.178C195.369 133.178 196.195 132.741 196.745 131.867L197.846 132.369C197.166 133.663 195.823 134.327 194.382 134.327C191.874 134.327 190.175 132.433 190.175 129.925ZM194.172 126.607C192.715 126.607 191.809 127.805 191.582 129.164H196.648C196.518 127.805 195.661 126.607 194.172 126.607ZM199.857 125.733H201.022L201.103 127.287C201.523 126.251 202.333 125.62 203.466 125.62C203.644 125.62 203.822 125.636 203.967 125.652C204.113 125.685 204.226 125.717 204.339 125.766L204.178 126.996C203.935 126.898 203.676 126.882 203.417 126.882C201.863 126.882 201.151 128.226 201.151 129.65V134.084H199.857V125.733ZM205.3 131.737C205.3 129.828 207.047 129.051 208.747 129.051C209.459 129.051 210.365 129.213 210.996 129.52V128.905C210.996 127.627 210.252 126.64 208.892 126.64C207.954 126.64 207.112 127.109 206.74 127.999L205.607 127.611C206.076 126.219 207.517 125.507 208.909 125.507C210.948 125.507 212.242 126.866 212.242 128.938V134.084H211.109L211.029 132.789C210.494 133.825 209.426 134.327 208.294 134.327C206.756 134.327 205.3 133.437 205.3 131.737ZM206.61 131.689C206.61 132.757 207.565 133.242 208.536 133.242C209.896 133.242 210.996 132.239 210.996 130.831V130.524C210.316 130.248 209.621 130.07 208.892 130.07C207.873 130.07 206.61 130.459 206.61 131.689ZM214.444 122.076H215.739V127.206C216.386 126.089 217.47 125.491 218.749 125.491C221.144 125.491 222.665 127.594 222.665 129.892C222.665 132.174 221.144 134.327 218.684 134.327C217.406 134.327 216.305 133.679 215.674 132.563L215.609 134.084H214.444V122.076ZM218.522 126.672C216.742 126.672 215.706 128.226 215.706 129.909C215.706 130.734 215.933 131.608 216.515 132.223C217.017 132.822 217.745 133.145 218.522 133.145C220.302 133.145 221.338 131.608 221.338 129.909C221.338 129.051 221.112 128.242 220.545 127.578C219.995 126.996 219.331 126.672 218.522 126.672ZM225.806 134.084H224.511V125.733H225.806V134.084ZM225.159 124.18C224.689 124.18 224.268 123.759 224.268 123.29C224.268 122.804 224.673 122.399 225.159 122.399C225.66 122.399 226.049 122.772 226.049 123.29C226.049 123.775 225.644 124.18 225.159 124.18ZM228.067 134.084V122.076H229.362V134.084H228.067ZM232.918 134.084H231.623V125.733H232.918V134.084ZM232.27 124.18C231.801 124.18 231.38 123.759 231.38 123.29C231.38 122.804 231.785 122.399 232.27 122.399C232.772 122.399 233.161 122.772 233.161 123.29C233.161 123.775 232.756 124.18 232.27 124.18ZM234.305 125.733H235.843V122.934H237.137V125.733H239.759V126.834H237.137V131.592C237.137 132.433 237.477 133.162 238.416 133.162C238.853 133.162 239.354 133.016 239.727 132.773L240.115 133.776C239.565 134.165 238.966 134.327 238.303 134.327C236.684 134.327 235.843 133.259 235.843 131.656V126.834H234.305V125.733ZM243.08 134.084H241.785V125.733H243.08V134.084ZM242.433 124.18C241.963 124.18 241.543 123.759 241.543 123.29C241.543 122.804 241.947 122.399 242.433 122.399C242.934 122.399 243.323 122.772 243.323 123.29C243.323 123.775 242.918 124.18 242.433 124.18ZM244.92 129.925C244.92 127.611 246.442 125.507 248.918 125.507C251.232 125.507 252.753 127.335 252.753 129.634V130.168H246.264C246.393 131.786 247.299 133.178 249.096 133.178C250.115 133.178 250.941 132.741 251.491 131.867L252.591 132.369C251.912 133.663 250.569 134.327 249.128 134.327C246.62 134.327 244.92 132.433 244.92 129.925ZM248.918 126.607C247.461 126.607 246.555 127.805 246.328 129.164H251.394C251.264 127.805 250.407 126.607 248.918 126.607ZM254.084 132.32L255.249 131.899C255.654 132.692 256.366 133.194 257.272 133.194C258.097 133.194 259.068 132.773 259.068 131.818C259.068 131.122 258.567 130.669 257.547 130.459L256.916 130.329C255.638 130.07 254.327 129.488 254.327 127.983C254.327 126.332 255.735 125.491 257.272 125.491C258.631 125.491 259.781 126.154 260.266 127.481L259.101 127.869C258.923 127.465 258.68 127.157 258.373 126.931C258.049 126.72 257.677 126.607 257.256 126.607C256.511 126.607 255.621 126.979 255.621 127.853C255.621 128.76 256.576 129.035 257.304 129.164L257.936 129.294C259.23 129.553 260.395 130.216 260.395 131.689C260.395 133.404 258.874 134.327 257.272 134.327C255.896 134.327 254.618 133.647 254.084 132.32ZM261.899 133.162C261.899 132.627 262.304 132.191 262.854 132.191C263.21 132.191 263.501 132.369 263.696 132.66C263.776 132.805 263.825 132.984 263.825 133.162C263.825 133.34 263.776 133.501 263.696 133.647C263.501 133.955 263.226 134.133 262.854 134.133C262.336 134.133 261.899 133.679 261.899 133.162Z" fill="#6A6A6A"/>
<defs>
<linearGradient id="paint0_linear_89_41392" x1="0.392578" y1="91.6797" x2="638.691" y2="91.8324" gradientUnits="userSpaceOnUse">
<stop offset="0.565" stop-color="#FD395C"/>
<stop offset="0.93" stop-color="white"/>
</linearGradient>
</defs>
</svg>
