<svg width="690" height="183" viewBox="0 0 690 183" fill="none" xmlns="http://www.w3.org/2000/svg">
<rect x="2.14453" y="2.73242" width="685.774" height="177.965" rx="88.9825" stroke="url(#paint0_linear_89_41367)" stroke-width="4"/>
<path d="M95.9419 86.1377H72.8879C70.2423 86.1377 67.1432 85.1551 65.0268 84.1725C66.8409 82.8119 70.2423 81.8293 72.8123 80.1664C70.1667 75.3288 70.0156 73.2879 70.5447 69.7354C70.2423 69.8109 53.0841 78.5034 52.8573 84.626C52.6305 91.5044 64.1198 97.5514 71.3005 98.0049L70.3935 127.786H98.2095L97.9827 120.379C98.8898 121.134 100.024 121.966 101.157 121.966C102.216 121.966 103.274 121.21 104.181 120.605C109.472 116.826 115.821 110.401 115.746 104.959C115.746 97.249 99.8724 86.1377 95.9419 86.1377ZM98.2095 112.14C98.0583 112.215 97.9827 112.366 97.8316 112.518L97.4536 98.9119C100.024 100.272 103.425 103.523 105.088 105.11C103.803 106.849 101.006 110.174 98.2095 112.14Z" fill="#FD395C"/>
<path d="M96.4167 72.4146C96.7573 65.7856 91.6597 60.1357 85.0308 59.795C78.4019 59.4543 72.7519 64.552 72.4113 71.1809C72.0706 77.8098 77.1682 83.4598 83.7971 83.8004C90.426 84.1411 96.076 79.0435 96.4167 72.4146Z" fill="#FD395C"/>
<path d="M107.96 61.8735C107.96 60.7397 107.129 60.0594 105.617 60.0594C104.181 60.0594 102.972 60.6641 101.838 61.7979L99.4946 59.228C101.006 57.5651 102.972 56.5068 105.693 56.5068C109.321 56.5068 111.815 58.3965 111.815 61.7979C111.815 65.0482 109.548 66.4087 106.827 66.9378L106.524 68.4496H103.954L103.35 64.3679L103.501 64.2167C106.675 64.0655 107.96 63.2341 107.96 61.8735ZM103.123 74.4965V70.4148H107.205V74.4965H103.123Z" fill="#FD395C"/>
<path d="M160.665 69.084V49.914H166.443C170.223 49.914 173.841 51.561 173.841 55.935C173.841 58.284 172.518 60.228 170.385 61.254L174.84 69.084H171.195L167.496 62.118C167.307 62.145 167.091 62.145 166.848 62.145C166.605 62.172 166.335 62.172 166.092 62.172C165.471 62.172 164.742 62.118 163.905 61.983V69.084H160.665ZM163.905 52.776V59.121C164.661 59.283 165.525 59.31 166.281 59.31C168.414 59.31 170.493 58.473 170.493 56.043C170.493 53.64 168.522 52.776 166.389 52.776H163.905ZM176.202 62.01C176.202 58.068 178.956 54.558 183.141 54.558C187.326 54.558 189.864 57.717 189.864 61.848V62.766H179.415C179.631 64.953 181.008 66.789 183.384 66.789C184.869 66.789 186.003 66.141 186.84 64.818L189.567 65.871C188.487 68.301 185.976 69.489 183.384 69.489C179.145 69.489 176.202 66.276 176.202 62.01ZM183.141 57.069C181.116 57.069 179.874 58.662 179.496 60.552H186.624C186.327 58.689 185.22 57.069 183.141 57.069ZM192.023 61.74C192.023 57.96 194.669 54.558 198.692 54.558C200.582 54.558 202.256 55.368 203.282 56.961L203.39 54.963H206.225V67.599C206.225 71.838 203.498 74.835 199.07 74.835C196.343 74.835 194.048 73.593 192.752 71.163L195.695 70.137C196.505 71.433 197.639 72.108 199.178 72.108C201.689 72.108 203.12 70.326 203.12 67.842V66.492C202.04 68.004 200.366 68.814 198.53 68.814C194.642 68.814 192.023 65.52 192.023 61.74ZM199.178 57.366C196.802 57.366 195.209 59.364 195.209 61.686C195.209 63.954 196.775 66.006 199.178 66.006C201.581 66.006 203.174 64.035 203.174 61.686C203.174 59.364 201.635 57.366 199.178 57.366ZM209.571 62.847V54.963H212.676V62.901C212.676 64.872 213.594 66.681 215.808 66.681C218.022 66.681 218.94 64.872 218.94 62.901V54.963H222.045V62.847C222.045 66.627 219.831 69.489 215.781 69.489C211.866 69.489 209.571 66.735 209.571 62.847ZM225.392 69.084V48.996H228.497V69.084H225.392ZM231.177 65.061C231.177 61.902 234.093 60.552 236.928 60.552C238.116 60.552 239.277 60.768 240.384 61.227V60.336C240.384 58.554 239.385 57.15 237.468 57.15C236.172 57.15 235.038 57.879 234.552 59.094L231.69 58.446C232.392 55.908 235.011 54.558 237.522 54.558C240.978 54.558 243.462 56.907 243.462 60.471V69.084H240.627L240.519 67.221C239.628 68.787 237.9 69.489 236.172 69.489C233.58 69.489 231.177 67.869 231.177 65.061ZM234.309 64.926C234.309 66.33 235.632 67.005 236.901 67.005C238.791 67.005 240.384 65.682 240.384 63.711V63.387C239.925 63.198 239.439 63.036 238.953 62.901C238.44 62.793 237.927 62.739 237.414 62.739C236.064 62.739 234.309 63.279 234.309 64.926ZM245.139 54.963H247.623V50.184H250.728V54.963H254.832V57.474H250.728V64.413C250.728 65.628 251.214 66.762 252.591 66.762C252.915 66.762 253.266 66.708 253.644 66.6C254.022 66.519 254.373 66.384 254.697 66.195L255.399 68.544C254.994 68.841 254.508 69.057 253.968 69.246C253.401 69.408 252.807 69.489 252.186 69.489C249.216 69.489 247.623 67.653 247.623 64.737V57.474H245.139V54.963ZM256.965 62.01C256.965 57.825 259.908 54.558 264.255 54.558C268.467 54.558 271.437 57.771 271.437 62.01C271.437 66.195 268.494 69.489 264.147 69.489C259.962 69.489 256.965 66.222 256.965 62.01ZM264.201 57.366C261.636 57.366 260.151 59.58 260.151 62.01C260.151 64.359 261.636 66.681 264.201 66.681C266.766 66.681 268.251 64.413 268.251 62.01C268.251 59.607 266.82 57.366 264.201 57.366ZM274.171 54.963H277.006L277.141 57.285C277.843 55.719 279.166 54.774 280.894 54.774C281.38 54.774 281.893 54.828 282.352 55.017L282.001 58.041C281.596 57.879 281.164 57.852 280.732 57.852C278.302 57.852 277.276 59.715 277.276 61.929V69.084H274.171V54.963ZM283.712 54.963H287.114L290.921 65.52L294.377 54.963H297.671L291.677 70.785C290.813 73.026 289.463 74.7 286.898 74.7C286.061 74.7 285.278 74.538 284.522 74.133L285.197 71.676C285.386 71.757 285.629 71.838 285.872 71.919C286.115 71.973 286.358 72 286.601 72C287.897 72 288.572 71.19 289.031 70.056L289.463 68.949L283.712 54.963ZM305.469 49.914H308.763V61.335C308.763 64.197 310.329 66.6 313.461 66.6C316.539 66.6 318.159 64.305 318.159 61.335V49.914H321.453V61.47C321.453 66.249 318.402 69.624 313.407 69.624C308.574 69.624 305.469 66.438 305.469 61.47V49.914ZM324.796 54.963H327.631L327.739 56.907C328.603 55.341 330.304 54.558 332.059 54.558C335.569 54.558 337.297 57.366 337.297 60.687V69.084H334.192V61.038C334.192 59.121 333.436 57.366 331.276 57.366C329.278 57.366 327.901 58.878 327.901 60.876V69.084H324.796V54.963ZM340.022 62.118C340.022 58.122 342.83 54.558 347.069 54.558C349.823 54.558 352.307 56.07 353.09 58.824L350.147 59.526C349.58 58.23 348.473 57.366 347.015 57.366C344.531 57.366 343.208 59.85 343.208 62.091C343.208 64.359 344.477 66.681 347.015 66.681C348.473 66.681 349.715 65.898 350.309 64.548L353.225 65.223C352.469 67.923 349.715 69.489 347.015 69.489C342.911 69.489 340.022 66.195 340.022 62.118ZM355.051 62.01C355.051 58.068 357.805 54.558 361.99 54.558C366.175 54.558 368.713 57.717 368.713 61.848V62.766H358.264C358.48 64.953 359.857 66.789 362.233 66.789C363.718 66.789 364.852 66.141 365.689 64.818L368.416 65.871C367.336 68.301 364.825 69.489 362.233 69.489C357.994 69.489 355.051 66.276 355.051 62.01ZM361.99 57.069C359.965 57.069 358.723 58.662 358.345 60.552H365.473C365.176 58.689 364.069 57.069 361.99 57.069ZM371.361 54.963H374.196L374.331 57.285C375.033 55.719 376.356 54.774 378.084 54.774C378.57 54.774 379.083 54.828 379.542 55.017L379.191 58.041C378.786 57.879 378.354 57.852 377.922 57.852C375.492 57.852 374.466 59.715 374.466 61.929V69.084H371.361V54.963ZM381.035 54.963H383.519V50.184H386.624V54.963H390.728V57.474H386.624V64.413C386.624 65.628 387.11 66.762 388.487 66.762C388.811 66.762 389.162 66.708 389.54 66.6C389.918 66.519 390.269 66.384 390.593 66.195L391.295 68.544C390.89 68.841 390.404 69.057 389.864 69.246C389.297 69.408 388.703 69.489 388.082 69.489C385.112 69.489 383.519 67.653 383.519 64.737V57.474H381.035V54.963ZM392.913 65.061C392.913 61.902 395.829 60.552 398.664 60.552C399.852 60.552 401.013 60.768 402.12 61.227V60.336C402.12 58.554 401.121 57.15 399.204 57.15C397.908 57.15 396.774 57.879 396.288 59.094L393.426 58.446C394.128 55.908 396.747 54.558 399.258 54.558C402.714 54.558 405.198 56.907 405.198 60.471V69.084H402.363L402.255 67.221C401.364 68.787 399.636 69.489 397.908 69.489C395.316 69.489 392.913 67.869 392.913 65.061ZM396.045 64.926C396.045 66.33 397.368 67.005 398.637 67.005C400.527 67.005 402.12 65.682 402.12 63.711V63.387C401.661 63.198 401.175 63.036 400.689 62.901C400.176 62.793 399.663 62.739 399.15 62.739C397.8 62.739 396.045 63.279 396.045 64.926ZM411.643 69.084H408.538V54.963H411.643V69.084ZM408.457 51.966C408.268 51.669 408.187 51.372 408.187 51.021C408.187 50.67 408.268 50.373 408.457 50.076C408.619 49.779 408.835 49.563 409.132 49.374C409.429 49.212 409.726 49.131 410.077 49.131C410.428 49.131 410.725 49.212 411.022 49.374C411.319 49.563 411.535 49.779 411.724 50.076C411.886 50.373 411.967 50.67 411.967 51.021C411.967 51.372 411.886 51.669 411.724 51.966C411.535 52.263 411.319 52.479 411.022 52.641C410.725 52.83 410.428 52.911 410.077 52.911C409.726 52.911 409.429 52.83 409.132 52.641C408.835 52.479 408.619 52.263 408.457 51.966ZM414.998 54.963H417.833L417.941 56.907C418.805 55.341 420.506 54.558 422.261 54.558C425.771 54.558 427.499 57.366 427.499 60.687V69.084H424.394V61.038C424.394 59.121 423.638 57.366 421.478 57.366C419.48 57.366 418.103 58.878 418.103 60.876V69.084H414.998V54.963ZM429.234 54.963H431.718V50.184H434.823V54.963H438.927V57.474H434.823V64.413C434.823 65.628 435.309 66.762 436.686 66.762C437.01 66.762 437.361 66.708 437.739 66.6C438.117 66.519 438.468 66.384 438.792 66.195L439.494 68.544C439.089 68.841 438.603 69.057 438.063 69.246C437.496 69.408 436.902 69.489 436.281 69.489C433.311 69.489 431.718 67.653 431.718 64.737V57.474H429.234V54.963ZM440.649 54.963H444.051L447.858 65.52L451.314 54.963H454.608L448.614 70.785C447.75 73.026 446.4 74.7 443.835 74.7C442.998 74.7 442.215 74.538 441.459 74.133L442.134 71.676C442.323 71.757 442.566 71.838 442.809 71.919C443.052 71.973 443.295 72 443.538 72C444.834 72 445.509 71.19 445.968 70.056L446.4 68.949L440.649 54.963Z" fill="black"/>
<path d="M160.038 97.5937H161.235L167.644 106.802V97.5937H168.971V109.084H167.773L161.365 99.8755V109.084H160.038V97.5937ZM170.962 106.737C170.962 104.828 172.71 104.051 174.409 104.051C175.121 104.051 176.027 104.213 176.658 104.52V103.905C176.658 102.627 175.914 101.64 174.554 101.64C173.616 101.64 172.774 102.109 172.402 102.999L171.269 102.611C171.739 101.219 173.179 100.507 174.571 100.507C176.61 100.507 177.904 101.866 177.904 103.938V109.084H176.772L176.691 107.789C176.157 108.825 175.089 109.327 173.956 109.327C172.418 109.327 170.962 108.437 170.962 106.737ZM172.273 106.689C172.273 107.757 173.227 108.242 174.198 108.242C175.558 108.242 176.658 107.239 176.658 105.831V105.524C175.979 105.248 175.283 105.07 174.554 105.07C173.535 105.07 172.273 105.459 172.273 106.689ZM179.012 100.733H180.436L182.977 107.692L185.517 100.733H186.893L183.624 109.084H182.281L179.012 100.733ZM189.619 109.084H188.324V100.733H189.619V109.084ZM188.972 99.1796C188.502 99.1796 188.082 98.7589 188.082 98.2895C188.082 97.804 188.486 97.3995 188.972 97.3995C189.473 97.3995 189.862 97.7717 189.862 98.2895C189.862 98.7751 189.457 99.1796 188.972 99.1796ZM191.459 104.763C191.459 102.53 193.013 100.491 195.392 100.491C196.622 100.491 197.755 101.089 198.354 102.19L198.418 100.733H199.584V108.372C199.584 110.783 198.111 112.628 195.538 112.628C194.016 112.628 192.722 111.997 191.913 110.654L192.997 110.104C193.596 110.994 194.453 111.512 195.538 111.512C197.366 111.512 198.289 110.184 198.289 108.42V107.352C197.658 108.42 196.573 109.003 195.327 109.003C193.013 109.003 191.459 107.012 191.459 104.763ZM192.787 104.747C192.787 106.365 193.806 107.822 195.554 107.822C197.269 107.822 198.321 106.414 198.321 104.747C198.321 103.112 197.334 101.672 195.554 101.672C193.838 101.672 192.787 103.08 192.787 104.747ZM201.448 106.737C201.448 104.828 203.196 104.051 204.895 104.051C205.607 104.051 206.514 104.213 207.145 104.52V103.905C207.145 102.627 206.4 101.64 205.041 101.64C204.102 101.64 203.261 102.109 202.888 102.999L201.756 102.611C202.225 101.219 203.665 100.507 205.057 100.507C207.096 100.507 208.391 101.866 208.391 103.938V109.084H207.258L207.177 107.789C206.643 108.825 205.575 109.327 204.442 109.327C202.905 109.327 201.448 108.437 201.448 106.737ZM202.759 106.689C202.759 107.757 203.714 108.242 204.685 108.242C206.044 108.242 207.145 107.239 207.145 105.831V105.524C206.465 105.248 205.769 105.07 205.041 105.07C204.021 105.07 202.759 105.459 202.759 106.689ZM209.466 100.733H211.003V97.9335H212.298V100.733H214.92V101.834H212.298V106.592C212.298 107.433 212.638 108.162 213.576 108.162C214.013 108.162 214.515 108.016 214.887 107.773L215.276 108.776C214.725 109.165 214.127 109.327 213.463 109.327C211.845 109.327 211.003 108.259 211.003 106.656V101.834H209.466V100.733ZM216.367 104.925C216.367 102.611 217.888 100.507 220.364 100.507C222.679 100.507 224.2 102.335 224.2 104.634V105.168H217.71C217.84 106.786 218.746 108.178 220.542 108.178C221.562 108.178 222.387 107.741 222.938 106.867L224.038 107.369C223.358 108.663 222.015 109.327 220.575 109.327C218.066 109.327 216.367 107.433 216.367 104.925ZM220.364 101.607C218.908 101.607 218.002 102.805 217.775 104.164H222.84C222.711 102.805 221.853 101.607 220.364 101.607ZM228.715 100.733H230.253V97.9335H231.547V100.733H234.169V101.834H231.547V106.592C231.547 107.433 231.887 108.162 232.826 108.162C233.263 108.162 233.765 108.016 234.137 107.773L234.525 108.776C233.975 109.165 233.376 109.327 232.713 109.327C231.094 109.327 230.253 108.259 230.253 106.656V101.834H228.715V100.733ZM236.195 109.084V97.0758H237.49V101.947C238.024 100.976 239.044 100.491 240.128 100.491C242.28 100.491 243.268 102.174 243.268 104.197V109.084H241.973V104.277C241.973 102.902 241.439 101.672 239.885 101.672C238.461 101.672 237.49 102.691 237.49 104.132V109.084H236.195ZM245.052 104.925C245.052 102.611 246.573 100.507 249.049 100.507C251.363 100.507 252.885 102.335 252.885 104.634V105.168H246.395C246.524 106.786 247.431 108.178 249.227 108.178C250.247 108.178 251.072 107.741 251.622 106.867L252.723 107.369C252.043 108.663 250.7 109.327 249.259 109.327C246.751 109.327 245.052 107.433 245.052 104.925ZM249.049 101.607C247.593 101.607 246.686 102.805 246.46 104.164H251.525C251.396 102.805 250.538 101.607 249.049 101.607ZM257.853 104.925C257.853 102.611 259.374 100.507 261.851 100.507C264.165 100.507 265.686 102.335 265.686 104.634V105.168H259.196C259.326 106.786 260.232 108.178 262.029 108.178C263.048 108.178 263.873 107.741 264.424 106.867L265.524 107.369C264.844 108.663 263.501 109.327 262.061 109.327C259.552 109.327 257.853 107.433 257.853 104.925ZM261.851 101.607C260.394 101.607 259.488 102.805 259.261 104.164H264.327C264.197 102.805 263.339 101.607 261.851 101.607ZM266.504 100.733H267.928L270.469 107.692L273.01 100.733H274.385L271.116 109.084H269.773L266.504 100.733ZM279.333 109.327C276.873 109.327 275.206 107.336 275.206 104.909C275.206 102.53 276.857 100.491 279.365 100.491C281.842 100.491 283.492 102.449 283.492 104.909C283.492 107.304 281.858 109.327 279.333 109.327ZM276.533 104.909C276.533 105.734 276.76 106.608 277.342 107.223C277.844 107.822 278.572 108.145 279.349 108.145C281.129 108.145 282.165 106.608 282.165 104.909C282.165 104.051 281.939 103.242 281.372 102.578C280.822 101.996 280.158 101.672 279.349 101.672C277.569 101.672 276.533 103.226 276.533 104.909ZM285.331 109.084V97.0758H286.626V109.084H285.331ZM288.045 100.733H289.469L292.01 107.692L294.551 100.733H295.927L292.658 109.084H291.314L288.045 100.733ZM298.653 109.084H297.358V100.733H298.653V109.084ZM298.005 99.1796C297.536 99.1796 297.115 98.7589 297.115 98.2895C297.115 97.804 297.52 97.3995 298.005 97.3995C298.507 97.3995 298.895 97.7717 298.895 98.2895C298.895 98.7751 298.491 99.1796 298.005 99.1796ZM300.914 100.733H302.079L302.144 102.06C302.678 101.041 303.714 100.491 304.846 100.491C306.999 100.491 307.986 102.174 307.986 104.197V109.084H306.691V104.277C306.691 102.902 306.157 101.672 304.604 101.672C303.18 101.672 302.209 102.691 302.209 104.132V109.084H300.914V100.733ZM309.77 104.763C309.77 102.53 311.324 100.491 313.703 100.491C314.933 100.491 316.066 101.089 316.664 102.19L316.729 100.733H317.894V108.372C317.894 110.783 316.422 112.628 313.848 112.628C312.327 112.628 311.032 111.997 310.223 110.654L311.308 110.104C311.906 110.994 312.764 111.512 313.848 111.512C315.677 111.512 316.6 110.184 316.6 108.42V107.352C315.968 108.42 314.884 109.003 313.638 109.003C311.324 109.003 309.77 107.012 309.77 104.763ZM311.097 104.747C311.097 106.365 312.117 107.822 313.865 107.822C315.58 107.822 316.632 106.414 316.632 104.747C316.632 103.112 315.645 101.672 313.865 101.672C312.149 101.672 311.097 103.08 311.097 104.747ZM323.704 100.733H324.869L324.95 102.287C325.37 101.251 326.18 100.62 327.313 100.62C327.491 100.62 327.669 100.636 327.814 100.652C327.96 100.685 328.073 100.717 328.186 100.766L328.025 101.996C327.782 101.898 327.523 101.882 327.264 101.882C325.71 101.882 324.998 103.226 324.998 104.65V109.084H323.704V100.733ZM329.051 104.925C329.051 102.611 330.573 100.507 333.049 100.507C335.363 100.507 336.884 102.335 336.884 104.634V105.168H330.395C330.524 106.786 331.43 108.178 333.227 108.178C334.246 108.178 335.072 107.741 335.622 106.867L336.722 107.369C336.043 108.663 334.699 109.327 333.259 109.327C330.751 109.327 329.051 107.433 329.051 104.925ZM333.049 101.607C331.592 101.607 330.686 102.805 330.459 104.164H335.525C335.395 102.805 334.538 101.607 333.049 101.607ZM338.392 104.763C338.392 102.53 339.945 100.491 342.324 100.491C343.554 100.491 344.687 101.089 345.286 102.19L345.351 100.733H346.516V108.372C346.516 110.783 345.043 112.628 342.47 112.628C340.949 112.628 339.654 111.997 338.845 110.654L339.929 110.104C340.528 110.994 341.386 111.512 342.47 111.512C344.299 111.512 345.221 110.184 345.221 108.42V107.352C344.59 108.42 343.506 109.003 342.26 109.003C339.945 109.003 338.392 107.012 338.392 104.763ZM339.719 104.747C339.719 106.365 340.738 107.822 342.486 107.822C344.202 107.822 345.254 106.414 345.254 104.747C345.254 103.112 344.266 101.672 342.486 101.672C340.771 101.672 339.719 103.08 339.719 104.747ZM348.72 100.733H350.015V105.475C350.015 106.851 350.662 108.145 352.216 108.145C353.769 108.145 354.417 106.915 354.417 105.475V100.733H355.712V105.459C355.712 107.595 354.498 109.327 352.183 109.327C349.902 109.327 348.72 107.676 348.72 105.459V100.733ZM357.92 109.084V97.0758H359.214V109.084H357.92ZM361.071 106.737C361.071 104.828 362.819 104.051 364.518 104.051C365.23 104.051 366.137 104.213 366.768 104.52V103.905C366.768 102.627 366.023 101.64 364.664 101.64C363.725 101.64 362.884 102.109 362.512 102.999L361.379 102.611C361.848 101.219 363.288 100.507 364.68 100.507C366.719 100.507 368.014 101.866 368.014 103.938V109.084H366.881L366.8 107.789C366.266 108.825 365.198 109.327 364.065 109.327C362.528 109.327 361.071 108.437 361.071 106.737ZM362.382 106.689C362.382 107.757 363.337 108.242 364.308 108.242C365.667 108.242 366.768 107.239 366.768 105.831V105.524C366.088 105.248 365.392 105.07 364.664 105.07C363.644 105.07 362.382 105.459 362.382 106.689ZM369.089 100.733H370.626V97.9335H371.921V100.733H374.543V101.834H371.921V106.592C371.921 107.433 372.261 108.162 373.199 108.162C373.636 108.162 374.138 108.016 374.51 107.773L374.899 108.776C374.348 109.165 373.75 109.327 373.086 109.327C371.468 109.327 370.626 108.259 370.626 106.656V101.834H369.089V100.733ZM380.117 109.327C377.657 109.327 375.99 107.336 375.99 104.909C375.99 102.53 377.641 100.491 380.149 100.491C382.625 100.491 384.276 102.449 384.276 104.909C384.276 107.304 382.641 109.327 380.117 109.327ZM377.317 104.909C377.317 105.734 377.544 106.608 378.126 107.223C378.628 107.822 379.356 108.145 380.133 108.145C381.913 108.145 382.949 106.608 382.949 104.909C382.949 104.051 382.722 103.242 382.156 102.578C381.606 101.996 380.942 101.672 380.133 101.672C378.353 101.672 377.317 103.226 377.317 104.909ZM386.115 100.733H387.28L387.361 102.287C387.782 101.251 388.591 100.62 389.724 100.62C389.902 100.62 390.08 100.636 390.225 100.652C390.371 100.685 390.484 100.717 390.597 100.766L390.436 101.996C390.193 101.898 389.934 101.882 389.675 101.882C388.121 101.882 387.409 103.226 387.409 104.65V109.084H386.115V100.733ZM391.532 100.733H392.956L395.626 107.595L398.037 100.733H399.413L395.691 110.395C395.238 111.609 394.477 112.547 393.085 112.547C392.6 112.547 392.276 112.466 391.855 112.24L392.227 111.204C392.47 111.333 392.745 111.398 393.02 111.398C393.846 111.398 394.283 110.799 394.558 110.087L394.995 109.003L391.532 100.733ZM404.384 109.084V97.0758H405.679V109.084H404.384ZM407.536 106.737C407.536 104.828 409.284 104.051 410.983 104.051C411.695 104.051 412.601 104.213 413.232 104.52V103.905C413.232 102.627 412.488 101.64 411.128 101.64C410.19 101.64 409.348 102.109 408.976 102.999L407.843 102.611C408.313 101.219 409.753 100.507 411.145 100.507C413.184 100.507 414.478 101.866 414.478 103.938V109.084H413.346L413.265 107.789C412.731 108.825 411.663 109.327 410.53 109.327C408.992 109.327 407.536 108.437 407.536 106.737ZM408.847 106.689C408.847 107.757 409.801 108.242 410.772 108.242C412.132 108.242 413.232 107.239 413.232 105.831V105.524C412.553 105.248 411.857 105.07 411.128 105.07C410.109 105.07 408.847 105.459 408.847 106.689ZM416.68 100.733H417.845L417.91 102.06C418.444 101.041 419.48 100.491 420.613 100.491C422.765 100.491 423.752 102.174 423.752 104.197V109.084H422.458V104.277C422.458 102.902 421.924 101.672 420.37 101.672C418.946 101.672 417.975 102.691 417.975 104.132V109.084H416.68V100.733ZM429.453 109.327C427.074 109.327 425.536 107.207 425.536 104.925C425.536 102.643 427.058 100.491 429.518 100.491C430.764 100.491 431.832 101.073 432.463 102.157V97.0758H433.758V109.084H432.592L432.528 107.498C431.88 108.679 430.796 109.327 429.453 109.327ZM426.863 104.909C426.863 105.734 427.09 106.608 427.673 107.223C428.174 107.822 428.903 108.145 429.679 108.145C431.46 108.145 432.495 106.608 432.495 104.909C432.495 104.051 432.269 103.242 431.702 102.578C431.152 101.996 430.489 101.672 429.679 101.672C427.899 101.672 426.863 103.226 426.863 104.909ZM435.474 107.32L436.639 106.899C437.044 107.692 437.756 108.194 438.662 108.194C439.488 108.194 440.459 107.773 440.459 106.818C440.459 106.122 439.957 105.669 438.937 105.459L438.306 105.329C437.028 105.07 435.717 104.488 435.717 102.983C435.717 101.332 437.125 100.491 438.662 100.491C440.022 100.491 441.171 101.154 441.656 102.481L440.491 102.869C440.313 102.465 440.07 102.157 439.763 101.931C439.439 101.72 439.067 101.607 438.646 101.607C437.902 101.607 437.012 101.979 437.012 102.853C437.012 103.76 437.966 104.035 438.695 104.164L439.326 104.294C440.621 104.553 441.786 105.216 441.786 106.689C441.786 108.404 440.265 109.327 438.662 109.327C437.287 109.327 436.008 108.647 435.474 107.32ZM447.093 109.327C444.681 109.327 443.079 107.336 443.079 104.973C443.079 102.643 444.665 100.491 447.157 100.491C448.662 100.491 449.909 101.316 450.491 102.724L449.31 103.128C448.857 102.271 448.112 101.672 447.109 101.672C445.361 101.672 444.406 103.355 444.406 104.957C444.406 106.09 444.908 107.433 446.024 107.903C446.348 108.064 446.704 108.145 447.093 108.145C448.08 108.145 448.986 107.611 449.407 106.705L450.588 107.11C450.022 108.534 448.598 109.327 447.093 109.327ZM451.93 106.737C451.93 104.828 453.678 104.051 455.377 104.051C456.089 104.051 456.995 104.213 457.626 104.52V103.905C457.626 102.627 456.882 101.64 455.523 101.64C454.584 101.64 453.742 102.109 453.37 102.999L452.237 102.611C452.707 101.219 454.147 100.507 455.539 100.507C457.578 100.507 458.873 101.866 458.873 103.938V109.084H457.74L457.659 107.789C457.125 108.825 456.057 109.327 454.924 109.327C453.386 109.327 451.93 108.437 451.93 106.737ZM453.241 106.689C453.241 107.757 454.196 108.242 455.167 108.242C456.526 108.242 457.626 107.239 457.626 105.831V105.524C456.947 105.248 456.251 105.07 455.523 105.07C454.503 105.07 453.241 105.459 453.241 106.689ZM461.074 100.733H462.239L462.304 102.319C462.935 101.154 464.052 100.491 465.379 100.491C467.774 100.491 469.295 102.594 469.295 104.892C469.295 107.174 467.774 109.327 465.314 109.327C464.068 109.327 462.984 108.744 462.369 107.66V112.385H461.074V100.733ZM462.337 104.909C462.337 105.734 462.563 106.608 463.146 107.223C463.647 107.822 464.376 108.145 465.152 108.145C466.933 108.145 467.968 106.608 467.968 104.909C467.968 104.051 467.742 103.242 467.175 102.578C466.625 101.996 465.962 101.672 465.152 101.672C463.372 101.672 462.337 103.226 462.337 104.909ZM470.8 104.925C470.8 102.611 472.321 100.507 474.797 100.507C477.111 100.507 478.633 102.335 478.633 104.634V105.168H472.143C472.272 106.786 473.179 108.178 474.975 108.178C475.995 108.178 476.82 107.741 477.37 106.867L478.471 107.369C477.791 108.663 476.448 109.327 475.007 109.327C472.499 109.327 470.8 107.433 470.8 104.925ZM474.797 101.607C473.341 101.607 472.434 102.805 472.208 104.164H477.273C477.144 102.805 476.286 101.607 474.797 101.607ZM485.317 109.084H484.022V100.733H485.317V109.084ZM484.669 99.1796C484.2 99.1796 483.779 98.7589 483.779 98.2895C483.779 97.804 484.184 97.3995 484.669 97.3995C485.171 97.3995 485.559 97.7717 485.559 98.2895C485.559 98.7751 485.155 99.1796 484.669 99.1796ZM487.578 100.733H488.743L488.808 102.06C489.342 101.041 490.378 100.491 491.511 100.491C493.663 100.491 494.65 102.174 494.65 104.197V109.084H493.355V104.277C493.355 102.902 492.821 101.672 491.268 101.672C489.844 101.672 488.873 102.691 488.873 104.132V109.084H487.578V100.733ZM159.034 125.733H160.572V122.934H161.866V125.733H164.488V126.834H161.866V131.592C161.866 132.433 162.206 133.162 163.145 133.162C163.582 133.162 164.084 133.016 164.456 132.773L164.844 133.776C164.294 134.165 163.695 134.327 163.032 134.327C161.413 134.327 160.572 133.259 160.572 131.656V126.834H159.034V125.733ZM166.514 134.084V122.076H167.809V126.947C168.343 125.976 169.363 125.491 170.447 125.491C172.599 125.491 173.587 127.174 173.587 129.197V134.084H172.292V129.277C172.292 127.902 171.758 126.672 170.204 126.672C168.78 126.672 167.809 127.691 167.809 129.132V134.084H166.514ZM175.371 129.925C175.371 127.611 176.892 125.507 179.368 125.507C181.682 125.507 183.204 127.335 183.204 129.634V130.168H176.714C176.843 131.786 177.75 133.178 179.546 133.178C180.566 133.178 181.391 132.741 181.941 131.867L183.042 132.369C182.362 133.663 181.019 134.327 179.578 134.327C177.07 134.327 175.371 132.433 175.371 129.925ZM179.368 126.607C177.912 126.607 177.005 127.805 176.779 129.164H181.844C181.715 127.805 180.857 126.607 179.368 126.607ZM192.186 134.327C189.774 134.327 188.172 132.336 188.172 129.973C188.172 127.643 189.758 125.491 192.25 125.491C193.756 125.491 195.002 126.316 195.584 127.724L194.403 128.128C193.95 127.271 193.205 126.672 192.202 126.672C190.454 126.672 189.499 128.355 189.499 129.957C189.499 131.09 190.001 132.433 191.118 132.903C191.441 133.064 191.797 133.145 192.186 133.145C193.173 133.145 194.079 132.611 194.5 131.705L195.681 132.11C195.115 133.534 193.691 134.327 192.186 134.327ZM197.428 125.733H198.593L198.674 127.287C199.094 126.251 199.904 125.62 201.036 125.62C201.215 125.62 201.393 125.636 201.538 125.652C201.684 125.685 201.797 125.717 201.91 125.766L201.749 126.996C201.506 126.898 201.247 126.882 200.988 126.882C199.434 126.882 198.722 128.226 198.722 129.65V134.084H197.428V125.733ZM202.844 125.733H204.269L206.939 132.595L209.35 125.733H210.726L207.004 135.395C206.551 136.609 205.79 137.547 204.398 137.547C203.913 137.547 203.589 137.466 203.168 137.24L203.54 136.204C203.783 136.333 204.058 136.398 204.333 136.398C205.159 136.398 205.596 135.799 205.871 135.087L206.308 134.003L202.844 125.733ZM212.157 125.733H213.322L213.387 127.319C214.018 126.154 215.135 125.491 216.462 125.491C218.857 125.491 220.378 127.594 220.378 129.892C220.378 132.174 218.857 134.327 216.397 134.327C215.151 134.327 214.067 133.744 213.452 132.66V137.385H212.157V125.733ZM213.419 129.909C213.419 130.734 213.646 131.608 214.229 132.223C214.73 132.822 215.459 133.145 216.235 133.145C218.016 133.145 219.051 131.608 219.051 129.909C219.051 129.051 218.825 128.242 218.258 127.578C217.708 126.996 217.045 126.672 216.235 126.672C214.455 126.672 213.419 128.226 213.419 129.909ZM221.161 125.733H222.698V122.934H223.993V125.733H226.615V126.834H223.993V131.592C223.993 132.433 224.333 133.162 225.271 133.162C225.708 133.162 226.21 133.016 226.582 132.773L226.971 133.776C226.421 134.165 225.822 134.327 225.158 134.327C223.54 134.327 222.698 133.259 222.698 131.656V126.834H221.161V125.733ZM232.189 134.327C229.729 134.327 228.062 132.336 228.062 129.909C228.062 127.53 229.713 125.491 232.221 125.491C234.697 125.491 236.348 127.449 236.348 129.909C236.348 132.304 234.714 134.327 232.189 134.327ZM229.389 129.909C229.389 130.734 229.616 131.608 230.198 132.223C230.7 132.822 231.428 133.145 232.205 133.145C233.985 133.145 235.021 131.608 235.021 129.909C235.021 129.051 234.795 128.242 234.228 127.578C233.678 126.996 233.014 126.672 232.205 126.672C230.425 126.672 229.389 128.226 229.389 129.909ZM241.177 132.32L242.342 131.899C242.746 132.692 243.459 133.194 244.365 133.194C245.19 133.194 246.161 132.773 246.161 131.818C246.161 131.122 245.659 130.669 244.64 130.459L244.009 130.329C242.73 130.07 241.419 129.488 241.419 127.983C241.419 126.332 242.827 125.491 244.365 125.491C245.724 125.491 246.873 126.154 247.359 127.481L246.194 127.869C246.016 127.465 245.773 127.157 245.465 126.931C245.142 126.72 244.769 126.607 244.349 126.607C243.604 126.607 242.714 126.979 242.714 127.853C242.714 128.76 243.669 129.035 244.397 129.164L245.028 129.294C246.323 129.553 247.488 130.216 247.488 131.689C247.488 133.404 245.967 134.327 244.365 134.327C242.989 134.327 241.711 133.647 241.177 132.32ZM249.202 125.733H250.368L250.432 127.319C251.063 126.154 252.18 125.491 253.507 125.491C255.902 125.491 257.424 127.594 257.424 129.892C257.424 132.174 255.902 134.327 253.442 134.327C252.196 134.327 251.112 133.744 250.497 132.66V137.385H249.202V125.733ZM250.465 129.909C250.465 130.734 250.691 131.608 251.274 132.223C251.775 132.822 252.504 133.145 253.281 133.145C255.061 133.145 256.097 131.608 256.097 129.909C256.097 129.051 255.87 128.242 255.304 127.578C254.753 126.996 254.09 126.672 253.281 126.672C251.5 126.672 250.465 128.226 250.465 129.909ZM258.865 131.737C258.865 129.828 260.613 129.051 262.312 129.051C263.024 129.051 263.93 129.213 264.562 129.52V128.905C264.562 127.627 263.817 126.64 262.458 126.64C261.519 126.64 260.678 127.109 260.305 127.999L259.173 127.611C259.642 126.219 261.082 125.507 262.474 125.507C264.513 125.507 265.808 126.866 265.808 128.938V134.084H264.675L264.594 132.789C264.06 133.825 262.992 134.327 261.859 134.327C260.322 134.327 258.865 133.437 258.865 131.737ZM260.176 131.689C260.176 132.757 261.131 133.242 262.102 133.242C263.461 133.242 264.562 132.239 264.562 130.831V130.524C263.882 130.248 263.186 130.07 262.458 130.07C261.438 130.07 260.176 130.459 260.176 131.689ZM271.602 134.327C269.191 134.327 267.589 132.336 267.589 129.973C267.589 127.643 269.175 125.491 271.667 125.491C273.172 125.491 274.418 126.316 275.001 127.724L273.819 128.128C273.366 127.271 272.622 126.672 271.618 126.672C269.87 126.672 268.916 128.355 268.916 129.957C268.916 131.09 269.417 132.433 270.534 132.903C270.858 133.064 271.214 133.145 271.602 133.145C272.589 133.145 273.496 132.611 273.916 131.705L275.098 132.11C274.531 133.534 273.107 134.327 271.602 134.327ZM276.392 129.925C276.392 127.611 277.913 125.507 280.389 125.507C282.703 125.507 284.224 127.335 284.224 129.634V130.168H277.735C277.864 131.786 278.771 133.178 280.567 133.178C281.586 133.178 282.412 132.741 282.962 131.867L284.063 132.369C283.383 133.663 282.04 134.327 280.599 134.327C278.091 134.327 276.392 132.433 276.392 129.925ZM280.389 126.607C278.932 126.607 278.026 127.805 277.8 129.164H282.865C282.736 127.805 281.878 126.607 280.389 126.607ZM285.863 133.162C285.863 132.627 286.268 132.191 286.818 132.191C287.174 132.191 287.465 132.369 287.66 132.66C287.741 132.805 287.789 132.984 287.789 133.162C287.789 133.34 287.741 133.501 287.66 133.647C287.465 133.955 287.19 134.133 286.818 134.133C286.3 134.133 285.863 133.679 285.863 133.162Z" fill="#6A6A6A"/>
<defs>
<linearGradient id="paint0_linear_89_41367" x1="0.144531" y1="91.7149" x2="638.443" y2="91.8675" gradientUnits="userSpaceOnUse">
<stop offset="0.565" stop-color="#FD395C"/>
<stop offset="0.93" stop-color="white"/>
</linearGradient>
</defs>
</svg>
