<svg width="1347" height="183" viewBox="0 0 1347 183" fill="none" xmlns="http://www.w3.org/2000/svg">
<rect x="2.14453" y="2.66211" width="1342.45" height="177.965" rx="88.9825" stroke="url(#paint0_linear_89_41401)" stroke-width="4"/>
<path fill-rule="evenodd" clip-rule="evenodd" d="M76.1658 115.771C76.5095 116.178 76.8806 116.564 77.2752 116.924L67.4549 137.623C67.3104 138.045 66.908 138.322 66.4627 138.299C66.0174 138.279 65.6385 137.967 65.5369 137.533L61.4353 126.162C61.158 125.357 60.3298 124.881 59.4939 125.041L47.5559 127.162C47.138 127.26 46.7044 127.08 46.4778 126.717C46.2513 126.353 46.2825 125.885 46.5559 125.553L58.7749 107.791C60.9155 112.869 66.4117 115.658 71.775 114.392C73.3844 113.931 75.1111 114.475 76.1658 115.771ZM91.8768 114.584C90.1034 116.678 87.4979 117.889 84.7518 117.889C82.0057 117.889 79.3963 116.678 77.6268 114.584C76.1112 112.744 73.662 111.963 71.3651 112.584C68.6971 113.229 65.8768 112.662 63.662 111.041C61.4432 109.42 60.0565 106.9 59.8651 104.162C59.7088 101.791 58.1932 99.7246 55.9745 98.8613C53.4354 97.8144 51.4862 95.7051 50.6464 93.0879C49.8066 90.4746 50.162 87.6231 51.6151 85.291C52.9003 83.291 52.9003 80.7246 51.6151 78.7207C50.1659 76.3848 49.8221 73.5293 50.6737 70.916C51.5253 68.3027 53.4862 66.1972 56.037 65.1621C58.2479 64.2871 59.744 62.1973 59.8651 59.8223C60.0722 57.0801 61.4745 54.5645 63.701 52.9512C65.9315 51.3379 68.7557 50.791 71.4237 51.4512C73.7323 52.041 76.1698 51.2363 77.6737 49.3926C79.4471 47.2949 82.0526 46.084 84.7987 46.084C87.5448 46.084 90.1542 47.2949 91.9237 49.3926C93.4432 51.2246 95.8885 52.0059 98.1854 51.3926C100.853 50.7481 103.674 51.3106 105.889 52.9317C108.107 54.5567 109.494 57.0723 109.685 59.8106C109.814 62.2051 111.338 64.2989 113.576 65.1622C116.115 66.2091 118.064 68.3184 118.904 70.9356C119.744 73.5489 119.389 76.4044 117.935 78.7325C116.65 80.7364 116.65 83.3067 117.935 85.3106C119.373 87.6504 119.709 90.5059 118.853 93.1153C117.994 95.7247 116.033 97.8223 113.486 98.8536C111.291 99.7286 109.806 101.803 109.685 104.162C109.474 106.9 108.064 109.404 105.838 111.01C103.611 112.615 100.791 113.158 98.1268 112.49C95.8143 111.916 93.3768 112.728 91.8768 114.584ZM109.564 81.982C109.564 75.4078 106.954 69.103 102.302 64.451C97.6538 59.8026 91.3492 57.1932 84.7752 57.1932C78.2012 57.1932 71.8962 59.8026 67.2482 64.451C62.5959 69.1033 59.9865 75.408 59.9865 81.982C59.9865 88.5562 62.5959 94.861 67.2482 99.509C71.8966 104.161 78.2012 106.771 84.7752 106.771C91.3492 106.771 97.6542 104.161 102.302 99.509C106.954 94.8606 109.564 88.556 109.564 81.982ZM107.646 81.982C107.658 88.0484 105.259 93.877 100.974 98.173C96.6928 102.474 90.876 104.892 84.81 104.9C78.7397 104.911 72.915 102.505 68.622 98.2199C64.3251 93.9347 61.9072 88.1179 61.9032 82.0479C61.8993 75.9776 64.3055 70.1569 68.5985 65.8639C72.8876 61.5709 78.7035 59.1608 84.7745 59.1608C90.8331 59.1608 96.6415 61.5631 100.926 65.8405C105.216 70.1178 107.63 75.923 107.646 81.982ZM98.3334 73.2828C97.2318 71.9039 95.2201 71.6734 93.8334 72.7711L79.4664 84.2121L74.8453 78.6613C74.3101 77.9855 73.525 77.5519 72.6656 77.4621C71.8101 77.3722 70.9508 77.6339 70.2867 78.1847C69.6265 78.7355 69.2125 79.5324 69.1422 80.3917C69.0758 81.2511 69.357 82.1026 69.9234 82.7511L75.9742 90.0206C77.8258 91.88 79.9156 92.0206 81.814 90.5402L97.814 77.7782V77.7821C99.1968 76.6805 99.4311 74.6695 98.3334 73.2828ZM123.036 125.533L110.774 107.791C108.618 112.908 103.067 115.701 97.6723 114.381C96.0746 113.963 94.3754 114.525 93.3442 115.822C93.0122 116.213 92.6567 116.58 92.2739 116.924L102.094 137.623C102.239 138.044 102.641 138.322 103.086 138.298C103.532 138.279 103.911 137.966 104.012 137.533L108.114 126.162C108.391 125.357 109.219 124.881 110.055 125.041L121.993 127.162C122.427 127.298 122.899 127.13 123.142 126.748C123.388 126.365 123.341 125.865 123.036 125.533Z" fill="#FD395C"/>
<path d="M169.71 69.624C164.04 69.624 160.017 65.223 160.017 59.526C160.017 53.964 163.905 49.374 169.737 49.374C175.461 49.374 179.403 53.748 179.403 59.472C179.403 62.145 178.458 64.845 176.568 66.789L178.863 69.624L176.649 71.406L174.3 68.49C172.842 69.246 171.357 69.624 169.71 69.624ZM163.419 59.499C163.419 63.171 165.714 66.6 169.71 66.6C170.655 66.6 171.546 66.411 172.329 66.06L169.062 61.983L171.249 60.228L174.516 64.305C175.569 62.874 176.001 61.254 176.001 59.499C176.001 55.8 173.76 52.398 169.71 52.398C165.768 52.398 163.419 55.692 163.419 59.499ZM182.308 62.847V54.963H185.413V62.901C185.413 64.872 186.331 66.681 188.545 66.681C190.759 66.681 191.677 64.872 191.677 62.901V54.963H194.782V62.847C194.782 66.627 192.568 69.489 188.518 69.489C184.603 69.489 182.308 66.735 182.308 62.847ZM197.453 65.061C197.453 61.902 200.369 60.552 203.204 60.552C204.392 60.552 205.553 60.768 206.66 61.227V60.336C206.66 58.554 205.661 57.15 203.744 57.15C202.448 57.15 201.314 57.879 200.828 59.094L197.966 58.446C198.668 55.908 201.287 54.558 203.798 54.558C207.254 54.558 209.738 56.907 209.738 60.471V69.084H206.903L206.795 67.221C205.904 68.787 204.176 69.489 202.448 69.489C199.856 69.489 197.453 67.869 197.453 65.061ZM200.585 64.926C200.585 66.33 201.908 67.005 203.177 67.005C205.067 67.005 206.66 65.682 206.66 63.711V63.387C206.201 63.198 205.715 63.036 205.229 62.901C204.716 62.793 204.203 62.739 203.69 62.739C202.34 62.739 200.585 63.279 200.585 64.926ZM213.078 69.084V48.996H216.183V69.084H213.078ZM222.643 69.084H219.538V54.963H222.643V69.084ZM219.457 51.966C219.268 51.669 219.187 51.372 219.187 51.021C219.187 50.67 219.268 50.373 219.457 50.076C219.619 49.779 219.835 49.563 220.132 49.374C220.429 49.212 220.726 49.131 221.077 49.131C221.428 49.131 221.725 49.212 222.022 49.374C222.319 49.563 222.535 49.779 222.724 50.076C222.886 50.373 222.967 50.67 222.967 51.021C222.967 51.372 222.886 51.669 222.724 51.966C222.535 52.263 222.319 52.479 222.022 52.641C221.725 52.83 221.428 52.911 221.077 52.911C220.726 52.911 220.429 52.83 220.132 52.641C219.835 52.479 219.619 52.263 219.457 51.966ZM224.783 54.963H227.267V50.184H230.372V54.963H234.476V57.474H230.372V64.413C230.372 65.628 230.858 66.762 232.235 66.762C232.559 66.762 232.91 66.708 233.288 66.6C233.666 66.519 234.017 66.384 234.341 66.195L235.043 68.544C234.638 68.841 234.152 69.057 233.612 69.246C233.045 69.408 232.451 69.489 231.83 69.489C228.86 69.489 227.267 67.653 227.267 64.737V57.474H224.783V54.963ZM236.198 54.963H239.6L243.407 65.52L246.863 54.963H250.157L244.163 70.785C243.299 73.026 241.949 74.7 239.384 74.7C238.547 74.7 237.764 74.538 237.008 74.133L237.683 71.676C237.872 71.757 238.115 71.838 238.358 71.919C238.601 71.973 238.844 72 239.087 72C240.383 72 241.058 71.19 241.517 70.056L241.949 68.949L236.198 54.963ZM257.523 59.634C257.523 54.288 261.168 49.374 266.892 49.374C270.483 49.374 273.642 51.264 274.911 54.747L271.752 55.638C270.834 53.613 269.106 52.398 266.865 52.398C263.031 52.398 260.925 56.07 260.925 59.607C260.925 63.144 263.004 66.6 266.919 66.6C269.214 66.6 270.942 65.385 271.941 63.36L275.1 64.251C273.831 67.734 270.537 69.624 266.892 69.624C261.303 69.624 257.523 65.169 257.523 59.634ZM277.136 62.01C277.136 57.825 280.079 54.558 284.426 54.558C288.638 54.558 291.608 57.771 291.608 62.01C291.608 66.195 288.665 69.489 284.318 69.489C280.133 69.489 277.136 66.222 277.136 62.01ZM284.372 57.366C281.807 57.366 280.322 59.58 280.322 62.01C280.322 64.359 281.807 66.681 284.372 66.681C286.937 66.681 288.422 64.413 288.422 62.01C288.422 59.607 286.991 57.366 284.372 57.366ZM294.342 54.963H297.177L297.285 56.907C298.149 55.341 299.85 54.558 301.605 54.558C305.115 54.558 306.843 57.366 306.843 60.687V69.084H303.738V61.038C303.738 59.121 302.982 57.366 300.822 57.366C298.824 57.366 297.447 58.878 297.447 60.876V69.084H294.342V54.963ZM308.578 54.963H311.062V50.184H314.167V54.963H318.271V57.474H314.167V64.413C314.167 65.628 314.653 66.762 316.03 66.762C316.354 66.762 316.705 66.708 317.083 66.6C317.461 66.519 317.812 66.384 318.136 66.195L318.838 68.544C318.433 68.841 317.947 69.057 317.407 69.246C316.84 69.408 316.246 69.489 315.625 69.489C312.655 69.489 311.062 67.653 311.062 64.737V57.474H308.578V54.963ZM321.289 54.963H324.124L324.259 57.285C324.961 55.719 326.284 54.774 328.012 54.774C328.498 54.774 329.011 54.828 329.47 55.017L329.119 58.041C328.714 57.879 328.282 57.852 327.85 57.852C325.42 57.852 324.394 59.715 324.394 61.929V69.084H321.289V54.963ZM330.714 62.01C330.714 57.825 333.657 54.558 338.004 54.558C342.216 54.558 345.186 57.771 345.186 62.01C345.186 66.195 342.243 69.489 337.896 69.489C333.711 69.489 330.714 66.222 330.714 62.01ZM337.95 57.366C335.385 57.366 333.9 59.58 333.9 62.01C333.9 64.359 335.385 66.681 337.95 66.681C340.515 66.681 342 64.413 342 62.01C342 59.607 340.569 57.366 337.95 57.366ZM347.92 69.084V48.996H351.025V69.084H347.92Z" fill="black"/>
<path d="M160.038 97.5937H161.316L165.524 105.297L169.748 97.5937H170.978V109.084H169.651V100.118L166.042 106.689H164.974L161.365 100.118V109.084H160.038V97.5937ZM172.969 106.737C172.969 104.828 174.717 104.051 176.416 104.051C177.128 104.051 178.034 104.213 178.665 104.52V103.905C178.665 102.627 177.921 101.64 176.562 101.64C175.623 101.64 174.781 102.109 174.409 102.999L173.276 102.611C173.746 101.219 175.186 100.507 176.578 100.507C178.617 100.507 179.912 101.866 179.912 103.938V109.084H178.779L178.698 107.789C178.164 108.825 177.096 109.327 175.963 109.327C174.425 109.327 172.969 108.437 172.969 106.737ZM174.28 106.689C174.28 107.757 175.235 108.242 176.206 108.242C177.565 108.242 178.665 107.239 178.665 105.831V105.524C177.986 105.248 177.29 105.07 176.562 105.07C175.542 105.07 174.28 105.459 174.28 106.689ZM183.408 109.084H182.113V100.733H183.408V109.084ZM182.761 99.1796C182.291 99.1796 181.87 98.7589 181.87 98.2895C181.87 97.804 182.275 97.3995 182.761 97.3995C183.262 97.3995 183.651 97.7717 183.651 98.2895C183.651 98.7751 183.246 99.1796 182.761 99.1796ZM185.669 100.733H186.834L186.899 102.06C187.433 101.041 188.469 100.491 189.602 100.491C191.754 100.491 192.741 102.174 192.741 104.197V109.084H191.447V104.277C191.447 102.902 190.913 101.672 189.359 101.672C187.935 101.672 186.964 102.691 186.964 104.132V109.084H185.669V100.733ZM193.835 100.733H195.373V97.9335H196.667V100.733H199.289V101.834H196.667V106.592C196.667 107.433 197.007 108.162 197.946 108.162C198.383 108.162 198.885 108.016 199.257 107.773L199.645 108.776C199.095 109.165 198.496 109.327 197.833 109.327C196.214 109.327 195.373 108.259 195.373 106.656V101.834H193.835V100.733ZM200.769 106.737C200.769 104.828 202.516 104.051 204.216 104.051C204.928 104.051 205.834 104.213 206.465 104.52V103.905C206.465 102.627 205.721 101.64 204.361 101.64C203.423 101.64 202.581 102.109 202.209 102.999L201.076 102.611C201.545 101.219 202.986 100.507 204.378 100.507C206.417 100.507 207.711 101.866 207.711 103.938V109.084H206.578L206.498 107.789C205.963 108.825 204.895 109.327 203.763 109.327C202.225 109.327 200.769 108.437 200.769 106.737ZM202.079 106.689C202.079 107.757 203.034 108.242 204.005 108.242C205.365 108.242 206.465 107.239 206.465 105.831V105.524C205.785 105.248 205.09 105.07 204.361 105.07C203.342 105.07 202.079 105.459 202.079 106.689ZM211.208 109.084H209.913V100.733H211.208V109.084ZM210.56 99.1796C210.091 99.1796 209.67 98.7589 209.67 98.2895C209.67 97.804 210.075 97.3995 210.56 97.3995C211.062 97.3995 211.45 97.7717 211.45 98.2895C211.45 98.7751 211.046 99.1796 210.56 99.1796ZM213.469 100.733H214.634L214.699 102.06C215.233 101.041 216.269 100.491 217.401 100.491C219.554 100.491 220.541 102.174 220.541 104.197V109.084H219.246V104.277C219.246 102.902 218.712 101.672 217.159 101.672C215.735 101.672 214.764 102.691 214.764 104.132V109.084H213.469V100.733ZM226.286 109.084V97.0758H227.581V101.947C228.115 100.976 229.134 100.491 230.219 100.491C232.371 100.491 233.358 102.174 233.358 104.197V109.084H232.064V104.277C232.064 102.902 231.53 101.672 229.976 101.672C228.552 101.672 227.581 102.691 227.581 104.132V109.084H226.286ZM236.858 109.084H235.563V100.733H236.858V109.084ZM236.211 99.1796C235.741 99.1796 235.32 98.7589 235.32 98.2895C235.32 97.804 235.725 97.3995 236.211 97.3995C236.712 97.3995 237.101 97.7717 237.101 98.2895C237.101 98.7751 236.696 99.1796 236.211 99.1796ZM238.698 104.763C238.698 102.53 240.252 100.491 242.631 100.491C243.861 100.491 244.994 101.089 245.593 102.19L245.657 100.733H246.823V108.372C246.823 110.783 245.35 112.628 242.777 112.628C241.255 112.628 239.961 111.997 239.152 110.654L240.236 110.104C240.835 110.994 241.692 111.512 242.777 111.512C244.605 111.512 245.528 110.184 245.528 108.42V107.352C244.897 108.42 243.812 109.003 242.566 109.003C240.252 109.003 238.698 107.012 238.698 104.763ZM240.025 104.747C240.025 106.365 241.045 107.822 242.793 107.822C244.508 107.822 245.56 106.414 245.56 104.747C245.56 103.112 244.573 101.672 242.793 101.672C241.077 101.672 240.025 103.08 240.025 104.747ZM249.092 109.084V97.0758H250.386V101.947C250.92 100.976 251.94 100.491 253.024 100.491C255.177 100.491 256.164 102.174 256.164 104.197V109.084H254.869V104.277C254.869 102.902 254.335 101.672 252.782 101.672C251.357 101.672 250.386 102.691 250.386 104.132V109.084H249.092ZM258.029 105.216V104.035H262.479V105.216H258.029ZM267.902 109.327C265.523 109.327 263.985 107.207 263.985 104.925C263.985 102.643 265.506 100.491 267.966 100.491C269.245 100.491 270.345 101.138 270.977 102.255L271.041 100.733H272.206V112.385H270.912V107.611C270.281 108.712 269.164 109.327 267.902 109.327ZM265.312 104.909C265.312 105.734 265.539 106.608 266.121 107.223C266.623 107.822 267.351 108.145 268.128 108.145C269.908 108.145 270.944 106.608 270.944 104.909C270.944 104.051 270.718 103.242 270.151 102.578C269.601 101.996 268.937 101.672 268.128 101.672C266.348 101.672 265.312 103.226 265.312 104.909ZM274.409 100.733H275.703V105.475C275.703 106.851 276.351 108.145 277.904 108.145C279.458 108.145 280.105 106.915 280.105 105.475V100.733H281.4V105.459C281.4 107.595 280.186 109.327 277.872 109.327C275.59 109.327 274.409 107.676 274.409 105.459V100.733ZM283.204 106.737C283.204 104.828 284.951 104.051 286.651 104.051C287.363 104.051 288.269 104.213 288.9 104.52V103.905C288.9 102.627 288.156 101.64 286.796 101.64C285.858 101.64 285.016 102.109 284.644 102.999L283.511 102.611C283.98 101.219 285.421 100.507 286.813 100.507C288.852 100.507 290.146 101.866 290.146 103.938V109.084H289.013L288.933 107.789C288.399 108.825 287.33 109.327 286.198 109.327C284.66 109.327 283.204 108.437 283.204 106.737ZM284.514 106.689C284.514 107.757 285.469 108.242 286.44 108.242C287.8 108.242 288.9 107.239 288.9 105.831V105.524C288.22 105.248 287.525 105.07 286.796 105.07C285.777 105.07 284.514 105.459 284.514 106.689ZM292.348 109.084V97.0758H293.643V109.084H292.348ZM297.199 109.084H295.904V100.733H297.199V109.084ZM296.551 99.1796C296.082 99.1796 295.661 98.7589 295.661 98.2895C295.661 97.804 296.066 97.3995 296.551 97.3995C297.053 97.3995 297.441 97.7717 297.441 98.2895C297.441 98.7751 297.037 99.1796 296.551 99.1796ZM298.586 100.733H300.123V97.9335H301.418V100.733H304.04V101.834H301.418V106.592C301.418 107.433 301.758 108.162 302.697 108.162C303.134 108.162 303.635 108.016 304.007 107.773L304.396 108.776C303.846 109.165 303.247 109.327 302.583 109.327C300.965 109.327 300.123 108.259 300.123 106.656V101.834H298.586V100.733ZM305.224 100.733H306.649L309.319 107.595L311.73 100.733H313.106L309.384 110.395C308.931 111.609 308.17 112.547 306.778 112.547C306.293 112.547 305.969 112.466 305.548 112.24L305.92 111.204C306.163 111.333 306.438 111.398 306.713 111.398C307.539 111.398 307.976 110.799 308.251 110.087L308.688 109.003L305.224 100.733ZM317.527 107.32L318.692 106.899C319.097 107.692 319.809 108.194 320.715 108.194C321.541 108.194 322.512 107.773 322.512 106.818C322.512 106.122 322.01 105.669 320.99 105.459L320.359 105.329C319.081 105.07 317.77 104.488 317.77 102.983C317.77 101.332 319.178 100.491 320.715 100.491C322.075 100.491 323.224 101.154 323.709 102.481L322.544 102.869C322.366 102.465 322.123 102.157 321.816 101.931C321.492 101.72 321.12 101.607 320.699 101.607C319.955 101.607 319.064 101.979 319.064 102.853C319.064 103.76 320.019 104.035 320.748 104.164L321.379 104.294C322.673 104.553 323.839 105.216 323.839 106.689C323.839 108.404 322.317 109.327 320.715 109.327C319.34 109.327 318.061 108.647 317.527 107.32ZM324.647 100.733H326.185V97.9335H327.479V100.733H330.101V101.834H327.479V106.592C327.479 107.433 327.819 108.162 328.758 108.162C329.195 108.162 329.696 108.016 330.069 107.773L330.457 108.776C329.907 109.165 329.308 109.327 328.645 109.327C327.026 109.327 326.185 108.259 326.185 106.656V101.834H324.647V100.733ZM331.58 106.737C331.58 104.828 333.328 104.051 335.028 104.051C335.74 104.051 336.646 104.213 337.277 104.52V103.905C337.277 102.627 336.533 101.64 335.173 101.64C334.235 101.64 333.393 102.109 333.021 102.999L331.888 102.611C332.357 101.219 333.798 100.507 335.189 100.507C337.228 100.507 338.523 101.866 338.523 103.938V109.084H337.39L337.309 107.789C336.775 108.825 335.707 109.327 334.574 109.327C333.037 109.327 331.58 108.437 331.58 106.737ZM332.891 106.689C332.891 107.757 333.846 108.242 334.817 108.242C336.177 108.242 337.277 107.239 337.277 105.831V105.524C336.597 105.248 335.901 105.07 335.173 105.07C334.154 105.07 332.891 105.459 332.891 106.689ZM340.725 100.733H341.89L341.955 102.06C342.489 101.041 343.525 100.491 344.657 100.491C346.81 100.491 347.797 102.174 347.797 104.197V109.084H346.502V104.277C346.502 102.902 345.968 101.672 344.415 101.672C342.99 101.672 342.019 102.691 342.019 104.132V109.084H340.725V100.733ZM353.498 109.327C351.119 109.327 349.581 107.207 349.581 104.925C349.581 102.643 351.102 100.491 353.562 100.491C354.808 100.491 355.877 101.073 356.508 102.157V97.0758H357.802V109.084H356.637L356.572 107.498C355.925 108.679 354.841 109.327 353.498 109.327ZM350.908 104.909C350.908 105.734 351.135 106.608 351.717 107.223C352.219 107.822 352.947 108.145 353.724 108.145C355.504 108.145 356.54 106.608 356.54 104.909C356.54 104.051 356.313 103.242 355.747 102.578C355.197 101.996 354.533 101.672 353.724 101.672C351.944 101.672 350.908 103.226 350.908 104.909ZM359.665 106.737C359.665 104.828 361.412 104.051 363.112 104.051C363.824 104.051 364.73 104.213 365.361 104.52V103.905C365.361 102.627 364.617 101.64 363.257 101.64C362.319 101.64 361.477 102.109 361.105 102.999L359.972 102.611C360.441 101.219 361.882 100.507 363.274 100.507C365.313 100.507 366.607 101.866 366.607 103.938V109.084H365.474L365.394 107.789C364.86 108.825 363.791 109.327 362.659 109.327C361.121 109.327 359.665 108.437 359.665 106.737ZM360.975 106.689C360.975 107.757 361.93 108.242 362.901 108.242C364.261 108.242 365.361 107.239 365.361 105.831V105.524C364.682 105.248 363.986 105.07 363.257 105.07C362.238 105.07 360.975 105.459 360.975 106.689ZM368.809 100.733H369.974L370.055 102.287C370.476 101.251 371.285 100.62 372.418 100.62C372.596 100.62 372.774 100.636 372.92 100.652C373.065 100.685 373.178 100.717 373.292 100.766L373.13 101.996C372.887 101.898 372.628 101.882 372.369 101.882C370.816 101.882 370.104 103.226 370.104 104.65V109.084H368.809V100.733ZM378.073 109.327C375.694 109.327 374.157 107.207 374.157 104.925C374.157 102.643 375.678 100.491 378.138 100.491C379.384 100.491 380.452 101.073 381.083 102.157V97.0758H382.378V109.084H381.213L381.148 107.498C380.501 108.679 379.416 109.327 378.073 109.327ZM375.484 104.909C375.484 105.734 375.71 106.608 376.293 107.223C376.795 107.822 377.523 108.145 378.3 108.145C380.08 108.145 381.116 106.608 381.116 104.909C381.116 104.051 380.889 103.242 380.323 102.578C379.772 101.996 379.109 101.672 378.3 101.672C376.52 101.672 375.484 103.226 375.484 104.909ZM384.095 107.32L385.26 106.899C385.664 107.692 386.376 108.194 387.283 108.194C388.108 108.194 389.079 107.773 389.079 106.818C389.079 106.122 388.577 105.669 387.558 105.459L386.927 105.329C385.648 105.07 384.337 104.488 384.337 102.983C384.337 101.332 385.745 100.491 387.283 100.491C388.642 100.491 389.791 101.154 390.277 102.481L389.111 102.869C388.933 102.465 388.691 102.157 388.383 101.931C388.06 101.72 387.687 101.607 387.267 101.607C386.522 101.607 385.632 101.979 385.632 102.853C385.632 103.76 386.587 104.035 387.315 104.164L387.946 104.294C389.241 104.553 390.406 105.216 390.406 106.689C390.406 108.404 388.885 109.327 387.283 109.327C385.907 109.327 384.629 108.647 384.095 107.32ZM395.256 106.737C395.256 104.828 397.004 104.051 398.703 104.051C399.415 104.051 400.321 104.213 400.952 104.52V103.905C400.952 102.627 400.208 101.64 398.849 101.64C397.91 101.64 397.068 102.109 396.696 102.999L395.563 102.611C396.033 101.219 397.473 100.507 398.865 100.507C400.904 100.507 402.199 101.866 402.199 103.938V109.084H401.066L400.985 107.789C400.451 108.825 399.383 109.327 398.25 109.327C396.712 109.327 395.256 108.437 395.256 106.737ZM396.567 106.689C396.567 107.757 397.521 108.242 398.492 108.242C399.852 108.242 400.952 107.239 400.952 105.831V105.524C400.273 105.248 399.577 105.07 398.849 105.07C397.829 105.07 396.567 105.459 396.567 106.689ZM407.993 109.327C405.582 109.327 403.979 107.336 403.979 104.973C403.979 102.643 405.565 100.491 408.058 100.491C409.563 100.491 410.809 101.316 411.391 102.724L410.21 103.128C409.757 102.271 409.012 101.672 408.009 101.672C406.261 101.672 405.306 103.355 405.306 104.957C405.306 106.09 405.808 107.433 406.925 107.903C407.248 108.064 407.604 108.145 407.993 108.145C408.98 108.145 409.886 107.611 410.307 106.705L411.489 107.11C410.922 108.534 409.498 109.327 407.993 109.327ZM413.235 100.733H414.4L414.481 102.287C414.902 101.251 415.711 100.62 416.844 100.62C417.022 100.62 417.2 100.636 417.345 100.652C417.491 100.685 417.604 100.717 417.718 100.766L417.556 101.996C417.313 101.898 417.054 101.882 416.795 101.882C415.241 101.882 414.529 103.226 414.529 104.65V109.084H413.235V100.733ZM422.709 109.327C420.249 109.327 418.582 107.336 418.582 104.909C418.582 102.53 420.233 100.491 422.742 100.491C425.218 100.491 426.868 102.449 426.868 104.909C426.868 107.304 425.234 109.327 422.709 109.327ZM419.91 104.909C419.91 105.734 420.136 106.608 420.719 107.223C421.22 107.822 421.949 108.145 422.725 108.145C424.506 108.145 425.541 106.608 425.541 104.909C425.541 104.051 425.315 103.242 424.748 102.578C424.198 101.996 423.535 101.672 422.725 101.672C420.945 101.672 419.91 103.226 419.91 104.909ZM428.157 107.32L429.322 106.899C429.727 107.692 430.439 108.194 431.345 108.194C432.17 108.194 433.141 107.773 433.141 106.818C433.141 106.122 432.64 105.669 431.62 105.459L430.989 105.329C429.71 105.07 428.4 104.488 428.4 102.983C428.4 101.332 429.808 100.491 431.345 100.491C432.704 100.491 433.853 101.154 434.339 102.481L433.174 102.869C432.996 102.465 432.753 102.157 432.446 101.931C432.122 101.72 431.75 101.607 431.329 101.607C430.584 101.607 429.694 101.979 429.694 102.853C429.694 103.76 430.649 104.035 431.377 104.164L432.009 104.294C433.303 104.553 434.468 105.216 434.468 106.689C434.468 108.404 432.947 109.327 431.345 109.327C429.969 109.327 428.691 108.647 428.157 107.32ZM435.632 107.32L436.797 106.899C437.202 107.692 437.914 108.194 438.82 108.194C439.646 108.194 440.617 107.773 440.617 106.818C440.617 106.122 440.115 105.669 439.096 105.459L438.464 105.329C437.186 105.07 435.875 104.488 435.875 102.983C435.875 101.332 437.283 100.491 438.82 100.491C440.18 100.491 441.329 101.154 441.814 102.481L440.649 102.869C440.471 102.465 440.228 102.157 439.921 101.931C439.597 101.72 439.225 101.607 438.804 101.607C438.06 101.607 437.17 101.979 437.17 102.853C437.17 103.76 438.125 104.035 438.853 104.164L439.484 104.294C440.779 104.553 441.944 105.216 441.944 106.689C441.944 108.404 440.423 109.327 438.82 109.327C437.445 109.327 436.166 108.647 435.632 107.32ZM159.908 125.733H161.073L161.138 127.319C161.769 126.154 162.886 125.491 164.213 125.491C166.608 125.491 168.129 127.594 168.129 129.892C168.129 132.174 166.608 134.327 164.148 134.327C162.902 134.327 161.818 133.744 161.203 132.66V137.385H159.908V125.733ZM161.171 129.909C161.171 130.734 161.397 131.608 161.98 132.223C162.481 132.822 163.21 133.145 163.986 133.145C165.767 133.145 166.802 131.608 166.802 129.909C166.802 129.051 166.576 128.242 166.009 127.578C165.459 126.996 164.796 126.672 163.986 126.672C162.206 126.672 161.171 128.226 161.171 129.909ZM169.571 131.737C169.571 129.828 171.319 129.051 173.018 129.051C173.73 129.051 174.636 129.213 175.268 129.52V128.905C175.268 127.627 174.523 126.64 173.164 126.64C172.225 126.64 171.384 127.109 171.011 127.999L169.878 127.611C170.348 126.219 171.788 125.507 173.18 125.507C175.219 125.507 176.514 126.866 176.514 128.938V134.084H175.381L175.3 132.789C174.766 133.825 173.698 134.327 172.565 134.327C171.027 134.327 169.571 133.437 169.571 131.737ZM170.882 131.689C170.882 132.757 171.837 133.242 172.808 133.242C174.167 133.242 175.268 132.239 175.268 130.831V130.524C174.588 130.248 173.892 130.07 173.164 130.07C172.144 130.07 170.882 130.459 170.882 131.689ZM178.715 125.733H179.881L179.961 127.287C180.382 126.251 181.191 125.62 182.324 125.62C182.502 125.62 182.68 125.636 182.826 125.652C182.972 125.685 183.085 125.717 183.198 125.766L183.036 126.996C182.794 126.898 182.535 126.882 182.276 126.882C180.722 126.882 180.01 128.226 180.01 129.65V134.084H178.715V125.733ZM184.211 125.733H185.748V122.934H187.043V125.733H189.664V126.834H187.043V131.592C187.043 132.433 187.382 133.162 188.321 133.162C188.758 133.162 189.26 133.016 189.632 132.773L190.02 133.776C189.47 134.165 188.871 134.327 188.208 134.327C186.589 134.327 185.748 133.259 185.748 131.656V126.834H184.211V125.733ZM191.691 125.733H192.856L192.921 127.06C193.455 126.041 194.49 125.491 195.623 125.491C197.776 125.491 198.763 127.174 198.763 129.197V134.084H197.468V129.277C197.468 127.902 196.934 126.672 195.38 126.672C193.956 126.672 192.985 127.691 192.985 129.132V134.084H191.691V125.733ZM200.547 129.925C200.547 127.611 202.068 125.507 204.544 125.507C206.859 125.507 208.38 127.335 208.38 129.634V130.168H201.89C202.02 131.786 202.926 133.178 204.722 133.178C205.742 133.178 206.567 132.741 207.117 131.867L208.218 132.369C207.538 133.663 206.195 134.327 204.755 134.327C202.246 134.327 200.547 132.433 200.547 129.925ZM204.544 126.607C203.088 126.607 202.181 127.805 201.955 129.164H207.02C206.891 127.805 206.033 126.607 204.544 126.607ZM210.229 125.733H211.394L211.475 127.287C211.896 126.251 212.705 125.62 213.838 125.62C214.016 125.62 214.194 125.636 214.34 125.652C214.485 125.685 214.599 125.717 214.712 125.766L214.55 126.996C214.307 126.898 214.048 126.882 213.789 126.882C212.236 126.882 211.524 128.226 211.524 129.65V134.084H210.229V125.733ZM215.748 132.32L216.913 131.899C217.317 132.692 218.029 133.194 218.936 133.194C219.761 133.194 220.732 132.773 220.732 131.818C220.732 131.122 220.23 130.669 219.211 130.459L218.58 130.329C217.301 130.07 215.99 129.488 215.99 127.983C215.99 126.332 217.398 125.491 218.936 125.491C220.295 125.491 221.444 126.154 221.93 127.481L220.765 127.869C220.586 127.465 220.344 127.157 220.036 126.931C219.713 126.72 219.34 126.607 218.92 126.607C218.175 126.607 217.285 126.979 217.285 127.853C217.285 128.76 218.24 129.035 218.968 129.164L219.599 129.294C220.894 129.553 222.059 130.216 222.059 131.689C222.059 133.404 220.538 134.327 218.936 134.327C217.56 134.327 216.282 133.647 215.748 132.32ZM223.773 134.084V122.076H225.068V126.947C225.602 125.976 226.622 125.491 227.706 125.491C229.858 125.491 230.845 127.174 230.845 129.197V134.084H229.551V129.277C229.551 127.902 229.017 126.672 227.463 126.672C226.039 126.672 225.068 127.691 225.068 129.132V134.084H223.773ZM234.345 134.084H233.05V125.733H234.345V134.084ZM233.698 124.18C233.228 124.18 232.808 123.759 232.808 123.29C232.808 122.804 233.212 122.399 233.698 122.399C234.199 122.399 234.588 122.772 234.588 123.29C234.588 123.775 234.183 124.18 233.698 124.18ZM236.606 125.733H237.772L237.836 127.319C238.467 126.154 239.584 125.491 240.911 125.491C243.306 125.491 244.828 127.594 244.828 129.892C244.828 132.174 243.306 134.327 240.846 134.327C239.6 134.327 238.516 133.744 237.901 132.66V137.385H236.606V125.733ZM237.869 129.909C237.869 130.734 238.095 131.608 238.678 132.223C239.18 132.822 239.908 133.145 240.685 133.145C242.465 133.145 243.501 131.608 243.501 129.909C243.501 129.051 243.274 128.242 242.708 127.578C242.157 126.996 241.494 126.672 240.685 126.672C238.904 126.672 237.869 128.226 237.869 129.909ZM246.123 132.32L247.289 131.899C247.693 132.692 248.405 133.194 249.312 133.194C250.137 133.194 251.108 132.773 251.108 131.818C251.108 131.122 250.606 130.669 249.587 130.459L248.956 130.329C247.677 130.07 246.366 129.488 246.366 127.983C246.366 126.332 247.774 125.491 249.312 125.491C250.671 125.491 251.82 126.154 252.306 127.481L251.14 127.869C250.962 127.465 250.72 127.157 250.412 126.931C250.088 126.72 249.716 126.607 249.295 126.607C248.551 126.607 247.661 126.979 247.661 127.853C247.661 128.76 248.616 129.035 249.344 129.164L249.975 129.294C251.27 129.553 252.435 130.216 252.435 131.689C252.435 133.404 250.914 134.327 249.312 134.327C247.936 134.327 246.657 133.647 246.123 132.32ZM253.939 133.162C253.939 132.627 254.343 132.191 254.893 132.191C255.25 132.191 255.541 132.369 255.735 132.66C255.816 132.805 255.864 132.984 255.864 133.162C255.864 133.34 255.816 133.501 255.735 133.647C255.541 133.955 255.266 134.133 254.893 134.133C254.376 134.133 253.939 133.679 253.939 133.162Z" fill="#6A6A6A"/>
<defs>
<linearGradient id="paint0_linear_89_41401" x1="0.144531" y1="91.6446" x2="1246.11" y2="92.2263" gradientUnits="userSpaceOnUse">
<stop offset="0.5" stop-color="#FD395C"/>
<stop offset="1" stop-color="white"/>
</linearGradient>
</defs>
</svg>
