<svg width="691" height="183" viewBox="0 0 691 183" fill="none" xmlns="http://www.w3.org/2000/svg">
<rect x="2.39258" y="2.73242" width="685.774" height="177.965" rx="88.9825" stroke="url(#paint0_linear_89_41378)" stroke-width="4"/>
<path fill-rule="evenodd" clip-rule="evenodd" d="M103.381 72.507L118.742 96.594C118.833 96.7343 118.95 96.8555 119.087 96.9504C119.224 97.0453 119.379 97.1121 119.542 97.147C119.705 97.1843 119.873 97.1888 120.038 97.1601C120.202 97.1314 120.359 97.0702 120.499 96.98L128.041 92.17C128.325 91.988 128.524 91.7012 128.597 91.3724C128.669 91.0435 128.609 90.6993 128.428 90.415L113.064 66.33C112.882 66.0467 112.596 65.8469 112.267 65.774C111.938 65.7011 111.594 65.7611 111.309 65.941L103.767 70.752C103.484 70.9338 103.284 71.2206 103.211 71.5497C103.139 71.8787 103.2 72.223 103.381 72.507ZM109.981 72.186C109.73 72.3477 109.425 72.4033 109.133 72.3407C108.841 72.2781 108.586 72.1024 108.423 71.852L108.174 71.465C108.012 71.2141 107.956 70.9091 108.019 70.6171C108.082 70.3251 108.258 70.07 108.509 69.908C108.76 69.7459 109.065 69.6902 109.357 69.753C109.649 69.8158 109.904 69.9921 110.066 70.243L110.316 70.628C110.478 70.879 110.534 71.1842 110.471 71.4764C110.409 71.7685 110.232 72.0238 109.981 72.186ZM117.9 86.752L111.034 75.904C110.89 75.6524 110.848 75.3547 110.917 75.0729C110.987 74.7912 111.162 74.5471 111.407 74.3917C111.652 74.2363 111.948 74.1815 112.232 74.2387C112.517 74.296 112.768 74.4609 112.934 74.699L119.8 85.547C119.939 85.7983 119.977 86.0931 119.906 86.3713C119.835 86.6495 119.66 86.89 119.417 87.0438C119.175 87.1976 118.883 87.253 118.601 87.1988C118.319 87.1446 118.068 86.9847 117.9 86.752ZM114.95 94.827C114.716 95.1901 114.375 95.4725 113.975 95.636C113.833 95.536 113.688 95.445 113.538 95.349C112.478 94.688 110.886 93.555 109.038 92.243C99.7622 85.633 92.4382 80.774 89.5172 83.235C82.1612 89.435 77.6352 90.9 75.9942 90.268C75.7799 90.1871 75.5952 90.0432 75.4643 89.8552C75.3335 89.6673 75.2627 89.444 75.2612 89.215C75.0852 87.893 75.8712 85.78 77.3672 83.559C79.4989 80.5348 82.1314 77.8968 85.1512 75.759C91.2722 72.23 92.8322 72.994 94.9902 74.051C96.4513 74.8581 98.0733 75.3308 99.7392 75.435C100.667 75.4903 101.598 75.4639 102.521 75.356L114.947 94.827H114.95ZM107.736 94.076C109.61 95.411 111.227 96.564 112.336 97.258C114.116 98.384 115.15 99.586 115.413 100.828C115.501 101.436 115.466 102.056 115.31 102.651C115.154 103.246 114.88 103.803 114.505 104.29C113.756 104.889 112.874 105.298 111.933 105.483C110.992 105.667 110.02 105.622 109.1 105.35L94.5802 95.535C94.3328 95.3676 94.029 95.3054 93.7357 95.3621C93.4424 95.4187 93.1836 95.5895 93.0162 95.837C92.8489 96.0844 92.7867 96.3882 92.8433 96.6815C92.9 96.9748 93.0708 97.2336 93.3182 97.401L107.471 106.966C107.451 107.484 107.329 107.993 107.112 108.463C106.894 108.934 106.586 109.356 106.204 109.707C105.681 110.013 105.099 110.207 104.497 110.277C103.894 110.347 103.284 110.291 102.704 110.112L91.4932 102.794C91.3693 102.713 91.2307 102.658 91.0854 102.63C90.94 102.603 90.7907 102.605 90.646 102.635C90.5012 102.666 90.3639 102.725 90.2419 102.808C90.1199 102.892 90.0155 102.999 89.9347 103.122C89.854 103.246 89.7984 103.385 89.7712 103.53C89.744 103.676 89.7457 103.825 89.7762 103.97C89.8067 104.114 89.8654 104.252 89.949 104.374C90.0326 104.496 90.1393 104.6 90.2632 104.681L100.979 111.673C100.857 112.322 100.604 112.94 100.236 113.489C99.868 114.037 99.392 114.505 98.8372 114.864C97.8432 115.357 96.4672 115.224 94.7472 114.464L88.1372 109.764C88.0172 109.67 87.8794 109.602 87.7322 109.563C87.585 109.525 87.4315 109.516 87.2809 109.538C87.1304 109.56 86.9859 109.613 86.8561 109.693C86.7264 109.772 86.6142 109.877 86.5262 110.002C86.4383 110.126 86.3764 110.267 86.3444 110.415C86.3124 110.564 86.3109 110.718 86.3399 110.867C86.369 111.017 86.4281 111.159 86.5135 111.285C86.599 111.411 86.7091 111.518 86.8372 111.6L92.8652 115.894C92.6987 116.516 92.3942 117.092 91.9744 117.58C91.5545 118.068 91.0302 118.455 90.4402 118.712C88.6722 119.322 86.0002 118.441 82.6822 116.166C83.4222 115.172 85.6472 111.909 85.0092 109.456C84.5632 107.742 83.1362 106.486 80.7612 105.715C81.4092 103.357 81.1272 101.336 79.9342 99.939C78.7662 98.573 76.8682 97.981 74.5032 98.224C74.4285 97.2819 74.0899 96.38 73.5262 95.6214C72.9626 94.8629 72.1967 94.2784 71.3162 93.935C70.1819 93.5524 68.972 93.4489 67.7892 93.6333C66.6064 93.8176 65.4854 94.2844 64.5212 94.994C64.1303 94.3461 63.6143 93.7825 63.0032 93.3361C62.3922 92.8897 61.6984 92.5694 60.9622 92.394C60.0684 92.1807 59.1334 92.215 58.2577 92.4934C57.382 92.7718 56.5988 93.2837 55.9922 93.974C55.9152 94.062 55.8322 94.151 55.7512 94.237C55.4489 93.9926 55.1773 93.7126 54.9422 93.403L66.9002 74.653C70.1462 75.826 73.4872 74.998 76.4642 74.258C79.8392 73.421 81.8342 73.019 83.0412 74.525C76.5912 79.508 72.5002 85.579 73.0282 89.513C73.0849 90.1432 73.3171 90.7449 73.6983 91.2499C74.0796 91.7548 74.5947 92.1429 75.1852 92.37C78.2802 93.57 83.8852 90.932 90.9712 84.956C91.0712 84.868 92.1462 84.175 97.3132 87.129C100.7 89.065 104.6 91.845 107.733 94.076H107.736ZM50.6582 95.931L66.0212 71.848C66.2008 71.5637 66.2608 71.2199 66.1881 70.8916C66.1154 70.5633 65.916 70.277 65.6332 70.095L58.0902 65.284C57.8879 65.1534 57.6521 65.084 57.4112 65.084C57.1974 65.0835 56.9869 65.137 56.7992 65.2394C56.6114 65.3418 56.4526 65.4899 56.3372 65.67L40.9732 89.754C40.793 90.0382 40.7327 90.3823 40.8056 90.7108C40.8785 91.0394 41.0787 91.3257 41.3622 91.507L48.9002 96.32C49.1846 96.5003 49.5288 96.5606 49.8576 96.4877C50.1863 96.4148 50.4728 96.2146 50.6542 95.931H50.6582ZM59.0162 72.186C58.7655 72.0236 58.5893 71.7684 58.5265 71.4763C58.4637 71.1842 58.5194 70.8791 58.6812 70.628L58.9312 70.243C59.0963 69.9992 59.3503 69.8297 59.6389 69.771C59.9274 69.7122 60.2275 69.7688 60.4748 69.9286C60.7221 70.0884 60.8969 70.3387 60.9619 70.6259C61.0268 70.9131 60.9767 71.2143 60.8222 71.465L60.5742 71.852C60.4115 72.1024 60.1562 72.2781 59.8642 72.3407C59.5722 72.4033 59.2673 72.3477 59.0162 72.186ZM56.8002 77.825C56.8908 77.7004 56.9548 77.5585 56.9884 77.4082C57.0219 77.2578 57.0243 77.1022 56.9952 76.9509C56.9662 76.7996 56.9065 76.6559 56.8197 76.5286C56.7329 76.4013 56.6209 76.2932 56.4907 76.211C56.3604 76.1287 56.2147 76.0741 56.0625 76.0504C55.9103 76.0267 55.7548 76.0345 55.6057 76.0733C55.4567 76.1121 55.3171 76.1811 55.1958 76.276C55.0744 76.3709 54.9738 76.4897 54.9002 76.625L48.0312 87.469C47.9407 87.5936 47.8766 87.7355 47.8431 87.8858C47.8096 88.0362 47.8072 88.1918 47.8362 88.3431C47.8653 88.4944 47.925 88.6381 48.0118 88.7654C48.0986 88.8926 48.2106 89.0007 48.3408 89.083C48.4711 89.1653 48.6168 89.2199 48.769 89.2436C48.9212 89.2673 49.0767 89.2595 49.2257 89.2207C49.3748 89.1819 49.5143 89.1129 49.6357 89.018C49.757 88.9231 49.8576 88.8043 49.9312 88.669L56.8002 77.825ZM57.6762 95.473C57.3572 95.831 57.0182 96.192 56.6872 96.541C54.9872 98.341 53.3872 100.047 53.5712 102.161C53.5643 102.614 53.6542 103.063 53.835 103.478C54.0157 103.894 54.2831 104.265 54.6192 104.569C55.1366 104.848 55.7043 105.02 56.2891 105.077C56.8739 105.133 57.4642 105.072 58.0252 104.898C61.3032 100.998 62.5142 98.309 62.9582 96.907C62.773 96.3402 62.4461 95.83 62.0087 95.4247C61.5712 95.0194 61.0376 94.7325 60.4582 94.591C59.958 94.4667 59.4331 94.4833 58.9417 94.639C58.4503 94.7946 58.0116 95.0833 57.6742 95.473H57.6762ZM65.1602 97.414C64.6972 98.951 63.3962 102.003 59.7772 106.314C59.7495 107.436 60.1561 108.526 60.9122 109.355C61.8844 110.122 63.1123 110.491 64.3462 110.385L72.3082 99.162C72.3843 98.5136 72.2484 97.858 71.9209 97.2933C71.5933 96.7285 71.0918 96.285 70.4912 96.029C69.5621 95.7399 68.5707 95.7161 67.6288 95.9603C66.6869 96.2045 65.8319 96.7069 65.1602 97.411V97.414ZM74.0822 100.558L66.1222 111.775C66.1724 112.189 66.3043 112.589 66.5102 112.952C66.7162 113.315 66.9922 113.634 67.3222 113.889C68.2002 114.495 69.6102 114.6 71.5152 114.2C71.8682 113.772 72.6272 112.853 73.7022 111.544C74.8436 110.159 76.3879 108.284 78.3352 105.921C79.0522 103.97 79.0172 102.33 78.2262 101.404C77.4652 100.517 76.0052 100.222 74.0852 100.558H74.0822ZM79.7362 107.758L75.4362 112.977L73.3752 115.477C73.5865 116.271 74.0837 116.958 74.7713 117.408C75.459 117.857 76.2884 118.036 77.1002 117.911C77.8442 117.889 79.3702 116.83 80.8512 114.852C82.4242 112.752 83.0342 110.833 82.8262 110.026C82.5712 109.037 81.5312 108.275 79.7362 107.758Z" fill="#FD395C"/>
<path d="M160.913 82.084V62.914H166.718C170.714 62.914 174.035 64.75 174.035 69.232C174.035 73.471 170.552 75.496 166.583 75.496C165.773 75.496 164.963 75.415 164.153 75.307V82.084H160.913ZM164.153 65.776V72.445C164.909 72.553 165.692 72.634 166.448 72.634C168.743 72.634 170.687 71.77 170.687 69.205C170.687 66.748 168.905 65.776 166.664 65.776H164.153ZM175.447 78.061C175.447 74.902 178.363 73.552 181.198 73.552C182.386 73.552 183.547 73.768 184.654 74.227V73.336C184.654 71.554 183.655 70.15 181.738 70.15C180.442 70.15 179.308 70.879 178.822 72.094L175.96 71.446C176.662 68.908 179.281 67.558 181.792 67.558C185.248 67.558 187.732 69.907 187.732 73.471V82.084H184.897L184.789 80.221C183.898 81.787 182.17 82.489 180.442 82.489C177.85 82.489 175.447 80.869 175.447 78.061ZM178.579 77.926C178.579 79.33 179.902 80.005 181.171 80.005C183.061 80.005 184.654 78.682 184.654 76.711V76.387C184.195 76.198 183.709 76.036 183.223 75.901C182.71 75.793 182.197 75.739 181.684 75.739C180.334 75.739 178.579 76.279 178.579 77.926ZM191.072 67.963H193.907L194.042 70.285C194.744 68.719 196.067 67.774 197.795 67.774C198.281 67.774 198.794 67.828 199.253 68.017L198.902 71.041C198.497 70.879 198.065 70.852 197.633 70.852C195.203 70.852 194.177 72.715 194.177 74.929V82.084H191.072V67.963ZM200.747 67.963H203.231V63.184H206.336V67.963H210.44V70.474H206.336V77.413C206.336 78.628 206.822 79.762 208.199 79.762C208.523 79.762 208.874 79.708 209.252 79.6C209.63 79.519 209.981 79.384 210.305 79.195L211.007 81.544C210.602 81.841 210.116 82.057 209.576 82.246C209.009 82.408 208.415 82.489 207.794 82.489C204.824 82.489 203.231 80.653 203.231 77.737V70.474H200.747V67.963ZM213.458 67.963H216.293L216.401 69.907C217.265 68.341 218.966 67.558 220.721 67.558C224.231 67.558 225.959 70.366 225.959 73.687V82.084H222.854V74.038C222.854 72.121 222.098 70.366 219.938 70.366C217.94 70.366 216.563 71.878 216.563 73.876V82.084H213.458V67.963ZM228.684 75.01C228.684 71.068 231.438 67.558 235.623 67.558C239.808 67.558 242.346 70.717 242.346 74.848V75.766H231.897C232.113 77.953 233.49 79.789 235.866 79.789C237.351 79.789 238.485 79.141 239.322 77.818L242.049 78.871C240.969 81.301 238.458 82.489 235.866 82.489C231.627 82.489 228.684 79.276 228.684 75.01ZM235.623 70.069C233.598 70.069 232.356 71.662 231.978 73.552H239.106C238.809 71.689 237.702 70.069 235.623 70.069ZM244.993 67.963H247.828L247.963 70.285C248.665 68.719 249.988 67.774 251.716 67.774C252.202 67.774 252.715 67.828 253.174 68.017L252.823 71.041C252.418 70.879 251.986 70.852 251.554 70.852C249.124 70.852 248.098 72.715 248.098 74.929V82.084H244.993V67.963ZM261.425 62.914H268.418C274.142 62.914 278.57 66.343 278.57 72.472C278.57 78.358 274.331 82.084 268.418 82.084H261.425V62.914ZM264.719 79.141H268.256C272.306 79.141 275.168 76.765 275.168 72.499C275.168 68.341 272.468 65.857 268.256 65.857H264.719V79.141ZM280.865 75.01C280.865 71.068 283.619 67.558 287.804 67.558C291.989 67.558 294.527 70.717 294.527 74.848V75.766H284.078C284.294 77.953 285.671 79.789 288.047 79.789C289.532 79.789 290.666 79.141 291.503 77.818L294.23 78.871C293.15 81.301 290.639 82.489 288.047 82.489C283.808 82.489 280.865 79.276 280.865 75.01ZM287.804 70.069C285.779 70.069 284.537 71.662 284.159 73.552H291.287C290.99 71.689 289.883 70.069 287.804 70.069ZM297.174 67.963H300.009L300.144 70.231C301.197 68.503 302.898 67.558 304.923 67.558C308.946 67.558 311.511 71.095 311.511 74.956C311.511 78.817 308.946 82.489 304.761 82.489C302.952 82.489 301.332 81.706 300.279 80.221V87.43H297.174V67.963ZM304.275 70.366C301.71 70.366 300.225 72.58 300.225 75.01C300.225 77.359 301.71 79.681 304.275 79.681C306.84 79.681 308.325 77.413 308.325 75.01C308.325 72.607 306.894 70.366 304.275 70.366ZM313.744 75.01C313.744 71.068 316.498 67.558 320.683 67.558C324.868 67.558 327.406 70.717 327.406 74.848V75.766H316.957C317.173 77.953 318.55 79.789 320.926 79.789C322.411 79.789 323.545 79.141 324.382 77.818L327.109 78.871C326.029 81.301 323.518 82.489 320.926 82.489C316.687 82.489 313.744 79.276 313.744 75.01ZM320.683 70.069C318.658 70.069 317.416 71.662 317.038 73.552H324.166C323.869 71.689 322.762 70.069 320.683 70.069ZM330.054 67.963H332.889L332.997 69.907C333.861 68.341 335.562 67.558 337.317 67.558C340.827 67.558 342.555 70.366 342.555 73.687V82.084H339.45V74.038C339.45 72.121 338.694 70.366 336.534 70.366C334.536 70.366 333.159 71.878 333.159 73.876V82.084H330.054V67.963ZM351.868 82.489C347.872 82.489 345.28 78.925 345.28 75.091C345.28 71.23 347.872 67.558 352.03 67.558C353.839 67.558 355.459 68.341 356.512 69.826V61.996H359.617V82.084H356.782L356.647 79.816C355.621 81.517 353.866 82.489 351.868 82.489ZM348.466 75.037C348.466 77.386 349.951 79.681 352.516 79.681C355.054 79.681 356.566 77.44 356.566 75.037C356.566 72.634 355.162 70.366 352.516 70.366C349.951 70.366 348.466 72.607 348.466 75.037ZM362.339 75.01C362.339 71.068 365.093 67.558 369.278 67.558C373.463 67.558 376.001 70.717 376.001 74.848V75.766H365.552C365.768 77.953 367.145 79.789 369.521 79.789C371.006 79.789 372.14 79.141 372.977 77.818L375.704 78.871C374.624 81.301 372.113 82.489 369.521 82.489C365.282 82.489 362.339 79.276 362.339 75.01ZM369.278 70.069C367.253 70.069 366.011 71.662 365.633 73.552H372.761C372.464 71.689 371.357 70.069 369.278 70.069ZM378.649 67.963H381.484L381.592 69.907C382.456 68.341 384.157 67.558 385.912 67.558C389.422 67.558 391.15 70.366 391.15 73.687V82.084H388.045V74.038C388.045 72.121 387.289 70.366 385.129 70.366C383.131 70.366 381.754 71.878 381.754 73.876V82.084H378.649V67.963ZM393.874 75.118C393.874 71.122 396.682 67.558 400.921 67.558C403.675 67.558 406.159 69.07 406.942 71.824L403.999 72.526C403.432 71.23 402.325 70.366 400.867 70.366C398.383 70.366 397.06 72.85 397.06 75.091C397.06 77.359 398.329 79.681 400.867 79.681C402.325 79.681 403.567 78.898 404.161 77.548L407.077 78.223C406.321 80.923 403.567 82.489 400.867 82.489C396.763 82.489 393.874 79.195 393.874 75.118ZM408.904 75.01C408.904 71.068 411.658 67.558 415.843 67.558C420.028 67.558 422.566 70.717 422.566 74.848V75.766H412.117C412.333 77.953 413.71 79.789 416.086 79.789C417.571 79.789 418.705 79.141 419.542 77.818L422.269 78.871C421.189 81.301 418.678 82.489 416.086 82.489C411.847 82.489 408.904 79.276 408.904 75.01ZM415.843 70.069C413.818 70.069 412.576 71.662 412.198 73.552H419.326C419.029 71.689 417.922 70.069 415.843 70.069Z" fill="black"/>
<path d="M160.286 122.084V110.594H163.458C165.74 110.594 167.665 111.662 167.665 114.219C167.665 116.727 165.594 117.812 163.28 117.812C162.729 117.812 162.179 117.763 161.645 117.682V122.084H160.286ZM161.645 111.807V116.468C162.163 116.565 162.713 116.598 163.247 116.598C164.817 116.598 166.274 115.983 166.274 114.203C166.274 112.552 164.995 111.807 163.442 111.807H161.645ZM168.823 117.925C168.823 115.611 170.344 113.507 172.82 113.507C175.135 113.507 176.656 115.335 176.656 117.634V118.168H170.166C170.296 119.786 171.202 121.178 172.998 121.178C174.018 121.178 174.843 120.741 175.393 119.867L176.494 120.369C175.814 121.663 174.471 122.327 173.031 122.327C170.522 122.327 168.823 120.433 168.823 117.925ZM172.82 114.607C171.364 114.607 170.458 115.805 170.231 117.164H175.296C175.167 115.805 174.309 114.607 172.82 114.607ZM178.505 113.733H179.67L179.751 115.287C180.172 114.251 180.981 113.62 182.114 113.62C182.292 113.62 182.47 113.636 182.616 113.652C182.761 113.685 182.875 113.717 182.988 113.766L182.826 114.996C182.583 114.898 182.324 114.882 182.065 114.882C180.512 114.882 179.8 116.226 179.8 117.65V122.084H178.505V113.733ZM183.984 113.733H185.522V112.956C185.522 111.273 186.444 109.914 188.273 109.914C188.856 109.914 189.374 110.06 189.843 110.335L189.471 111.338C189.115 111.16 188.742 111.047 188.354 111.047C187.173 111.047 186.817 111.953 186.817 112.989V113.733H189.454V114.834H186.817V122.084H185.522V114.834H183.984V113.733ZM194.444 122.327C191.984 122.327 190.317 120.336 190.317 117.909C190.317 115.53 191.967 113.491 194.476 113.491C196.952 113.491 198.603 115.449 198.603 117.909C198.603 120.304 196.968 122.327 194.444 122.327ZM191.644 117.909C191.644 118.734 191.87 119.608 192.453 120.223C192.955 120.822 193.683 121.145 194.46 121.145C196.24 121.145 197.276 119.608 197.276 117.909C197.276 117.051 197.049 116.242 196.483 115.578C195.932 114.996 195.269 114.672 194.46 114.672C192.68 114.672 191.644 116.226 191.644 117.909ZM200.441 113.733H201.607L201.687 115.287C202.108 114.251 202.917 113.62 204.05 113.62C204.228 113.62 204.406 113.636 204.552 113.652C204.698 113.685 204.811 113.717 204.924 113.766L204.762 114.996C204.52 114.898 204.261 114.882 204.002 114.882C202.448 114.882 201.736 116.226 201.736 117.65V122.084H200.441V113.733ZM206.51 113.733H207.675L207.74 115.012C208.258 114.008 209.213 113.491 210.33 113.491C211.592 113.491 212.547 114.17 213 115.335C213.469 114.154 214.602 113.491 215.864 113.491C217.984 113.491 218.907 115.141 218.907 117.132V122.084H217.612V117.213C217.612 115.902 217.175 114.672 215.654 114.672C214.311 114.672 213.356 115.724 213.356 117.067V122.084H212.061V117.213C212.061 115.886 211.576 114.672 210.071 114.672C208.711 114.672 207.805 115.724 207.805 117.067V122.084H206.51V113.733ZM220.709 119.737C220.709 117.828 222.457 117.051 224.156 117.051C224.868 117.051 225.774 117.213 226.405 117.52V116.905C226.405 115.627 225.661 114.64 224.301 114.64C223.363 114.64 222.521 115.109 222.149 115.999L221.016 115.611C221.486 114.219 222.926 113.507 224.318 113.507C226.357 113.507 227.651 114.866 227.651 116.938V122.084H226.519L226.438 120.789C225.904 121.825 224.836 122.327 223.703 122.327C222.165 122.327 220.709 121.437 220.709 119.737ZM222.02 119.689C222.02 120.757 222.974 121.242 223.945 121.242C225.305 121.242 226.405 120.239 226.405 118.831V118.524C225.726 118.248 225.03 118.07 224.301 118.07C223.282 118.07 222.02 118.459 222.02 119.689ZM229.853 113.733H231.018L231.083 115.06C231.617 114.041 232.653 113.491 233.786 113.491C235.938 113.491 236.925 115.174 236.925 117.197V122.084H235.631V117.277C235.631 115.902 235.097 114.672 233.543 114.672C232.119 114.672 231.148 115.691 231.148 117.132V122.084H229.853V113.733ZM242.723 122.327C240.312 122.327 238.709 120.336 238.709 117.973C238.709 115.643 240.295 113.491 242.788 113.491C244.293 113.491 245.539 114.316 246.121 115.724L244.94 116.128C244.487 115.271 243.742 114.672 242.739 114.672C240.991 114.672 240.036 116.355 240.036 117.957C240.036 119.09 240.538 120.433 241.655 120.903C241.978 121.064 242.335 121.145 242.723 121.145C243.71 121.145 244.616 120.611 245.037 119.705L246.219 120.11C245.652 121.534 244.228 122.327 242.723 122.327ZM247.512 117.925C247.512 115.611 249.034 113.507 251.51 113.507C253.824 113.507 255.345 115.335 255.345 117.634V118.168H248.856C248.985 119.786 249.891 121.178 251.688 121.178C252.707 121.178 253.533 120.741 254.083 119.867L255.183 120.369C254.504 121.663 253.16 122.327 251.72 122.327C249.212 122.327 247.512 120.433 247.512 117.925ZM251.51 114.607C250.053 114.607 249.147 115.805 248.92 117.164H253.986C253.856 115.805 252.999 114.607 251.51 114.607ZM260.735 113.733H261.9L261.981 115.287C262.402 114.251 263.211 113.62 264.344 113.62C264.522 113.62 264.7 113.636 264.845 113.652C264.991 113.685 265.104 113.717 265.217 113.766L265.056 114.996C264.813 114.898 264.554 114.882 264.295 114.882C262.741 114.882 262.029 116.226 262.029 117.65V122.084H260.735V113.733ZM266.082 117.925C266.082 115.611 267.604 113.507 270.08 113.507C272.394 113.507 273.915 115.335 273.915 117.634V118.168H267.426C267.555 119.786 268.461 121.178 270.258 121.178C271.277 121.178 272.103 120.741 272.653 119.867L273.753 120.369C273.074 121.663 271.73 122.327 270.29 122.327C267.782 122.327 266.082 120.433 266.082 117.925ZM270.08 114.607C268.623 114.607 267.717 115.805 267.49 117.164H272.556C272.426 115.805 271.569 114.607 270.08 114.607ZM275.764 122.084V110.076H277.059V122.084H275.764ZM280.615 122.084H279.32V113.733H280.615V122.084ZM279.968 112.18C279.498 112.18 279.078 111.759 279.078 111.29C279.078 110.804 279.482 110.399 279.968 110.399C280.469 110.399 280.858 110.772 280.858 111.29C280.858 111.775 280.453 112.18 279.968 112.18ZM282.472 119.737C282.472 117.828 284.22 117.051 285.919 117.051C286.631 117.051 287.537 117.213 288.168 117.52V116.905C288.168 115.627 287.424 114.64 286.065 114.64C285.126 114.64 284.284 115.109 283.912 115.999L282.779 115.611C283.249 114.219 284.689 113.507 286.081 113.507C288.12 113.507 289.415 114.866 289.415 116.938V122.084H288.282L288.201 120.789C287.667 121.825 286.599 122.327 285.466 122.327C283.928 122.327 282.472 121.437 282.472 119.737ZM283.783 119.689C283.783 120.757 284.737 121.242 285.708 121.242C287.068 121.242 288.168 120.239 288.168 118.831V118.524C287.489 118.248 286.793 118.07 286.065 118.07C285.045 118.07 283.783 118.459 283.783 119.689ZM291.616 113.733H292.781L292.846 115.06C293.38 114.041 294.416 113.491 295.549 113.491C297.701 113.491 298.688 115.174 298.688 117.197V122.084H297.394V117.277C297.394 115.902 296.86 114.672 295.306 114.672C293.882 114.672 292.911 115.691 292.911 117.132V122.084H291.616V113.733ZM299.782 113.733H301.32V110.934H302.614V113.733H305.236V114.834H302.614V119.592C302.614 120.433 302.954 121.162 303.893 121.162C304.33 121.162 304.832 121.016 305.204 120.773L305.592 121.776C305.042 122.165 304.443 122.327 303.78 122.327C302.161 122.327 301.32 121.259 301.32 119.656V114.834H299.782V113.733ZM314.509 122.327C312.049 122.327 310.382 120.336 310.382 117.909C310.382 115.53 312.032 113.491 314.541 113.491C317.017 113.491 318.668 115.449 318.668 117.909C318.668 120.304 317.033 122.327 314.509 122.327ZM311.709 117.909C311.709 118.734 311.935 119.608 312.518 120.223C313.02 120.822 313.748 121.145 314.525 121.145C316.305 121.145 317.341 119.608 317.341 117.909C317.341 117.051 317.114 116.242 316.548 115.578C315.997 114.996 315.334 114.672 314.525 114.672C312.745 114.672 311.709 116.226 311.709 117.909ZM320.506 113.733H321.672L321.736 115.06C322.27 114.041 323.306 113.491 324.439 113.491C326.591 113.491 327.579 115.174 327.579 117.197V122.084H326.284V117.277C326.284 115.902 325.75 114.672 324.196 114.672C322.772 114.672 321.801 115.691 321.801 117.132V122.084H320.506V113.733ZM333.324 113.733H334.489L334.554 115.319C335.185 114.154 336.301 113.491 337.628 113.491C340.024 113.491 341.545 115.594 341.545 117.892C341.545 120.174 340.024 122.327 337.564 122.327C336.318 122.327 335.233 121.744 334.618 120.66V125.385H333.324V113.733ZM334.586 117.909C334.586 118.734 334.812 119.608 335.395 120.223C335.897 120.822 336.625 121.145 337.402 121.145C339.182 121.145 340.218 119.608 340.218 117.909C340.218 117.051 339.991 116.242 339.425 115.578C338.875 114.996 338.211 114.672 337.402 114.672C335.622 114.672 334.586 116.226 334.586 117.909ZM342.986 119.737C342.986 117.828 344.734 117.051 346.433 117.051C347.145 117.051 348.052 117.213 348.683 117.52V116.905C348.683 115.627 347.938 114.64 346.579 114.64C345.64 114.64 344.799 115.109 344.427 115.999L343.294 115.611C343.763 114.219 345.203 113.507 346.595 113.507C348.634 113.507 349.929 114.866 349.929 116.938V122.084H348.796L348.715 120.789C348.181 121.825 347.113 122.327 345.98 122.327C344.443 122.327 342.986 121.437 342.986 119.737ZM344.297 119.689C344.297 120.757 345.252 121.242 346.223 121.242C347.582 121.242 348.683 120.239 348.683 118.831V118.524C348.003 118.248 347.307 118.07 346.579 118.07C345.559 118.07 344.297 118.459 344.297 119.689ZM352.131 113.733H353.296L353.377 115.287C353.798 114.251 354.607 113.62 355.74 113.62C355.918 113.62 356.096 113.636 356.241 113.652C356.387 113.685 356.5 113.717 356.613 113.766L356.452 114.996C356.209 114.898 355.95 114.882 355.691 114.882C354.137 114.882 353.425 116.226 353.425 117.65V122.084H352.131V113.733ZM357.626 113.733H359.163V110.934H360.458V113.733H363.08V114.834H360.458V119.592C360.458 120.433 360.798 121.162 361.736 121.162C362.173 121.162 362.675 121.016 363.047 120.773L363.436 121.776C362.885 122.165 362.287 122.327 361.623 122.327C360.005 122.327 359.163 121.259 359.163 119.656V114.834H357.626V113.733ZM365.106 113.733H366.271L366.336 115.06C366.87 114.041 367.906 113.491 369.039 113.491C371.191 113.491 372.178 115.174 372.178 117.197V122.084H370.883V117.277C370.883 115.902 370.349 114.672 368.796 114.672C367.372 114.672 366.401 115.691 366.401 117.132V122.084H365.106V113.733ZM373.962 117.925C373.962 115.611 375.483 113.507 377.96 113.507C380.274 113.507 381.795 115.335 381.795 117.634V118.168H375.305C375.435 119.786 376.341 121.178 378.138 121.178C379.157 121.178 379.983 120.741 380.533 119.867L381.633 120.369C380.954 121.663 379.61 122.327 378.17 122.327C375.662 122.327 373.962 120.433 373.962 117.925ZM377.96 114.607C376.503 114.607 375.597 115.805 375.37 117.164H380.436C380.306 115.805 379.448 114.607 377.96 114.607ZM383.644 113.733H384.81L384.89 115.287C385.311 114.251 386.12 113.62 387.253 113.62C387.431 113.62 387.609 113.636 387.755 113.652C387.901 113.685 388.014 113.717 388.127 113.766L387.965 114.996C387.723 114.898 387.464 114.882 387.205 114.882C385.651 114.882 384.939 116.226 384.939 117.65V122.084H383.644V113.733ZM392.849 119.737C392.849 117.828 394.597 117.051 396.296 117.051C397.008 117.051 397.914 117.213 398.545 117.52V116.905C398.545 115.627 397.801 114.64 396.441 114.64C395.503 114.64 394.661 115.109 394.289 115.999L393.156 115.611C393.626 114.219 395.066 113.507 396.458 113.507C398.497 113.507 399.791 114.866 399.791 116.938V122.084H398.659L398.578 120.789C398.044 121.825 396.976 122.327 395.843 122.327C394.305 122.327 392.849 121.437 392.849 119.737ZM394.16 119.689C394.16 120.757 395.114 121.242 396.085 121.242C397.445 121.242 398.545 120.239 398.545 118.831V118.524C397.866 118.248 397.17 118.07 396.441 118.07C395.422 118.07 394.16 118.459 394.16 119.689ZM401.572 117.763C401.572 115.53 403.126 113.491 405.505 113.491C406.735 113.491 407.868 114.089 408.466 115.19L408.531 113.733H409.696V121.372C409.696 123.783 408.224 125.628 405.651 125.628C404.129 125.628 402.835 124.997 402.025 123.654L403.11 123.104C403.709 123.994 404.566 124.512 405.651 124.512C407.479 124.512 408.402 123.184 408.402 121.42V120.352C407.771 121.42 406.686 122.003 405.44 122.003C403.126 122.003 401.572 120.012 401.572 117.763ZM402.899 117.747C402.899 119.365 403.919 120.822 405.667 120.822C407.382 120.822 408.434 119.414 408.434 117.747C408.434 116.112 407.447 114.672 405.667 114.672C403.951 114.672 402.899 116.08 402.899 117.747ZM411.545 117.925C411.545 115.611 413.066 113.507 415.542 113.507C417.856 113.507 419.378 115.335 419.378 117.634V118.168H412.888C413.017 119.786 413.924 121.178 415.72 121.178C416.74 121.178 417.565 120.741 418.115 119.867L419.216 120.369C418.536 121.663 417.193 122.327 415.753 122.327C413.244 122.327 411.545 120.433 411.545 117.925ZM415.542 114.607C414.086 114.607 413.179 115.805 412.953 117.164H418.018C417.889 115.805 417.031 114.607 415.542 114.607ZM421.227 113.733H422.392L422.457 115.06C422.991 114.041 424.027 113.491 425.159 113.491C427.312 113.491 428.299 115.174 428.299 117.197V122.084H427.004V117.277C427.004 115.902 426.47 114.672 424.917 114.672C423.493 114.672 422.522 115.691 422.522 117.132V122.084H421.227V113.733ZM434.097 122.327C431.685 122.327 430.083 120.336 430.083 117.973C430.083 115.643 431.669 113.491 434.161 113.491C435.666 113.491 436.913 114.316 437.495 115.724L436.314 116.128C435.861 115.271 435.116 114.672 434.113 114.672C432.365 114.672 431.41 116.355 431.41 117.957C431.41 119.09 431.912 120.433 433.029 120.903C433.352 121.064 433.708 121.145 434.097 121.145C435.084 121.145 435.99 120.611 436.411 119.705L437.592 120.11C437.026 121.534 435.602 122.327 434.097 122.327ZM440.633 122.084H439.339V113.733H440.633V122.084ZM439.986 112.18C439.517 112.18 439.096 111.759 439.096 111.29C439.096 110.804 439.5 110.399 439.986 110.399C440.488 110.399 440.876 110.772 440.876 111.29C440.876 111.775 440.471 112.18 439.986 112.18ZM442.474 117.925C442.474 115.611 443.995 113.507 446.471 113.507C448.785 113.507 450.307 115.335 450.307 117.634V118.168H443.817C443.946 119.786 444.853 121.178 446.649 121.178C447.669 121.178 448.494 120.741 449.044 119.867L450.145 120.369C449.465 121.663 448.122 122.327 446.681 122.327C444.173 122.327 442.474 120.433 442.474 117.925ZM446.471 114.607C445.015 114.607 444.108 115.805 443.882 117.164H448.947C448.818 115.805 447.96 114.607 446.471 114.607ZM451.637 120.32L452.802 119.899C453.207 120.692 453.919 121.194 454.825 121.194C455.651 121.194 456.622 120.773 456.622 119.818C456.622 119.122 456.12 118.669 455.1 118.459L454.469 118.329C453.191 118.07 451.88 117.488 451.88 115.983C451.88 114.332 453.288 113.491 454.825 113.491C456.185 113.491 457.334 114.154 457.819 115.481L456.654 115.869C456.476 115.465 456.233 115.157 455.926 114.931C455.602 114.72 455.23 114.607 454.809 114.607C454.065 114.607 453.175 114.979 453.175 115.853C453.175 116.76 454.129 117.035 454.858 117.164L455.489 117.294C456.784 117.553 457.949 118.216 457.949 119.689C457.949 121.404 456.427 122.327 454.825 122.327C453.45 122.327 452.171 121.647 451.637 120.32ZM459.452 121.162C459.452 120.627 459.857 120.191 460.407 120.191C460.763 120.191 461.055 120.369 461.249 120.66C461.33 120.805 461.378 120.984 461.378 121.162C461.378 121.34 461.33 121.501 461.249 121.647C461.055 121.955 460.779 122.133 460.407 122.133C459.889 122.133 459.452 121.679 459.452 121.162Z" fill="#6A6A6A"/>
<defs>
<linearGradient id="paint0_linear_89_41378" x1="0.392578" y1="91.7149" x2="638.691" y2="91.8675" gradientUnits="userSpaceOnUse">
<stop offset="0.565" stop-color="#FD395C"/>
<stop offset="0.93" stop-color="white"/>
</linearGradient>
</defs>
</svg>
