<svg width="690" height="183" viewBox="0 0 690 183" fill="none" xmlns="http://www.w3.org/2000/svg">
<rect x="2.14453" y="2.69727" width="685.774" height="177.965" rx="88.9825" stroke="url(#paint0_linear_89_41385)" stroke-width="4"/>
<path fill-rule="evenodd" clip-rule="evenodd" d="M111.796 55.99C109.774 53.9673 106.301 55.4074 106.301 58.2661C106.301 61.1249 109.774 62.5648 111.796 60.5423C113.053 59.2852 113.053 57.247 111.796 55.99ZM92.0515 75.5227C90.0289 73.5001 86.5566 74.9401 86.5566 77.7989C86.5566 80.6576 90.029 82.0975 92.0515 80.075C93.3086 78.818 93.3086 76.7798 92.0515 75.5227ZM73.1527 64.5164C71.1301 62.4938 67.6577 63.9338 67.6577 66.7925C67.6577 69.6513 71.1301 71.0912 73.1527 69.0687C74.4098 67.8115 74.4098 65.7735 73.1527 64.5164ZM52.3631 84.6022C50.3404 82.5796 46.8682 84.0196 46.8682 86.8784C46.8682 89.7369 50.3406 91.1771 52.3631 89.1545C53.6201 87.8974 53.6201 85.8593 52.3631 84.6022ZM119.839 67.1579C119.601 66.9718 119.558 66.6275 119.744 66.3892C119.931 66.1509 120.275 66.1085 120.513 66.2948L122.051 67.4969C122.289 67.683 122.332 68.0273 122.145 68.2656C121.959 68.5039 121.615 68.5463 121.377 68.3601L119.839 67.1579ZM116.778 64.6975C116.541 64.5101 116.501 64.166 116.688 63.9288C116.875 63.6916 117.219 63.6512 117.457 63.8386L118.799 64.9023C119.036 65.0897 119.077 65.4339 118.889 65.671C118.702 65.9082 118.358 65.9486 118.12 65.7612L116.778 64.6975ZM113.828 62.3777C113.591 62.1903 113.55 61.8461 113.738 61.609C113.925 61.3718 114.269 61.3314 114.506 61.5188L115.872 62.6012C116.109 62.7886 116.15 63.1327 115.962 63.3699C115.775 63.6071 115.431 63.6475 115.194 63.4601L113.828 62.3777ZM107.49 125.145C106.864 124.52 105.914 125.47 106.54 126.095C107.165 126.721 108.115 125.771 107.49 125.145ZM107.015 123.849C108.587 123.849 109.38 125.759 108.267 126.872C107.154 127.985 105.244 127.193 105.244 125.62C105.244 124.642 106.037 123.849 107.015 123.849ZM107.455 116.849C106.764 116.528 105.881 117.058 106.025 117.906L106.75 122.187H107.279L108.004 117.906C108.082 117.451 107.843 117.029 107.455 116.849ZM107.039 115.663C108.327 115.663 109.302 116.816 109.087 118.086L108.347 122.452C108.265 122.936 107.85 123.286 107.363 123.286C106.836 123.286 106.39 123.361 106.022 123.05C105.847 122.902 105.723 122.694 105.682 122.453L104.943 118.086C104.729 116.825 105.672 115.663 107.039 115.663ZM46.8682 118.7V124.469C46.8682 125.741 47.9732 126.925 49.7593 127.812C53.8689 129.854 60.6065 129.854 64.7161 127.812C66.5024 126.925 67.6072 125.741 67.6072 124.469V118.7C63.5272 123.2 50.9475 123.2 46.8682 118.7ZM46.8682 110.341C50.9482 114.841 63.5283 114.841 67.6074 110.341V116.11C67.6074 117.382 66.5025 118.566 64.7163 119.453C60.6066 121.495 53.8689 121.495 49.7593 119.453C47.973 118.566 46.8682 117.382 46.8682 116.11V110.341ZM75.2973 91.2752C72.3659 91.2752 69.7227 91.8601 67.8188 92.8057C63.9674 94.7187 63.9672 97.5793 67.8188 99.4923C71.9283 101.533 78.6663 101.533 82.7758 99.4923C86.6268 97.5795 86.6281 94.7192 82.7758 92.8057C80.872 91.8601 78.2286 91.2752 75.2973 91.2752ZM64.1959 104.167C64.1722 104.158 64.1491 104.148 64.127 104.137C62.2839 103.352 59.8776 102.877 57.2377 102.877C54.3064 102.877 51.663 103.462 49.7591 104.408C45.9069 106.321 45.9083 109.182 49.7591 111.094C53.8688 113.136 60.6065 113.136 64.7161 111.094C68.9185 109.007 68.3563 105.97 64.1959 104.167ZM85.6669 112.867C85.6669 114.139 84.5621 115.323 82.7758 116.21C78.9908 118.09 72.8986 118.261 68.7069 116.603V109.418C70.7281 110.145 73.0519 110.482 75.2974 110.482C78.9868 110.482 83.4893 109.5 85.6669 107.098V112.867ZM68.6719 124.949C72.8664 126.622 78.9817 126.454 82.7757 124.57C84.5619 123.682 85.6668 122.498 85.6668 121.226V115.457C83.489 117.859 78.9866 118.841 75.2973 118.841C73.0517 118.841 70.728 118.504 68.7068 117.777V124.469C68.7068 124.631 68.695 124.791 68.6719 124.949ZM85.3453 105.688C84.8952 106.503 83.9941 107.246 82.7758 107.851C78.9908 109.731 72.8986 109.902 68.7069 108.244V107.751C68.7069 105.898 67.1698 104.335 64.9279 103.293V98.7387C69.0077 103.239 81.5881 103.239 85.6671 98.7387V104.508C85.6669 104.996 85.5474 105.26 85.3453 105.688ZM104.65 109.822V105.07C102.471 107.472 97.9696 108.453 94.2801 108.453C91.7017 108.453 88.9902 108.01 86.7665 107.019V113.316C90.2037 115.041 95.2367 115.24 98.9734 114.325C100.376 113.981 101.598 113.489 102.554 112.89L104.65 109.822ZM96.2817 124.015L106.806 108.61C106.907 108.462 107.122 108.462 107.223 108.61L121.118 128.949C121.234 129.119 121.117 129.343 120.91 129.343H93.1198C92.9128 129.343 92.7951 129.119 92.9113 128.949L96.2635 124.042C96.2697 124.033 96.2759 124.024 96.2817 124.015ZM86.7376 121.661C86.7566 121.518 86.7665 121.373 86.7665 121.226V114.528C90.9409 116.388 97.0501 116.42 101.289 114.741L95.5174 123.189C92.595 123.362 89.2316 122.922 86.7376 121.661ZM99.848 98.3862C100.544 98.5995 101.185 98.8516 101.759 99.1365C105.61 101.05 105.61 103.91 101.759 105.823C97.7558 107.811 90.982 107.921 86.7665 105.805V99.1535C88.9223 98.0725 91.7105 97.606 94.2801 97.606C96.2231 97.606 98.0395 97.8631 99.5978 98.3118C99.6718 98.3553 99.7569 98.3818 99.848 98.3862ZM100.425 81.0999C100.442 82.3892 101.513 83.5512 103.316 84.4467C107.426 86.4879 114.163 86.4879 118.273 84.4467C122.125 82.5337 122.125 79.6731 118.273 77.7601C114.163 75.7189 107.426 75.7189 103.316 77.7601C101.531 78.6464 100.427 79.8297 100.425 81.0999ZM121.164 89.4588C121.148 90.7468 120.076 91.9099 118.273 92.8057C114.163 94.8469 107.426 94.8469 103.316 92.8057C101.531 91.9193 100.427 90.7359 100.425 89.4657V83.6931C104.504 88.1932 117.085 88.1931 121.164 83.6929V89.4588ZM121.164 97.8179V92.052C117.084 96.5525 104.504 96.5519 100.425 92.0522V97.4183C102.85 98.2075 105.426 99.7543 105.722 102.058C109.701 103.135 114.868 102.856 118.273 101.165C120.076 100.269 121.148 99.1059 121.164 97.8179ZM121.164 106.177V100.411C118.986 102.814 114.484 103.795 110.794 103.795C109.093 103.795 107.354 103.601 105.749 103.199V108.212C106.06 107.758 106.355 107.402 107.015 107.402C107.467 107.402 107.874 107.617 108.129 107.991L110.218 111.049C113.278 111.121 116.184 110.561 118.273 109.524C120.076 108.628 121.148 107.465 121.164 106.177ZM115.553 118.858C117.235 118.439 118.649 117.808 119.647 117.038C120.607 116.297 121.164 115.438 121.164 114.54V108.77C119.016 111.14 114.602 112.125 110.973 112.153L115.553 118.858ZM68.1771 70.163L53.5487 84.2962L52.7867 83.5077L67.4151 69.3745L68.1771 70.163ZM85.797 76.1164L74.3022 69.4221L74.8551 68.4747L86.3499 75.169L85.797 76.1164ZM106.86 61.6683L93.2062 75.176L92.4351 74.3966L106.089 60.8889L106.86 61.6683Z" fill="#FD395C"/>
<path d="M160.665 49.914H163.851L170.223 61.659L176.622 49.914H179.673V69.084H176.406V55.854L171.384 65.088H168.954L163.932 55.854V69.084H160.665V49.914ZM182.556 65.061C182.556 61.902 185.472 60.552 188.307 60.552C189.495 60.552 190.656 60.768 191.763 61.227V60.336C191.763 58.554 190.764 57.15 188.847 57.15C187.551 57.15 186.417 57.879 185.931 59.094L183.069 58.446C183.771 55.908 186.39 54.558 188.901 54.558C192.357 54.558 194.841 56.907 194.841 60.471V69.084H192.006L191.898 67.221C191.007 68.787 189.279 69.489 187.551 69.489C184.959 69.489 182.556 67.869 182.556 65.061ZM185.688 64.926C185.688 66.33 187.011 67.005 188.28 67.005C190.17 67.005 191.763 65.682 191.763 63.711V63.387C191.304 63.198 190.818 63.036 190.332 62.901C189.819 62.793 189.306 62.739 188.793 62.739C187.443 62.739 185.688 63.279 185.688 64.926ZM198.181 54.963H201.016L201.151 57.285C201.853 55.719 203.176 54.774 204.904 54.774C205.39 54.774 205.903 54.828 206.362 55.017L206.011 58.041C205.606 57.879 205.174 57.852 204.742 57.852C202.312 57.852 201.286 59.715 201.286 61.929V69.084H198.181V54.963ZM208.649 48.996H211.754V60.795L217.532 54.963H221.312L214.967 61.227L221.96 69.084H217.883L211.754 61.956V69.084H208.649V48.996ZM222.503 62.01C222.503 58.068 225.257 54.558 229.442 54.558C233.627 54.558 236.165 57.717 236.165 61.848V62.766H225.716C225.932 64.953 227.309 66.789 229.685 66.789C231.17 66.789 232.304 66.141 233.141 64.818L235.868 65.871C234.788 68.301 232.277 69.489 229.685 69.489C225.446 69.489 222.503 66.276 222.503 62.01ZM229.442 57.069C227.417 57.069 226.175 58.662 225.797 60.552H232.925C232.628 58.689 231.521 57.069 229.442 57.069ZM237.492 54.963H239.976V50.184H243.081V54.963H247.185V57.474H243.081V64.413C243.081 65.628 243.567 66.762 244.944 66.762C245.268 66.762 245.619 66.708 245.997 66.6C246.375 66.519 246.726 66.384 247.05 66.195L247.752 68.544C247.347 68.841 246.861 69.057 246.321 69.246C245.754 69.408 245.16 69.489 244.539 69.489C241.569 69.489 239.976 67.653 239.976 64.737V57.474H237.492V54.963ZM254.79 49.914H258.381L263.97 65.358L269.532 49.914H272.988L265.644 69.084H262.134L254.79 49.914ZM272.733 62.01C272.733 57.825 275.676 54.558 280.023 54.558C284.235 54.558 287.205 57.771 287.205 62.01C287.205 66.195 284.262 69.489 279.915 69.489C275.73 69.489 272.733 66.222 272.733 62.01ZM279.969 57.366C277.404 57.366 275.919 59.58 275.919 62.01C275.919 64.359 277.404 66.681 279.969 66.681C282.534 66.681 284.019 64.413 284.019 62.01C284.019 59.607 282.588 57.366 279.969 57.366ZM289.939 69.084V48.996H293.044V69.084H289.939ZM295.724 65.061C295.724 61.902 298.64 60.552 301.475 60.552C302.663 60.552 303.824 60.768 304.931 61.227V60.336C304.931 58.554 303.932 57.15 302.015 57.15C300.719 57.15 299.585 57.879 299.099 59.094L296.237 58.446C296.939 55.908 299.558 54.558 302.069 54.558C305.525 54.558 308.009 56.907 308.009 60.471V69.084H305.174L305.066 67.221C304.175 68.787 302.447 69.489 300.719 69.489C298.127 69.489 295.724 67.869 295.724 65.061ZM298.856 64.926C298.856 66.33 300.179 67.005 301.448 67.005C303.338 67.005 304.931 65.682 304.931 63.711V63.387C304.472 63.198 303.986 63.036 303.5 62.901C302.987 62.793 302.474 62.739 301.961 62.739C300.611 62.739 298.856 63.279 298.856 64.926ZM309.686 54.963H312.17V50.184H315.275V54.963H319.379V57.474H315.275V64.413C315.275 65.628 315.761 66.762 317.138 66.762C317.462 66.762 317.813 66.708 318.191 66.6C318.569 66.519 318.92 66.384 319.244 66.195L319.946 68.544C319.541 68.841 319.055 69.057 318.515 69.246C317.948 69.408 317.354 69.489 316.733 69.489C313.763 69.489 312.17 67.653 312.17 64.737V57.474H309.686V54.963ZM325.502 69.084H322.397V54.963H325.502V69.084ZM322.316 51.966C322.127 51.669 322.046 51.372 322.046 51.021C322.046 50.67 322.127 50.373 322.316 50.076C322.478 49.779 322.694 49.563 322.991 49.374C323.288 49.212 323.585 49.131 323.936 49.131C324.287 49.131 324.584 49.212 324.881 49.374C325.178 49.563 325.394 49.779 325.583 50.076C325.745 50.373 325.826 50.67 325.826 51.021C325.826 51.372 325.745 51.669 325.583 51.966C325.394 52.263 325.178 52.479 324.881 52.641C324.584 52.83 324.287 52.911 323.936 52.911C323.585 52.911 323.288 52.83 322.991 52.641C322.694 52.479 322.478 52.263 322.316 51.966ZM328.857 69.084V48.996H331.962V69.084H328.857ZM338.422 69.084H335.317V54.963H338.422V69.084ZM335.236 51.966C335.047 51.669 334.966 51.372 334.966 51.021C334.966 50.67 335.047 50.373 335.236 50.076C335.398 49.779 335.614 49.563 335.911 49.374C336.208 49.212 336.505 49.131 336.856 49.131C337.207 49.131 337.504 49.212 337.801 49.374C338.098 49.563 338.314 49.779 338.503 50.076C338.665 50.373 338.746 50.67 338.746 51.021C338.746 51.372 338.665 51.669 338.503 51.966C338.314 52.263 338.098 52.479 337.801 52.641C337.504 52.83 337.207 52.911 336.856 52.911C336.505 52.911 336.208 52.83 335.911 52.641C335.614 52.479 335.398 52.263 335.236 51.966ZM340.562 54.963H343.046V50.184H346.151V54.963H350.255V57.474H346.151V64.413C346.151 65.628 346.637 66.762 348.014 66.762C348.338 66.762 348.689 66.708 349.067 66.6C349.445 66.519 349.796 66.384 350.12 66.195L350.822 68.544C350.417 68.841 349.931 69.057 349.391 69.246C348.824 69.408 348.23 69.489 347.609 69.489C344.639 69.489 343.046 67.653 343.046 64.737V57.474H340.562V54.963ZM351.977 54.963H355.379L359.186 65.52L362.642 54.963H365.936L359.942 70.785C359.078 73.026 357.728 74.7 355.163 74.7C354.326 74.7 353.543 74.538 352.787 74.133L353.462 71.676C353.651 71.757 353.894 71.838 354.137 71.919C354.38 71.973 354.623 72 354.866 72C356.162 72 356.837 71.19 357.296 70.056L357.728 68.949L351.977 54.963Z" fill="black"/>
<path d="M160.038 97.5937H161.316L165.524 105.297L169.748 97.5937H170.978V109.084H169.651V100.118L166.042 106.689H164.974L161.365 100.118V109.084H160.038V97.5937ZM174.668 109.084H173.373V100.733H174.668V109.084ZM174.021 99.1796C173.551 99.1796 173.131 98.7589 173.131 98.2895C173.131 97.804 173.535 97.3995 174.021 97.3995C174.523 97.3995 174.911 97.7717 174.911 98.2895C174.911 98.7751 174.506 99.1796 174.021 99.1796ZM176.056 100.733H177.593V97.9335H178.888V100.733H181.509V101.834H178.888V106.592C178.888 107.433 179.227 108.162 180.166 108.162C180.603 108.162 181.105 108.016 181.477 107.773L181.865 108.776C181.315 109.165 180.716 109.327 180.053 109.327C178.434 109.327 177.593 108.259 177.593 106.656V101.834H176.056V100.733ZM184.83 109.084H183.536V100.733H184.83V109.084ZM184.183 99.1796C183.714 99.1796 183.293 98.7589 183.293 98.2895C183.293 97.804 183.697 97.3995 184.183 97.3995C184.685 97.3995 185.073 97.7717 185.073 98.2895C185.073 98.7751 184.668 99.1796 184.183 99.1796ZM186.671 104.763C186.671 102.53 188.224 100.491 190.603 100.491C191.833 100.491 192.966 101.089 193.565 102.19L193.63 100.733H194.795V108.372C194.795 110.783 193.322 112.628 190.749 112.628C189.228 112.628 187.933 111.997 187.124 110.654L188.208 110.104C188.807 110.994 189.665 111.512 190.749 111.512C192.578 111.512 193.5 110.184 193.5 108.42V107.352C192.869 108.42 191.785 109.003 190.539 109.003C188.224 109.003 186.671 107.012 186.671 104.763ZM187.998 104.747C187.998 106.365 189.017 107.822 190.765 107.822C192.481 107.822 193.533 106.414 193.533 104.747C193.533 103.112 192.545 101.672 190.765 101.672C189.05 101.672 187.998 103.08 187.998 104.747ZM196.659 106.737C196.659 104.828 198.407 104.051 200.107 104.051C200.819 104.051 201.725 104.213 202.356 104.52V103.905C202.356 102.627 201.612 101.64 200.252 101.64C199.314 101.64 198.472 102.109 198.1 102.999L196.967 102.611C197.436 101.219 198.877 100.507 200.268 100.507C202.308 100.507 203.602 101.866 203.602 103.938V109.084H202.469L202.388 107.789C201.854 108.825 200.786 109.327 199.653 109.327C198.116 109.327 196.659 108.437 196.659 106.737ZM197.97 106.689C197.97 107.757 198.925 108.242 199.896 108.242C201.256 108.242 202.356 107.239 202.356 105.831V105.524C201.676 105.248 200.98 105.07 200.252 105.07C199.233 105.07 197.97 105.459 197.97 106.689ZM204.677 100.733H206.214V97.9335H207.509V100.733H210.131V101.834H207.509V106.592C207.509 107.433 207.849 108.162 208.788 108.162C209.225 108.162 209.726 108.016 210.099 107.773L210.487 108.776C209.937 109.165 209.338 109.327 208.674 109.327C207.056 109.327 206.214 108.259 206.214 106.656V101.834H204.677V100.733ZM211.578 104.925C211.578 102.611 213.1 100.507 215.576 100.507C217.89 100.507 219.411 102.335 219.411 104.634V105.168H212.922C213.051 106.786 213.957 108.178 215.754 108.178C216.773 108.178 217.599 107.741 218.149 106.867L219.249 107.369C218.57 108.663 217.226 109.327 215.786 109.327C213.278 109.327 211.578 107.433 211.578 104.925ZM215.576 101.607C214.119 101.607 213.213 102.805 212.986 104.164H218.052C217.922 102.805 217.065 101.607 215.576 101.607ZM223.927 100.733H225.464V97.9335H226.759V100.733H229.38V101.834H226.759V106.592C226.759 107.433 227.099 108.162 228.037 108.162C228.474 108.162 228.976 108.016 229.348 107.773L229.737 108.776C229.186 109.165 228.587 109.327 227.924 109.327C226.306 109.327 225.464 108.259 225.464 106.656V101.834H223.927V100.733ZM231.407 109.084V97.0758H232.701V101.947C233.235 100.976 234.255 100.491 235.339 100.491C237.492 100.491 238.479 102.174 238.479 104.197V109.084H237.184V104.277C237.184 102.902 236.65 101.672 235.097 101.672C233.672 101.672 232.701 102.691 232.701 104.132V109.084H231.407ZM240.263 104.925C240.263 102.611 241.784 100.507 244.26 100.507C246.575 100.507 248.096 102.335 248.096 104.634V105.168H241.606C241.736 106.786 242.642 108.178 244.438 108.178C245.458 108.178 246.283 107.741 246.834 106.867L247.934 107.369C247.254 108.663 245.911 109.327 244.471 109.327C241.962 109.327 240.263 107.433 240.263 104.925ZM244.26 101.607C242.804 101.607 241.898 102.805 241.671 104.164H246.736C246.607 102.805 245.749 101.607 244.26 101.607ZM253.064 104.925C253.064 102.611 254.586 100.507 257.062 100.507C259.376 100.507 260.897 102.335 260.897 104.634V105.168H254.408C254.537 106.786 255.443 108.178 257.24 108.178C258.259 108.178 259.085 107.741 259.635 106.867L260.735 107.369C260.056 108.663 258.713 109.327 257.272 109.327C254.764 109.327 253.064 107.433 253.064 104.925ZM257.062 101.607C255.605 101.607 254.699 102.805 254.472 104.164H259.538C259.408 102.805 258.551 101.607 257.062 101.607ZM261.983 100.733H263.521V99.9565C263.521 98.2734 264.443 96.9139 266.272 96.9139C266.855 96.9139 267.372 97.0596 267.842 97.3347L267.469 98.3381C267.113 98.1601 266.741 98.0468 266.353 98.0468C265.171 98.0468 264.815 98.9531 264.815 99.9888V100.733H268.894V99.9565C268.894 98.2895 269.832 96.9139 271.645 96.9139C272.227 96.9139 272.745 97.0596 273.215 97.3347L272.842 98.3381C272.486 98.1601 272.114 98.0468 271.726 98.0468C270.544 98.0468 270.188 98.9531 270.188 99.9888V100.733H272.826V101.834H270.188V109.084H268.894V101.834H264.815V109.084H263.521V101.834H261.983V100.733ZM273.689 104.925C273.689 102.611 275.21 100.507 277.686 100.507C280.001 100.507 281.522 102.335 281.522 104.634V105.168H275.032C275.162 106.786 276.068 108.178 277.864 108.178C278.884 108.178 279.709 107.741 280.26 106.867L281.36 107.369C280.68 108.663 279.337 109.327 277.897 109.327C275.388 109.327 273.689 107.433 273.689 104.925ZM277.686 101.607C276.23 101.607 275.324 102.805 275.097 104.164H280.162C280.033 102.805 279.175 101.607 277.686 101.607ZM287.043 109.327C284.632 109.327 283.029 107.336 283.029 104.973C283.029 102.643 284.615 100.491 287.108 100.491C288.613 100.491 289.859 101.316 290.441 102.724L289.26 103.128C288.807 102.271 288.062 101.672 287.059 101.672C285.311 101.672 284.356 103.355 284.356 104.957C284.356 106.09 284.858 107.433 285.975 107.903C286.298 108.064 286.654 108.145 287.043 108.145C288.03 108.145 288.936 107.611 289.357 106.705L290.539 107.11C289.972 108.534 288.548 109.327 287.043 109.327ZM291.379 100.733H292.917V97.9335H294.211V100.733H296.833V101.834H294.211V106.592C294.211 107.433 294.551 108.162 295.49 108.162C295.927 108.162 296.428 108.016 296.801 107.773L297.189 108.776C296.639 109.165 296.04 109.327 295.377 109.327C293.758 109.327 292.917 108.259 292.917 106.656V101.834H291.379V100.733ZM298.309 107.32L299.474 106.899C299.879 107.692 300.591 108.194 301.497 108.194C302.323 108.194 303.294 107.773 303.294 106.818C303.294 106.122 302.792 105.669 301.772 105.459L301.141 105.329C299.863 105.07 298.552 104.488 298.552 102.983C298.552 101.332 299.96 100.491 301.497 100.491C302.857 100.491 304.006 101.154 304.491 102.481L303.326 102.869C303.148 102.465 302.905 102.157 302.598 101.931C302.274 101.72 301.902 101.607 301.481 101.607C300.737 101.607 299.846 101.979 299.846 102.853C299.846 103.76 300.801 104.035 301.53 104.164L302.161 104.294C303.455 104.553 304.621 105.216 304.621 106.689C304.621 108.404 303.099 109.327 301.497 109.327C300.122 109.327 298.843 108.647 298.309 107.32ZM313.581 109.327C311.121 109.327 309.454 107.336 309.454 104.909C309.454 102.53 311.105 100.491 313.613 100.491C316.089 100.491 317.74 102.449 317.74 104.909C317.74 107.304 316.106 109.327 313.581 109.327ZM310.781 104.909C310.781 105.734 311.008 106.608 311.59 107.223C312.092 107.822 312.82 108.145 313.597 108.145C315.377 108.145 316.413 106.608 316.413 104.909C316.413 104.051 316.186 103.242 315.62 102.578C315.07 101.996 314.406 101.672 313.597 101.672C311.817 101.672 310.781 103.226 310.781 104.909ZM318.515 100.733H320.053V99.9565C320.053 98.2734 320.975 96.9139 322.804 96.9139C323.386 96.9139 323.904 97.0596 324.374 97.3347L324.001 98.3381C323.645 98.1601 323.273 98.0468 322.885 98.0468C321.703 98.0468 321.347 98.9531 321.347 99.9888V100.733H323.985V101.834H321.347V109.084H320.053V101.834H318.515V100.733ZM329.045 100.733H330.211L330.275 102.012C330.793 101.008 331.748 100.491 332.865 100.491C334.127 100.491 335.082 101.17 335.535 102.335C336.004 101.154 337.137 100.491 338.4 100.491C340.52 100.491 341.442 102.141 341.442 104.132V109.084H340.147V104.213C340.147 102.902 339.71 101.672 338.189 101.672C336.846 101.672 335.891 102.724 335.891 104.067V109.084H334.596V104.213C334.596 102.886 334.111 101.672 332.606 101.672C331.246 101.672 330.34 102.724 330.34 104.067V109.084H329.045V100.733ZM343.244 106.737C343.244 104.828 344.992 104.051 346.691 104.051C347.403 104.051 348.309 104.213 348.941 104.52V103.905C348.941 102.627 348.196 101.64 346.837 101.64C345.898 101.64 345.057 102.109 344.684 102.999L343.551 102.611C344.021 101.219 345.461 100.507 346.853 100.507C348.892 100.507 350.187 101.866 350.187 103.938V109.084H349.054L348.973 107.789C348.439 108.825 347.371 109.327 346.238 109.327C344.7 109.327 343.244 108.437 343.244 106.737ZM344.555 106.689C344.555 107.757 345.51 108.242 346.481 108.242C347.84 108.242 348.941 107.239 348.941 105.831V105.524C348.261 105.248 347.565 105.07 346.837 105.07C345.817 105.07 344.555 105.459 344.555 106.689ZM352.388 100.733H353.554L353.634 102.287C354.055 101.251 354.864 100.62 355.997 100.62C356.175 100.62 356.353 100.636 356.499 100.652C356.645 100.685 356.758 100.717 356.871 100.766L356.709 101.996C356.467 101.898 356.208 101.882 355.949 101.882C354.395 101.882 353.683 103.226 353.683 104.65V109.084H352.388V100.733ZM358.457 97.0758H359.752V104.229L363.701 100.733H365.368L361.095 104.472L365.756 109.084H363.976L359.752 104.812V109.084H358.457V97.0758ZM366.318 104.925C366.318 102.611 367.839 100.507 370.315 100.507C372.629 100.507 374.151 102.335 374.151 104.634V105.168H367.661C367.791 106.786 368.697 108.178 370.493 108.178C371.513 108.178 372.338 107.741 372.888 106.867L373.989 107.369C373.309 108.663 371.966 109.327 370.526 109.327C368.017 109.327 366.318 107.433 366.318 104.925ZM370.315 101.607C368.859 101.607 367.952 102.805 367.726 104.164H372.791C372.662 102.805 371.804 101.607 370.315 101.607ZM375.094 100.733H376.632V97.9335H377.926V100.733H380.548V101.834H377.926V106.592C377.926 107.433 378.266 108.162 379.205 108.162C379.642 108.162 380.144 108.016 380.516 107.773L380.904 108.776C380.354 109.165 379.755 109.327 379.092 109.327C377.473 109.327 376.632 108.259 376.632 106.656V101.834H375.094V100.733ZM385.241 100.733H386.778V99.9565C386.778 98.2734 387.701 96.9139 389.529 96.9139C390.112 96.9139 390.63 97.0596 391.099 97.3347L390.727 98.3381C390.371 98.1601 389.999 98.0468 389.61 98.0468C388.429 98.0468 388.073 98.9531 388.073 99.9888V100.733H390.711V101.834H388.073V109.084H386.778V101.834H385.241V100.733ZM392.231 109.084V97.0758H393.526V109.084H392.231ZM395.722 100.733H397.017V105.475C397.017 106.851 397.664 108.145 399.218 108.145C400.771 108.145 401.419 106.915 401.419 105.475V100.733H402.713V105.459C402.713 107.595 401.5 109.327 399.185 109.327C396.903 109.327 395.722 107.676 395.722 105.459V100.733ZM408.514 109.327C406.103 109.327 404.501 107.336 404.501 104.973C404.501 102.643 406.087 100.491 408.579 100.491C410.084 100.491 411.33 101.316 411.913 102.724L410.732 103.128C410.278 102.271 409.534 101.672 408.531 101.672C406.783 101.672 405.828 103.355 405.828 104.957C405.828 106.09 406.33 107.433 407.446 107.903C407.77 108.064 408.126 108.145 408.514 108.145C409.502 108.145 410.408 107.611 410.829 106.705L412.01 107.11C411.444 108.534 410.019 109.327 408.514 109.327ZM412.851 100.733H414.388V97.9335H415.683V100.733H418.305V101.834H415.683V106.592C415.683 107.433 416.023 108.162 416.961 108.162C417.398 108.162 417.9 108.016 418.272 107.773L418.661 108.776C418.11 109.165 417.512 109.327 416.848 109.327C415.23 109.327 414.388 108.259 414.388 106.656V101.834H412.851V100.733ZM420.266 100.733H421.561V105.475C421.561 106.851 422.208 108.145 423.762 108.145C425.315 108.145 425.963 106.915 425.963 105.475V100.733H427.257V105.459C427.257 107.595 426.044 109.327 423.729 109.327C421.447 109.327 420.266 107.676 420.266 105.459V100.733ZM429.061 106.737C429.061 104.828 430.809 104.051 432.508 104.051C433.22 104.051 434.127 104.213 434.758 104.52V103.905C434.758 102.627 434.013 101.64 432.654 101.64C431.715 101.64 430.874 102.109 430.501 102.999L429.369 102.611C429.838 101.219 431.278 100.507 432.67 100.507C434.709 100.507 436.004 101.866 436.004 103.938V109.084H434.871L434.79 107.789C434.256 108.825 433.188 109.327 432.055 109.327C430.518 109.327 429.061 108.437 429.061 106.737ZM430.372 106.689C430.372 107.757 431.327 108.242 432.298 108.242C433.657 108.242 434.758 107.239 434.758 105.831V105.524C434.078 105.248 433.382 105.07 432.654 105.07C431.634 105.07 430.372 105.459 430.372 106.689ZM437.079 100.733H438.616V97.9335H439.911V100.733H442.533V101.834H439.911V106.592C439.911 107.433 440.251 108.162 441.189 108.162C441.626 108.162 442.128 108.016 442.5 107.773L442.889 108.776C442.338 109.165 441.74 109.327 441.076 109.327C439.458 109.327 438.616 108.259 438.616 106.656V101.834H437.079V100.733ZM445.853 109.084H444.559V100.733H445.853V109.084ZM445.206 99.1796C444.737 99.1796 444.316 98.7589 444.316 98.2895C444.316 97.804 444.721 97.3995 445.206 97.3995C445.708 97.3995 446.096 97.7717 446.096 98.2895C446.096 98.7751 445.692 99.1796 445.206 99.1796ZM451.821 109.327C449.361 109.327 447.694 107.336 447.694 104.909C447.694 102.53 449.345 100.491 451.853 100.491C454.329 100.491 455.98 102.449 455.98 104.909C455.98 107.304 454.345 109.327 451.821 109.327ZM449.021 104.909C449.021 105.734 449.248 106.608 449.83 107.223C450.332 107.822 451.06 108.145 451.837 108.145C453.617 108.145 454.653 106.608 454.653 104.909C454.653 104.051 454.426 103.242 453.86 102.578C453.31 101.996 452.646 101.672 451.837 101.672C450.057 101.672 449.021 103.226 449.021 104.909ZM457.819 100.733H458.984L459.048 102.06C459.583 101.041 460.618 100.491 461.751 100.491C463.904 100.491 464.891 102.174 464.891 104.197V109.084H463.596V104.277C463.596 102.902 463.062 101.672 461.508 101.672C460.084 101.672 459.113 102.691 459.113 104.132V109.084H457.819V100.733ZM466.545 107.32L467.711 106.899C468.115 107.692 468.827 108.194 469.734 108.194C470.559 108.194 471.53 107.773 471.53 106.818C471.53 106.122 471.028 105.669 470.009 105.459L469.378 105.329C468.099 105.07 466.788 104.488 466.788 102.983C466.788 101.332 468.196 100.491 469.734 100.491C471.093 100.491 472.242 101.154 472.727 102.481L471.562 102.869C471.384 102.465 471.142 102.157 470.834 101.931C470.51 101.72 470.138 101.607 469.717 101.607C468.973 101.607 468.083 101.979 468.083 102.853C468.083 103.76 469.038 104.035 469.766 104.164L470.397 104.294C471.692 104.553 472.857 105.216 472.857 106.689C472.857 108.404 471.336 109.327 469.734 109.327C468.358 109.327 467.079 108.647 466.545 107.32ZM479.406 109.084H478.111V100.733H479.406V109.084ZM478.759 99.1796C478.289 99.1796 477.868 98.7589 477.868 98.2895C477.868 97.804 478.273 97.3995 478.759 97.3995C479.26 97.3995 479.649 97.7717 479.649 98.2895C479.649 98.7751 479.244 99.1796 478.759 99.1796ZM481.667 100.733H482.832L482.897 102.06C483.431 101.041 484.467 100.491 485.6 100.491C487.752 100.491 488.739 102.174 488.739 104.197V109.084H487.445V104.277C487.445 102.902 486.911 101.672 485.357 101.672C483.933 101.672 482.962 102.691 482.962 104.132V109.084H481.667V100.733ZM159.908 122.076H161.203V127.206C161.85 126.089 162.935 125.491 164.213 125.491C166.608 125.491 168.129 127.594 168.129 129.892C168.129 132.174 166.608 134.327 164.148 134.327C162.87 134.327 161.769 133.679 161.138 132.563L161.073 134.084H159.908V122.076ZM163.986 126.672C162.206 126.672 161.171 128.226 161.171 129.909C161.171 130.734 161.397 131.608 161.98 132.223C162.481 132.822 163.21 133.145 163.986 133.145C165.767 133.145 166.802 131.608 166.802 129.909C166.802 129.051 166.576 128.242 166.009 127.578C165.459 126.996 164.796 126.672 163.986 126.672ZM173.761 134.327C171.301 134.327 169.634 132.336 169.634 129.909C169.634 127.53 171.285 125.491 173.793 125.491C176.269 125.491 177.92 127.449 177.92 129.909C177.92 132.304 176.285 134.327 173.761 134.327ZM170.961 129.909C170.961 130.734 171.187 131.608 171.77 132.223C172.272 132.822 173 133.145 173.777 133.145C175.557 133.145 176.593 131.608 176.593 129.909C176.593 129.051 176.366 128.242 175.8 127.578C175.249 126.996 174.586 126.672 173.777 126.672C171.997 126.672 170.961 128.226 170.961 129.909ZM178.695 125.733H180.232V122.934H181.527V125.733H184.149V126.834H181.527V131.592C181.527 132.433 181.867 133.162 182.805 133.162C183.242 133.162 183.744 133.016 184.116 132.773L184.505 133.776C183.954 134.165 183.356 134.327 182.692 134.327C181.074 134.327 180.232 133.259 180.232 131.656V126.834H178.695V125.733ZM186.175 134.084V122.076H187.47V126.947C188.004 125.976 189.023 125.491 190.108 125.491C192.26 125.491 193.247 127.174 193.247 129.197V134.084H191.952V129.277C191.952 127.902 191.418 126.672 189.865 126.672C188.441 126.672 187.47 127.691 187.47 129.132V134.084H186.175ZM202.585 134.327C200.174 134.327 198.571 132.336 198.571 129.973C198.571 127.643 200.157 125.491 202.65 125.491C204.155 125.491 205.401 126.316 205.983 127.724L204.802 128.128C204.349 127.271 203.604 126.672 202.601 126.672C200.853 126.672 199.898 128.355 199.898 129.957C199.898 131.09 200.4 132.433 201.517 132.903C201.84 133.064 202.197 133.145 202.585 133.145C203.572 133.145 204.478 132.611 204.899 131.705L206.081 132.11C205.514 133.534 204.09 134.327 202.585 134.327ZM207.827 125.733H208.992L209.073 127.287C209.494 126.251 210.303 125.62 211.436 125.62C211.614 125.62 211.792 125.636 211.937 125.652C212.083 125.685 212.196 125.717 212.31 125.766L212.148 126.996C211.905 126.898 211.646 126.882 211.387 126.882C209.834 126.882 209.121 128.226 209.121 129.65V134.084H207.827V125.733ZM213.244 125.733H214.668L217.338 132.595L219.749 125.733H221.125L217.403 135.395C216.95 136.609 216.189 137.547 214.797 137.547C214.312 137.547 213.988 137.466 213.567 137.24L213.94 136.204C214.182 136.333 214.457 136.398 214.733 136.398C215.558 136.398 215.995 135.799 216.27 135.087L216.707 134.003L213.244 125.733ZM222.556 125.733H223.722L223.786 127.319C224.417 126.154 225.534 125.491 226.861 125.491C229.256 125.491 230.778 127.594 230.778 129.892C230.778 132.174 229.256 134.327 226.796 134.327C225.55 134.327 224.466 133.744 223.851 132.66V137.385H222.556V125.733ZM223.819 129.909C223.819 130.734 224.045 131.608 224.628 132.223C225.13 132.822 225.858 133.145 226.635 133.145C228.415 133.145 229.451 131.608 229.451 129.909C229.451 129.051 229.224 128.242 228.658 127.578C228.107 126.996 227.444 126.672 226.635 126.672C224.854 126.672 223.819 128.226 223.819 129.909ZM231.56 125.733H233.098V122.934H234.392V125.733H237.014V126.834H234.392V131.592C234.392 132.433 234.732 133.162 235.671 133.162C236.108 133.162 236.609 133.016 236.982 132.773L237.37 133.776C236.82 134.165 236.221 134.327 235.557 134.327C233.939 134.327 233.098 133.259 233.098 131.656V126.834H231.56V125.733ZM242.588 134.327C240.128 134.327 238.461 132.336 238.461 129.909C238.461 127.53 240.112 125.491 242.621 125.491C245.097 125.491 246.747 127.449 246.747 129.909C246.747 132.304 245.113 134.327 242.588 134.327ZM239.788 129.909C239.788 130.734 240.015 131.608 240.598 132.223C241.099 132.822 241.828 133.145 242.604 133.145C244.385 133.145 245.42 131.608 245.42 129.909C245.42 129.051 245.194 128.242 244.627 127.578C244.077 126.996 243.414 126.672 242.604 126.672C240.824 126.672 239.788 128.226 239.788 129.909ZM251.722 131.737C251.722 129.828 253.469 129.051 255.169 129.051C255.881 129.051 256.787 129.213 257.418 129.52V128.905C257.418 127.627 256.674 126.64 255.314 126.64C254.376 126.64 253.534 127.109 253.162 127.999L252.029 127.611C252.498 126.219 253.939 125.507 255.33 125.507C257.37 125.507 258.664 126.866 258.664 128.938V134.084H257.531L257.45 132.789C256.916 133.825 255.848 134.327 254.715 134.327C253.178 134.327 251.722 133.437 251.722 131.737ZM253.032 131.689C253.032 132.757 253.987 133.242 254.958 133.242C256.318 133.242 257.418 132.239 257.418 130.831V130.524C256.738 130.248 256.043 130.07 255.314 130.07C254.295 130.07 253.032 130.459 253.032 131.689ZM260.866 125.733H262.031L262.096 127.06C262.63 126.041 263.666 125.491 264.798 125.491C266.951 125.491 267.938 127.174 267.938 129.197V134.084H266.643V129.277C266.643 127.902 266.109 126.672 264.556 126.672C263.132 126.672 262.161 127.691 262.161 129.132V134.084H260.866V125.733ZM273.639 134.327C271.26 134.327 269.722 132.207 269.722 129.925C269.722 127.643 271.243 125.491 273.703 125.491C274.949 125.491 276.018 126.073 276.649 127.157V122.076H277.943V134.084H276.778L276.713 132.498C276.066 133.679 274.982 134.327 273.639 134.327ZM271.049 129.909C271.049 130.734 271.276 131.608 271.858 132.223C272.36 132.822 273.088 133.145 273.865 133.145C275.645 133.145 276.681 131.608 276.681 129.909C276.681 129.051 276.455 128.242 275.888 127.578C275.338 126.996 274.674 126.672 273.865 126.672C272.085 126.672 271.049 128.226 271.049 129.909ZM282.877 125.733H284.414V122.934H285.709V125.733H288.33V126.834H285.709V131.592C285.709 132.433 286.048 133.162 286.987 133.162C287.424 133.162 287.926 133.016 288.298 132.773L288.686 133.776C288.136 134.165 287.537 134.327 286.874 134.327C285.255 134.327 284.414 133.259 284.414 131.656V126.834H282.877V125.733ZM290.357 125.733H291.522L291.603 127.287C292.023 126.251 292.833 125.62 293.966 125.62C294.144 125.62 294.322 125.636 294.467 125.652C294.613 125.685 294.726 125.717 294.839 125.766L294.678 126.996C294.435 126.898 294.176 126.882 293.917 126.882C292.363 126.882 291.651 128.226 291.651 129.65V134.084H290.357V125.733ZM295.8 131.737C295.8 129.828 297.547 129.051 299.247 129.051C299.959 129.051 300.865 129.213 301.496 129.52V128.905C301.496 127.627 300.752 126.64 299.392 126.64C298.454 126.64 297.612 127.109 297.24 127.999L296.107 127.611C296.576 126.219 298.017 125.507 299.409 125.507C301.448 125.507 302.742 126.866 302.742 128.938V134.084H301.609L301.529 132.789C300.995 133.825 299.926 134.327 298.794 134.327C297.256 134.327 295.8 133.437 295.8 131.737ZM297.11 131.689C297.11 132.757 298.065 133.242 299.036 133.242C300.396 133.242 301.496 132.239 301.496 130.831V130.524C300.816 130.248 300.121 130.07 299.392 130.07C298.373 130.07 297.11 130.459 297.11 131.689ZM303.85 125.733H305.274L307.814 132.692L310.355 125.733H311.731L308.462 134.084H307.119L303.85 125.733ZM312.552 129.925C312.552 127.611 314.073 125.507 316.549 125.507C318.863 125.507 320.385 127.335 320.385 129.634V130.168H313.895C314.024 131.786 314.931 133.178 316.727 133.178C317.747 133.178 318.572 132.741 319.122 131.867L320.223 132.369C319.543 133.663 318.2 134.327 316.759 134.327C314.251 134.327 312.552 132.433 312.552 129.925ZM316.549 126.607C315.093 126.607 314.186 127.805 313.96 129.164H319.025C318.896 127.805 318.038 126.607 316.549 126.607ZM322.234 134.084V122.076H323.528V134.084H322.234ZM330.625 134.084H329.33V125.733H330.625V134.084ZM329.977 124.18C329.508 124.18 329.087 123.759 329.087 123.29C329.087 122.804 329.492 122.399 329.977 122.399C330.479 122.399 330.867 122.772 330.867 123.29C330.867 123.775 330.463 124.18 329.977 124.18ZM332.886 125.733H334.051L334.116 127.06C334.65 126.041 335.686 125.491 336.818 125.491C338.971 125.491 339.958 127.174 339.958 129.197V134.084H338.663V129.277C338.663 127.902 338.129 126.672 336.576 126.672C335.152 126.672 334.181 127.691 334.181 129.132V134.084H332.886V125.733ZM345.659 134.327C343.28 134.327 341.742 132.207 341.742 129.925C341.742 127.643 343.263 125.491 345.723 125.491C346.969 125.491 348.038 126.073 348.669 127.157V122.076H349.963V134.084H348.798L348.733 132.498C348.086 133.679 347.002 134.327 345.659 134.327ZM343.069 129.909C343.069 130.734 343.296 131.608 343.878 132.223C344.38 132.822 345.108 133.145 345.885 133.145C347.665 133.145 348.701 131.608 348.701 129.909C348.701 129.051 348.475 128.242 347.908 127.578C347.358 126.996 346.694 126.672 345.885 126.672C344.105 126.672 343.069 128.226 343.069 129.909ZM352.166 125.733H353.46V130.475C353.46 131.851 354.108 133.145 355.661 133.145C357.215 133.145 357.862 131.915 357.862 130.475V125.733H359.157V130.459C359.157 132.595 357.943 134.327 355.629 134.327C353.347 134.327 352.166 132.676 352.166 130.459V125.733ZM360.815 132.32L361.98 131.899C362.385 132.692 363.097 133.194 364.003 133.194C364.828 133.194 365.799 132.773 365.799 131.818C365.799 131.122 365.298 130.669 364.278 130.459L363.647 130.329C362.369 130.07 361.058 129.488 361.058 127.983C361.058 126.332 362.466 125.491 364.003 125.491C365.362 125.491 366.512 126.154 366.997 127.481L365.832 127.869C365.654 127.465 365.411 127.157 365.104 126.931C364.78 126.72 364.408 126.607 363.987 126.607C363.242 126.607 362.352 126.979 362.352 127.853C362.352 128.76 363.307 129.035 364.035 129.164L364.667 129.294C365.961 129.553 367.126 130.216 367.126 131.689C367.126 133.404 365.605 134.327 364.003 134.327C362.627 134.327 361.349 133.647 360.815 132.32ZM367.935 125.733H369.472V122.934H370.767V125.733H373.389V126.834H370.767V131.592C370.767 132.433 371.107 133.162 372.046 133.162C372.483 133.162 372.984 133.016 373.357 132.773L373.745 133.776C373.195 134.165 372.596 134.327 371.932 134.327C370.314 134.327 369.472 133.259 369.472 131.656V126.834H367.935V125.733ZM375.415 125.733H376.58L376.661 127.287C377.082 126.251 377.891 125.62 379.024 125.62C379.202 125.62 379.38 125.636 379.526 125.652C379.671 125.685 379.785 125.717 379.898 125.766L379.736 126.996C379.493 126.898 379.234 126.882 378.976 126.882C377.422 126.882 376.71 128.226 376.71 129.65V134.084H375.415V125.733ZM382.779 134.084H381.484V125.733H382.779V134.084ZM382.131 124.18C381.662 124.18 381.241 123.759 381.241 123.29C381.241 122.804 381.646 122.399 382.131 122.399C382.633 122.399 383.021 122.772 383.021 123.29C383.021 123.775 382.617 124.18 382.131 124.18ZM384.619 129.925C384.619 127.611 386.14 125.507 388.616 125.507C390.931 125.507 392.452 127.335 392.452 129.634V130.168H385.962C386.092 131.786 386.998 133.178 388.794 133.178C389.814 133.178 390.639 132.741 391.19 131.867L392.29 132.369C391.61 133.663 390.267 134.327 388.827 134.327C386.318 134.327 384.619 132.433 384.619 129.925ZM388.616 126.607C387.16 126.607 386.254 127.805 386.027 129.164H391.093C390.963 127.805 390.105 126.607 388.616 126.607ZM393.783 132.32L394.948 131.899C395.352 132.692 396.064 133.194 396.971 133.194C397.796 133.194 398.767 132.773 398.767 131.818C398.767 131.122 398.265 130.669 397.246 130.459L396.615 130.329C395.336 130.07 394.025 129.488 394.025 127.983C394.025 126.332 395.433 125.491 396.971 125.491C398.33 125.491 399.479 126.154 399.965 127.481L398.799 127.869C398.621 127.465 398.379 127.157 398.071 126.931C397.748 126.72 397.375 126.607 396.955 126.607C396.21 126.607 395.32 126.979 395.32 127.853C395.32 128.76 396.275 129.035 397.003 129.164L397.634 129.294C398.929 129.553 400.094 130.216 400.094 131.689C400.094 133.404 398.573 134.327 396.971 134.327C395.595 134.327 394.317 133.647 393.783 132.32ZM401.598 133.162C401.598 132.627 402.002 132.191 402.553 132.191C402.909 132.191 403.2 132.369 403.394 132.66C403.475 132.805 403.524 132.984 403.524 133.162C403.524 133.34 403.475 133.501 403.394 133.647C403.2 133.955 402.925 134.133 402.553 134.133C402.035 134.133 401.598 133.679 401.598 133.162Z" fill="#6A6A6A"/>
<defs>
<linearGradient id="paint0_linear_89_41385" x1="0.144531" y1="91.6797" x2="638.443" y2="91.8324" gradientUnits="userSpaceOnUse">
<stop offset="0.565" stop-color="#FD395C"/>
<stop offset="0.93" stop-color="white"/>
</linearGradient>
</defs>
</svg>
