<svg width="32" height="32" viewBox="0 0 32 32" fill="none" xmlns="http://www.w3.org/2000/svg">
<path d="M15.7141 31.249C24.2368 31.249 31.1459 24.3399 31.1459 15.8171C31.1459 7.29437 24.2368 0.385307 15.7141 0.385307C7.19129 0.385307 0.282227 7.29437 0.282227 15.8171C0.282227 24.3399 7.19129 31.249 15.7141 31.249Z" fill="#3E73C4"/>
<path d="M19.5939 17.8657C19.5939 15.8171 18.3593 15.115 15.8903 14.8218C14.1272 14.5874 13.7751 14.1196 13.7751 13.2998C13.7751 12.48 14.3635 11.9534 15.5382 11.9534C16.5963 11.9534 17.1846 12.3045 17.4778 13.1831C17.5084 13.2681 17.5642 13.3416 17.6378 13.3939C17.7115 13.4461 17.7994 13.4746 17.8896 13.4753H18.83C18.8843 13.4768 18.9384 13.4672 18.9889 13.4471C19.0394 13.4271 19.0853 13.397 19.1238 13.3586C19.1623 13.3203 19.1926 13.2746 19.2129 13.2242C19.2332 13.1738 19.243 13.1198 19.2419 13.0654V13.0076C19.1269 12.3719 18.8053 11.7919 18.3269 11.3578C17.8485 10.9237 17.2401 10.6598 16.5963 10.607V9.20266C16.5963 8.96829 16.4198 8.79275 16.1266 8.73392H15.244C15.0097 8.73392 14.8332 8.90945 14.7743 9.20266V10.5491C13.0103 10.7825 11.8944 11.9534 11.8944 13.4175C11.8944 15.3484 13.0691 16.1094 15.5382 16.4026C17.1846 16.6948 17.7131 17.0469 17.7131 17.9834C17.7131 18.9189 16.8904 19.5632 15.7735 19.5632C14.2448 19.5632 13.7163 18.9199 13.5398 18.0412C13.4819 17.8078 13.3045 17.6902 13.128 17.6902H12.1287C12.0745 17.6888 12.0206 17.6985 11.9702 17.7187C11.9198 17.7388 11.874 17.7689 11.8356 17.8072C11.7972 17.8455 11.767 17.8913 11.7467 17.9416C11.7265 17.9919 11.7167 18.0458 11.7179 18.1001V18.1579C11.9522 19.622 12.8936 20.6753 14.8332 20.9685V22.3737C14.8332 22.6071 15.0097 22.7836 15.3029 22.8415H16.1854C16.4198 22.8415 16.5963 22.666 16.6551 22.3737V20.9675C18.4191 20.6753 19.5939 19.4455 19.5939 17.8647V17.8657Z" fill="white"/>
<path d="M12.7166 24.0124C8.13137 22.3728 5.77995 17.2803 7.48516 12.7732C8.36671 10.3138 10.3063 8.4417 12.7166 7.56305C12.9519 7.44635 13.0686 7.27081 13.0686 6.9776V6.15779C13.0686 5.92438 12.9519 5.74884 12.7166 5.69001C12.6577 5.69001 12.5401 5.69001 12.4812 5.74788C11.1584 6.16099 9.93027 6.8317 8.86768 7.72139C7.8051 8.61108 6.92899 9.70217 6.28982 10.9318C5.65064 12.1615 5.26102 13.5055 5.14339 14.8863C5.02576 16.2672 5.18244 17.6577 5.60441 18.9778C6.66149 22.257 9.18942 24.7744 12.4812 25.8276C12.7166 25.9443 12.9519 25.8276 13.0098 25.5932C13.0686 25.5353 13.0686 25.4755 13.0686 25.3588V24.539C13.0686 24.3635 12.8931 24.1301 12.7166 24.0124ZM18.9472 5.74884C18.7118 5.63118 18.4765 5.74884 18.4186 5.98225C18.3598 6.04108 18.3598 6.09992 18.3598 6.21662V7.03644C18.3598 7.27081 18.5353 7.50421 18.7118 7.62188C23.297 9.26151 25.6484 14.354 23.9432 18.8611C23.0617 21.3205 21.1221 23.1926 18.7118 24.0713C18.4765 24.188 18.3598 24.3635 18.3598 24.6567V25.4765C18.3598 25.7099 18.4765 25.8855 18.7118 25.9443C18.7707 25.9443 18.8883 25.9443 18.9472 25.8864C20.27 25.4733 21.4981 24.8026 22.5607 23.9129C23.6233 23.0232 24.4994 21.9321 25.1386 20.7025C25.7777 19.4728 26.1674 18.1288 26.285 16.748C26.4026 15.3671 26.2459 13.9766 25.824 12.6565C24.7669 9.31938 22.1801 6.80207 18.9472 5.74884Z" fill="white"/>
</svg>
