<svg width="267" height="179" viewBox="0 0 267 179" fill="none" xmlns="http://www.w3.org/2000/svg">
<g clip-path="url(#clip0_89_37840)">
<path d="M74.9136 0.150162C54.0296 1.34163 33.6399 9.64245 19.1577 25.5812C1.14673 45.4045 -3.53423 76.2952 2.482 101.939C6.25089 118.005 14.4671 133.083 26.8926 143.817C32.393 148.569 38.5557 152.584 45.2449 155.35C72.1375 166.47 105.801 162.138 133.33 155.965C157.48 150.55 181.121 142.671 203.603 132.137C224.63 122.286 245.986 110.566 258.446 89.7946C273.62 64.4989 269.319 27.1968 239.834 15.2992C217.689 6.36432 196.694 18.3632 179.085 31.4533C175.76 33.9247 172.42 36.5879 168.451 37.6866C158.021 40.5747 145.123 24.7297 137.194 19.2456C125.626 11.2431 113.015 4.84249 99.252 1.96613C91.277 0.301493 83.0576 -0.314488 74.9136 0.150162Z" fill="#F6F9FF"/>
<path d="M145.327 146.784H108.332V173.043H145.327V146.784Z" fill="#1B3D9E"/>
<path d="M193.798 62.3496H59.862C57.1876 62.3496 55.0195 64.4953 55.0195 67.1421V149.736C55.0195 152.383 57.1876 154.528 59.862 154.528H193.798C196.472 154.528 198.64 152.383 198.64 149.736V67.1421C198.64 64.4953 196.472 62.3496 193.798 62.3496Z" fill="#6880E4"/>
<path d="M189.757 66.6104H63.9031C61.8335 66.6104 60.1558 68.2708 60.1558 70.319V143.075C60.1558 145.123 61.8335 146.784 63.9031 146.784H189.757C191.827 146.784 193.504 145.123 193.504 143.075V70.319C193.504 68.2708 191.827 66.6104 189.757 66.6104Z" fill="#D4DFFF"/>
<path d="M166.974 173.042H86.6858C86.2819 173.042 85.9546 173.366 85.9546 173.766V178.276C85.9546 178.675 86.2819 178.999 86.6858 178.999H166.974C167.378 178.999 167.705 178.675 167.705 178.276V173.766C167.705 173.366 167.378 173.042 166.974 173.042Z" fill="#6880E4"/>
<path d="M181.904 126.124H107.156C106.592 126.124 106.135 126.576 106.135 127.134V141.729C106.135 142.287 106.592 142.739 107.156 142.739H181.904C182.468 142.739 182.925 142.287 182.925 141.729V127.134C182.925 126.576 182.468 126.124 181.904 126.124Z" fill="white"/>
<path d="M173.103 86.8171H162.634C163.172 85.6501 164.538 85.0235 165.745 85.4903C165.767 84.3276 166.899 83.3034 168.071 83.3855C169.244 83.4675 170.217 84.6398 170.073 85.794C170.692 85.3869 171.501 85.2249 172.198 85.4796C172.895 85.7343 173.175 86.0849 173.103 86.8171Z" fill="white"/>
<path d="M130.761 83.3814H113.921C114.79 82.6642 115.492 82.1846 116.614 82.3232C117.322 80.5466 118.825 78.8138 120.754 78.8362C122.441 78.8564 123.931 80.4678 123.802 82.1313C124.056 81.7455 124.569 81.5473 125.019 81.6614C125.469 81.7754 125.824 82.1921 125.86 82.6503C126.594 82.3157 127.358 81.9747 128.166 81.9779C128.975 81.9811 130.554 82.6066 130.761 83.3793V83.3814Z" fill="white"/>
<path d="M179.44 128.079H149.043C148.879 128.079 148.746 128.211 148.746 128.373V129.541C148.746 129.704 148.879 129.835 149.043 129.835H179.44C179.604 129.835 179.737 129.704 179.737 129.541V128.373C179.737 128.211 179.604 128.079 179.44 128.079Z" fill="#EAF2FC"/>
<path d="M179.44 130.923H149.043C148.879 130.923 148.746 131.055 148.746 131.217V132.385C148.746 132.548 148.879 132.68 149.043 132.68H179.44C179.604 132.68 179.737 132.548 179.737 132.385V131.217C179.737 131.055 179.604 130.923 179.44 130.923Z" fill="#EAF2FC"/>
<path d="M179.44 133.768H149.043C148.879 133.768 148.746 133.9 148.746 134.062V135.23C148.746 135.393 148.879 135.524 149.043 135.524H179.44C179.604 135.524 179.737 135.393 179.737 135.23V134.062C179.737 133.9 179.604 133.768 179.44 133.768Z" fill="#EAF2FC"/>
<path d="M179.44 136.613H149.043C148.879 136.613 148.746 136.745 148.746 136.907V138.075C148.746 138.238 148.879 138.37 149.043 138.37H179.44C179.604 138.37 179.737 138.238 179.737 138.075V136.907C179.737 136.745 179.604 136.613 179.44 136.613Z" fill="#EAF2FC"/>
<path d="M164.032 139.458H148.956C148.84 139.458 148.746 139.551 148.746 139.665V141.006C148.746 141.121 148.84 141.214 148.956 141.214H164.032C164.148 141.214 164.242 141.121 164.242 141.006V139.665C164.242 139.551 164.148 139.458 164.032 139.458Z" fill="#EAF2FC"/>
<path d="M114.681 132.358L115.239 133.477C115.268 133.536 115.325 133.576 115.389 133.586L116.637 133.765C116.802 133.788 116.868 133.989 116.748 134.104L115.846 134.974C115.799 135.02 115.777 135.086 115.788 135.15L116.001 136.38C116.029 136.542 115.857 136.667 115.709 136.59L114.594 136.009C114.536 135.978 114.466 135.978 114.406 136.009L113.291 136.59C113.143 136.667 112.971 136.543 112.999 136.38L113.212 135.15C113.223 135.085 113.201 135.02 113.154 134.974L112.252 134.104C112.132 133.989 112.198 133.788 112.362 133.765L113.611 133.586C113.676 133.576 113.732 133.536 113.761 133.477L114.319 132.358C114.392 132.21 114.605 132.21 114.68 132.358H114.681Z" fill="#6880E4"/>
<path d="M121.274 132.358L121.832 133.477C121.861 133.536 121.918 133.576 121.983 133.586L123.231 133.765C123.395 133.788 123.461 133.989 123.342 134.104L122.439 134.974C122.392 135.02 122.37 135.086 122.381 135.15L122.594 136.38C122.622 136.542 122.45 136.667 122.303 136.59L121.187 136.009C121.129 135.978 121.059 135.978 121 136.009L119.884 136.59C119.736 136.667 119.564 136.543 119.592 136.38L119.805 135.15C119.816 135.085 119.795 135.02 119.747 134.974L118.845 134.104C118.725 133.989 118.791 133.788 118.956 133.765L120.204 133.586C120.269 133.576 120.325 133.536 120.355 133.477L120.912 132.358C120.986 132.21 121.199 132.21 121.273 132.358H121.274Z" fill="#6880E4"/>
<path d="M127.868 132.358L128.426 133.477C128.455 133.536 128.512 133.576 128.576 133.586L129.824 133.765C129.989 133.788 130.055 133.989 129.935 134.104L129.033 134.974C128.986 135.02 128.964 135.086 128.975 135.15L129.188 136.38C129.216 136.542 129.044 136.667 128.896 136.59L127.781 136.009C127.723 135.978 127.653 135.978 127.593 136.009L126.478 136.59C126.33 136.667 126.158 136.543 126.186 136.38L126.399 135.15C126.41 135.085 126.388 135.02 126.341 134.974L125.439 134.104C125.319 133.989 125.385 133.788 125.549 133.765L126.798 133.586C126.863 133.576 126.919 133.536 126.948 133.477L127.506 132.358C127.579 132.21 127.793 132.21 127.867 132.358H127.868Z" fill="#6880E4"/>
<path d="M134.46 132.358L135.018 133.477C135.047 133.536 135.104 133.576 135.169 133.586L136.417 133.765C136.582 133.788 136.647 133.989 136.528 134.104L135.625 134.974C135.578 135.02 135.556 135.086 135.567 135.15L135.78 136.38C135.808 136.542 135.636 136.667 135.489 136.59L134.373 136.009C134.315 135.978 134.245 135.978 134.186 136.009L133.07 136.59C132.922 136.667 132.75 136.543 132.778 136.38L132.991 135.15C133.002 135.085 132.981 135.02 132.933 134.974L132.031 134.104C131.911 133.989 131.977 133.788 132.142 133.765L133.39 133.586C133.455 133.576 133.511 133.536 133.541 133.477L134.098 132.358C134.172 132.21 134.385 132.21 134.459 132.358H134.46Z" fill="#6880E4"/>
<path d="M141.053 132.358L141.611 133.477C141.64 133.536 141.697 133.576 141.762 133.586L143.01 133.765C143.175 133.788 143.24 133.989 143.121 134.104L142.219 134.974C142.171 135.02 142.15 135.086 142.16 135.15L142.374 136.38C142.402 136.542 142.229 136.667 142.082 136.59L140.966 136.009C140.908 135.978 140.838 135.978 140.779 136.009L139.663 136.59C139.516 136.667 139.343 136.543 139.371 136.38L139.585 135.15C139.595 135.085 139.574 135.02 139.527 134.974L138.624 134.104C138.505 133.989 138.57 133.788 138.735 133.765L139.983 133.586C140.049 133.576 140.105 133.536 140.134 133.477L140.692 132.358C140.765 132.21 140.978 132.21 141.052 132.358H141.053Z" fill="#D4DFFF"/>
<path d="M121.035 123.043H109.336C109.39 122.206 110.183 121.567 111.028 121.614C110.642 120.574 111.56 119.363 112.669 119.215C113.778 119.067 114.876 119.781 115.432 120.742C115.376 120.051 116.295 119.504 116.886 119.877C115.937 119.016 116.07 117.325 117.053 116.504C118.036 115.682 119.609 115.758 120.616 116.552L121.035 123.043Z" fill="#6880E4"/>
<path d="M167.98 118.419C168.703 117.529 170.032 117.179 171.106 117.597C171.294 117.669 171.478 117.767 171.602 117.924C171.732 118.089 171.782 118.302 171.813 118.51C171.894 119.045 171.88 119.594 171.772 120.125C172.121 119.593 172.936 119.493 173.481 119.827C174.025 120.162 174.3 120.825 174.297 121.459C174.726 120.798 175.716 120.631 176.411 121.011C177.105 121.392 177.486 122.208 177.466 122.994H166.895C166.945 121.482 167.023 119.596 167.98 118.417V118.419Z" fill="#6880E4"/>
<path d="M155.812 88.439L140.383 102.228H170.967L155.812 88.439Z" fill="white"/>
<path d="M155.811 88.439H133.398L117.923 102.228H140.383L155.811 88.439Z" fill="#6880E4"/>
<path d="M152.293 102.228H151.991H140.383V123.02H151.991H152.293H168.99V102.228H152.293Z" fill="white"/>
<path d="M140.384 102.228H118.957V123.02H140.384V102.228Z" fill="#EAF2FC"/>
<path d="M155.674 107.099C155.508 107.099 155.343 107.109 155.18 107.127C157.353 107.37 159.042 109.194 159.042 111.409V123.021H160.03V111.409C160.03 109.029 158.08 107.099 155.674 107.099Z" fill="#6880E4"/>
<path d="M155.18 107.126C153.007 107.369 151.319 109.193 151.319 111.408V123.02H159.042V111.408C159.042 109.193 157.353 107.369 155.18 107.126Z" fill="#D4DFFF"/>
<path d="M125.417 109.457C125.346 109.451 125.273 109.446 125.2 109.446C123.946 109.446 122.931 110.451 122.931 111.692V115.606H123.366V111.692C123.366 110.524 124.266 109.565 125.417 109.457Z" fill="#6880E4"/>
<path d="M125.417 109.457C124.266 109.566 123.366 110.525 123.366 111.692V115.606H127.47V111.692C127.47 110.524 126.569 109.565 125.418 109.457H125.417Z" fill="#D4DFFF"/>
<path d="M133.215 109.457C133.144 109.451 133.071 109.446 132.998 109.446C131.744 109.446 130.729 110.451 130.729 111.692V115.606H131.164V111.692C131.164 110.524 132.064 109.565 133.215 109.457Z" fill="#6880E4"/>
<path d="M133.215 109.457C132.064 109.566 131.164 110.525 131.164 111.692V115.606H135.268V111.692C135.268 110.524 134.368 109.565 133.216 109.457H133.215Z" fill="#D4DFFF"/>
<path d="M168.99 102.228L154.686 89.4439L155.811 88.439L170.967 102.228H168.99Z" fill="#EAF2FC"/>
<path d="M158.036 115.627C158.036 115.929 157.79 116.173 157.485 116.173C157.18 116.173 156.934 115.929 156.934 115.627C156.934 115.326 157.18 115.082 157.485 115.082C157.79 115.082 158.036 115.326 158.036 115.627Z" fill="#6880E4"/>
<path d="M123.235 119.542H121.577V120.26H123.235V119.542Z" fill="white"/>
<path d="M125.314 119.542H123.655V120.26H125.314V119.542Z" fill="white"/>
<path d="M130.5 116.683H128.841V117.401H130.5V116.683Z" fill="white"/>
<path d="M137.697 106.409H136.039V107.127H137.697V106.409Z" fill="white"/>
<path d="M145.209 117.042H143.551V117.76H145.209V117.042Z" fill="#EAF2FC"/>
<path d="M147.197 117.042H145.539V117.76H147.197V117.042Z" fill="#EAF2FC"/>
<path d="M143.333 120.425H141.675V121.144H143.333V120.425Z" fill="#EAF2FC"/>
<path d="M149.119 108.262H147.46V108.98H149.119V108.262Z" fill="#EAF2FC"/>
<path d="M143.18 111.615H141.522V112.333H143.18V111.615Z" fill="#EAF2FC"/>
<path d="M141.212 111.615H140.383V112.333H141.212V111.615Z" fill="#EAF2FC"/>
<path d="M165.574 105.691H163.916V106.409H165.574V105.691Z" fill="#EAF2FC"/>
<path d="M167.564 105.691H165.906V106.409H167.564V105.691Z" fill="#EAF2FC"/>
<path d="M163.052 114.723H161.394V115.441H163.052V114.723Z" fill="#EAF2FC"/>
<path d="M165.071 112.624H163.413V113.342H165.071V112.624Z" fill="#EAF2FC"/>
<path d="M155.515 101.13H153.857V101.849H155.515V101.13Z" fill="#EAF2FC"/>
<path d="M147.197 101.13H145.539V101.849H147.197V101.13Z" fill="#EAF2FC"/>
<path d="M149.467 101.13H147.809V101.849H149.467V101.13Z" fill="#EAF2FC"/>
<path d="M162.223 98.5908H160.564V99.3091H162.223V98.5908Z" fill="#EAF2FC"/>
<path d="M152.435 96.4639H150.776V97.1822H152.435V96.4639Z" fill="#EAF2FC"/>
<path d="M167.091 114.678H165.433V115.396H167.091V114.678Z" fill="#EAF2FC"/>
<path d="M167.921 115.627H166.262V116.346H167.921V115.627Z" fill="#EAF2FC"/>
<path d="M162.635 119.455H160.977V120.173H162.635V119.455Z" fill="#EAF2FC"/>
<path d="M150.776 117.042H149.118V117.76H150.776V117.042Z" fill="#EAF2FC"/>
<path d="M138.525 119.542H136.867V120.26H138.525V119.542Z" fill="white"/>
<path d="M138.525 118.313H136.867V119.031H138.525V118.313Z" fill="white"/>
<path d="M136.44 119.542H134.781V120.26H136.44V119.542Z" fill="white"/>
<path d="M135.61 106.409H133.952V107.127H135.61V106.409Z" fill="white"/>
<path d="M127.688 104.5H126.03V105.219H127.688V104.5Z" fill="white"/>
<path d="M123.952 106.409H122.294V107.127H123.952V106.409Z" fill="white"/>
<path d="M133.631 106.409H131.973V107.127H133.631V106.409Z" fill="white"/>
<path d="M121.925 106.409H120.267V107.127H121.925V106.409Z" fill="white"/>
<path d="M181.991 123.176H107.07C106.468 123.176 105.978 122.691 105.978 122.095V77.0562C105.978 76.4605 106.468 75.9756 107.07 75.9756H181.991C182.593 75.9756 183.083 76.4605 183.083 77.0562V122.095C183.083 122.691 182.593 123.176 181.991 123.176ZM107.069 76.2878C106.64 76.2878 106.291 76.6331 106.291 77.0573V122.096C106.291 122.521 106.64 122.866 107.069 122.866H181.99C182.419 122.866 182.768 122.521 182.768 122.096V77.0573C182.768 76.6331 182.419 76.2878 181.99 76.2878H107.069Z" fill="white"/>
<path d="M13.0576 136.224C12.5235 135.754 15.0713 131.937 15.1553 131.579C15.2404 131.221 10.6531 135.631 10.4711 134.946C10.2891 134.262 14.0074 130.781 14.1118 130.483C14.2163 130.186 10.4259 132.476 10.2611 132.052C10.0964 131.628 14.745 127.823 14.9496 127.436C15.1542 127.051 11.6222 127.798 11.5178 127.445C11.2001 126.363 17.7752 124.753 17.7752 124.753L17.6223 124.964C18.4784 123.753 20.1754 121.881 20.1754 121.881C20.1754 121.881 24.0036 124.761 24.2232 125.015C24.3848 125.202 22.2893 126.765 20.9895 127.63C20.6934 129.265 18.6302 130.726 18.4095 131.035C18.1887 131.344 17.4252 136.306 16.9773 136.266C16.3883 136.214 17.1054 131.956 16.5928 132.242C16.202 132.46 13.3538 136.485 13.0576 136.224Z" fill="#FE8E9C"/>
<path d="M14.9495 127.438C14.9495 127.438 16.0823 128.505 16.7295 128.581C17.3767 128.657 19.4237 127.757 19.4237 127.757C19.4237 127.757 17.493 129.117 16.7909 128.94C16.0888 128.763 14.7891 127.624 14.7891 127.624L14.9495 127.439V127.438Z" fill="#E57492"/>
<path d="M102.138 146.783C102.138 144.701 81.4286 115.295 81.4286 115.295C81.167 114.748 80.873 114.315 80.5424 114.018L61.0497 115.044C61.0497 115.044 57.0062 123.972 60.3239 131.668C63.6416 139.365 63.8495 146.783 63.8495 146.783H82.9104C82.9104 146.783 82.9674 145.995 83.0428 144.663C84.2919 145.95 85.1265 146.783 85.1265 146.783H102.139H102.138Z" fill="#1B3D9E"/>
<mask id="mask0_89_37840" style="mask-type:luminance" maskUnits="userSpaceOnUse" x="59" y="114" width="44" height="33">
<path d="M102.138 146.783C102.138 144.701 81.4286 115.295 81.4286 115.295C81.167 114.748 80.873 114.315 80.5424 114.018L61.0497 115.044C61.0497 115.044 57.0062 123.972 60.3239 131.668C63.6416 139.365 63.8495 146.783 63.8495 146.783H82.9104C82.9104 146.783 82.9674 145.995 83.0428 144.663C84.2919 145.95 85.1265 146.783 85.1265 146.783H102.139H102.138Z" fill="white"/>
</mask>
<g mask="url(#mask0_89_37840)">
<path d="M65.272 120.779C65.272 120.779 65.2612 127.96 61.9209 130.401L62.4453 131.155C62.4453 131.155 66.828 128.811 66.351 120.728L65.272 120.779Z" fill="#1C056D"/>
<path d="M75.2422 146.89H75.24C75.1808 146.89 75.1334 146.841 75.1345 146.781C75.3283 135.129 70.4427 118.51 70.3932 118.343C70.376 118.286 70.4094 118.228 70.4664 118.211C70.5235 118.193 70.5838 118.227 70.6 118.283C70.6495 118.449 75.5447 135.099 75.3498 146.784C75.3498 146.843 75.3014 146.889 75.2422 146.889V146.89Z" fill="#1C056D"/>
<path d="M96.3803 148.186C96.3404 148.186 96.3016 148.164 96.2833 148.126C92.2033 139.857 79.1026 117.276 78.9701 117.049C78.9411 116.998 78.9583 116.933 79.01 116.903C79.0617 116.874 79.1274 116.891 79.1575 116.943C79.2889 117.17 92.3938 139.757 96.4772 148.033C96.503 148.086 96.4815 148.149 96.4276 148.175C96.4126 148.183 96.3964 148.186 96.3803 148.186Z" fill="#1C056D"/>
</g>
<path d="M83.042 144.663C83.042 144.663 80.5771 131.442 79.7329 124.796L88.2226 146.784H85.1257L83.042 144.663Z" fill="#1C056D"/>
<path d="M129.472 58.2463C129.083 57.6527 124.884 59.5624 124.513 59.5912C124.143 59.6189 129.245 55.8036 128.59 55.5223C127.934 55.2399 123.892 58.3475 123.579 58.404C123.265 58.4605 126.131 55.1013 125.731 54.8765C125.333 54.6505 120.825 58.6193 120.409 58.7599C119.992 58.9006 121.276 55.5596 120.939 55.4051C119.908 54.9298 117.299 61.1162 117.299 61.1162L117.532 60.999C116.193 61.6523 114.065 63.027 114.065 63.027C114.065 63.027 116.36 67.2099 116.578 67.4636C116.74 67.6501 118.62 65.8384 119.682 64.6981C121.359 64.6576 123.133 62.8619 123.474 62.6924C123.816 62.523 128.887 62.5325 128.915 62.0871C128.953 61.5031 124.592 61.5564 124.955 61.0992C125.233 60.7507 129.685 58.5766 129.471 58.2473L129.472 58.2463Z" fill="#FE8E9C"/>
<path d="M120.409 58.7587C120.409 58.7587 121.302 60.0291 121.28 60.6738C121.256 61.3186 120.047 63.1836 120.047 63.1836C120.047 63.1836 121.699 61.503 121.629 60.7889C121.559 60.0749 120.619 58.6309 120.619 58.6309L120.409 58.7587Z" fill="#E57492"/>
<path d="M60.14 70.212C60.14 70.212 48.6223 80.2073 49.3147 86.6421C50.006 93.0768 59.6414 113.484 60.6773 116.546C61.4634 118.868 78.7389 119.64 81.0433 115.395C83.3478 111.15 81.2727 82.6712 78.2296 78.0162C75.1854 73.3612 68.956 71.8553 68.956 71.8553L60.14 70.2109V70.212Z" fill="#1B3D9E"/>
<path d="M64.8564 70.2122C65.1913 70.4583 89.5685 72.383 91.4842 71.8171C93.3999 71.2512 113.378 58.1142 114.473 58.9273C115.568 59.7394 119.947 67.3571 119.673 68.6264C119.4 69.8967 98.5999 83.8458 95.4523 83.9811C92.3047 84.1165 76.3623 85.065 75.0626 84.5225C73.7629 83.9811 64.8564 70.2122 64.8564 70.2122Z" fill="#1B3D9E"/>
<mask id="mask1_89_37840" style="mask-type:luminance" maskUnits="userSpaceOnUse" x="64" y="58" width="56" height="27">
<path d="M64.8564 70.2122C65.1913 70.4583 89.5685 72.383 91.4842 71.8171C93.3999 71.2512 113.378 58.1142 114.473 58.9273C115.568 59.7394 119.947 67.3571 119.673 68.6264C119.4 69.8967 98.5999 83.8458 95.4523 83.9811C92.3047 84.1165 76.3623 85.065 75.0626 84.5225C73.7629 83.9811 64.8564 70.2122 64.8564 70.2122Z" fill="white"/>
</mask>
<g mask="url(#mask1_89_37840)">
<path d="M93.3666 72.8905C91.6157 72.8905 76.2527 72.266 76.0976 72.2606C76.0384 72.2585 75.9921 72.2084 75.9942 72.1498C75.9964 72.0912 76.047 72.0464 76.1062 72.0475C76.2613 72.0539 91.62 72.6773 93.3656 72.6773C94.7407 72.6773 108.786 64.1698 116.021 59.6714C116.072 59.6405 116.138 59.6554 116.17 59.7044C116.201 59.7545 116.186 59.8195 116.136 59.8515C115.28 60.3843 95.1456 72.8905 93.3666 72.8905Z" fill="#1C056D"/>
</g>
<path d="M58.5688 50.9589C59.3678 49.4711 62.9945 47.2449 66.2972 47.1447C68.159 47.0882 69.8636 48.1763 70.6389 49.8526C72.3941 53.6455 76.2093 62.6678 73.5377 64.147C72.3478 64.8056 70.7821 64.8312 69.2046 64.5222C69.449 67.0095 69.5093 72.7793 69.463 73.5637C69.3973 74.6645 61.6377 72.6706 60.198 71.6336C58.7583 70.5967 62.623 61.2483 62.623 61.2483C61.5774 59.7563 57.4597 53.0295 58.5709 50.9589H58.5688Z" fill="#FE8E9C"/>
<mask id="mask2_89_37840" style="mask-type:luminance" maskUnits="userSpaceOnUse" x="58" y="47" width="17" height="27">
<path d="M58.5688 50.9589C59.3678 49.4711 62.9945 47.2449 66.2972 47.1447C68.159 47.0882 69.8636 48.1763 70.6389 49.8526C72.3941 53.6455 76.2093 62.6678 73.5377 64.147C72.3478 64.8056 70.7821 64.8312 69.2046 64.5222C69.449 67.0095 69.5093 72.7793 69.463 73.5637C69.3973 74.6645 61.6377 72.6706 60.198 71.6336C58.7583 70.5967 62.623 61.2483 62.623 61.2483C61.5774 59.7563 57.4597 53.0295 58.5709 50.9589H58.5688Z" fill="white"/>
</mask>
<g mask="url(#mask2_89_37840)">
<path d="M71.6944 50.4334C71.6944 50.4334 69.4223 51.5694 67.6143 50.9897C67.6143 50.9897 65.0773 52.8664 61.8232 51.9126C61.8232 51.9126 63.1789 55.0713 62.6965 55.812C62.6965 55.812 60.1369 51.0387 60.4793 50.6273C60.8217 50.216 69.5494 47.8948 70.048 48.0153C70.5465 48.1357 71.6944 50.4334 71.6944 50.4334Z" fill="#E57492"/>
</g>
<path d="M72.2284 58.8896C72.2284 58.8896 70.2223 59.9927 67.8457 58.8896C67.8457 58.8896 69.1971 60.7227 70.6433 60.6299C72.5504 60.5074 72.2284 58.8896 72.2284 58.8896Z" fill="white"/>
<path d="M68.0244 51.9604C68.0244 51.9604 72.6095 55.6968 71.9774 56.3714C71.3453 57.045 68.6673 56.5281 68.6673 56.5281C68.775 56.8489 69.0636 57.0769 69.4038 57.11C70.3891 57.2048 72.2822 57.3135 72.4803 56.5068C72.8281 55.0883 68.0244 51.9615 68.0244 51.9615V51.9604Z" fill="#E57492"/>
<path d="M69.2033 64.5209C69.2033 64.5209 67.3296 63.9656 66.1128 63.0225C66.1128 63.0225 66.6124 66.8153 69.3863 67.6796L69.2044 64.5209H69.2033Z" fill="#E57492"/>
<path d="M70.0712 44.3548C70.5364 44.2781 70.9477 44.1598 71.2288 43.986C72.6373 43.1154 67.2865 41.4774 62.0413 43.6727C58.8572 45.0049 55.0904 48.9768 56.5549 50.3462C55.3833 51.413 54.2989 54.8904 56.2286 56.9813C58.3866 59.3184 62.1942 61.2943 62.6196 61.2484C63.0449 61.2026 62.7068 57.8318 62.7068 57.8318C59.6055 58.0438 60.1547 54.8211 60.6199 54.7156C61.0851 54.609 62.5162 56.2385 62.695 55.8133C62.8317 55.4872 61.7086 52.646 61.1756 51.3352C62.0564 51.6645 63.7922 52.014 66.1107 51.024C67.3307 50.5029 67.531 50.164 67.2833 49.9423C68.148 49.8709 69.2657 49.6077 70.6645 48.9693C72.745 48.0198 71.7984 47.5871 70.3867 47.3899C71.2913 47.262 72.3681 46.9796 73.586 46.4265C76.1779 45.25 72.955 44.6137 70.0701 44.3569L70.0712 44.3548Z" fill="#1B3D9E"/>
<path d="M51.1214 80.6646C51.1214 80.6646 37.5771 99.3049 36.3075 100.353C35.038 101.4 16.6264 118.574 17.2606 120.04C17.896 121.507 24.2363 128.275 27.273 127.607C30.3085 126.939 45.1332 111.583 45.901 110.749C46.6688 109.914 58.9963 93.6843 59.5971 91.5135C60.198 89.3437 54.5619 81.629 51.1214 80.6656V80.6646Z" fill="#1B3D9E"/>
<mask id="mask3_89_37840" style="mask-type:luminance" maskUnits="userSpaceOnUse" x="17" y="80" width="43" height="48">
<path d="M51.1214 80.6646C51.1214 80.6646 37.5771 99.3049 36.3075 100.353C35.038 101.4 16.6264 118.574 17.2606 120.04C17.896 121.507 24.2363 128.275 27.273 127.607C30.3085 126.939 45.1332 111.583 45.901 110.749C46.6688 109.914 58.9963 93.6843 59.5971 91.5135C60.198 89.3437 54.5619 81.629 51.1214 80.6656V80.6646Z" fill="white"/>
</mask>
<g mask="url(#mask3_89_37840)">
<path d="M18.1803 123.127C18.1523 123.127 18.1243 123.116 18.1028 123.095C18.0619 123.052 18.0629 122.985 18.1049 122.944C18.2966 122.761 37.2369 104.584 38.3493 102.703C39.4702 100.809 51.9302 81.2485 52.0562 81.0513C52.0874 81.0013 52.1542 80.9863 52.2048 81.0183C52.2554 81.0492 52.2705 81.1153 52.2382 81.1654C52.1122 81.3625 39.6544 100.919 38.5355 102.811C37.4081 104.718 19.0364 122.348 18.2546 123.098C18.2342 123.118 18.2072 123.128 18.1792 123.128L18.1803 123.127Z" fill="#1C056D"/>
</g>
<path d="M53.8018 100.275L59.5972 91.5127C59.5972 91.5127 59.0416 103.788 55.6065 104.618L53.8028 100.275H53.8018Z" fill="#1C056D"/>
<path d="M80.1764 84.6534C80.1764 84.6534 79.4183 79.4005 78.2295 78.0161C78.2295 78.0161 91.2828 83.8562 95.4522 83.9809C95.4522 83.9809 82.9449 85.0583 80.1764 84.6544V84.6534Z" fill="#1C056D"/>
<path d="M69.4619 73.5627C69.4619 73.5627 70.149 79.6862 68.0244 79.0948C65.8998 78.5033 58.2048 74.9641 59.6413 70.6597L69.4619 73.5627Z" fill="white"/>
<path d="M69.4617 73.5627C69.4617 73.5627 72.4844 76.3165 73.376 75.8934C74.2676 75.4703 71.8092 70.8899 71.8092 70.8899L69.3853 70.6597L69.4617 73.5627Z" fill="white"/>
<path d="M69.462 73.5625C69.462 73.5625 68.7309 74.8541 69.2348 75.6033C69.7388 76.3525 70.7833 76.7436 71.1085 76.5305C71.4326 76.3163 72.2252 75.4744 71.8289 74.8968C71.4326 74.3202 69.462 73.5625 69.462 73.5625Z" fill="#FC476A"/>
<path d="M70.6419 76.1001C70.6419 76.1001 69.8322 97.3056 72.0418 100.648C74.2514 103.991 76.9952 105.244 76.9952 105.244C76.9952 105.244 79.2124 100.961 78.6837 98.8722C78.156 96.7834 71.4732 75.937 71.4732 75.937L70.6419 76.1001Z" fill="#FC476A"/>
<path d="M60.6769 116.546C60.6769 116.546 63.6145 121.094 76.8358 118.435C76.8358 118.435 81.1668 117.695 81.4285 115.295L81.5964 113.504C81.5964 113.504 73.3415 118.904 60.0771 115.021L60.6769 116.546Z" fill="white"/>
<path d="M77.6715 115.235C77.6715 115.235 78.3499 118.046 77.9504 118.16C77.552 118.273 75.5653 118.901 75.2777 118.725C74.9902 118.549 74.539 116.05 74.6726 115.856C74.8061 115.662 77.0383 115.285 77.6715 115.236V115.235Z" fill="#FC476A"/>
<path d="M119.091 39.4822C119.091 39.4822 121.773 67.3026 122.356 67.4752H125.185C125.33 67.4752 125.443 67.3527 125.43 67.2099C125.166 64.3261 122.82 38.9067 122.273 38.8321C121.692 38.7533 119.091 39.4833 119.091 39.4833V39.4822Z" fill="#1B3D9E"/>
<mask id="mask4_89_37840" style="mask-type:luminance" maskUnits="userSpaceOnUse" x="119" y="38" width="7" height="30">
<path d="M119.091 39.4822C119.091 39.4822 121.773 67.3026 122.356 67.4752H125.185C125.33 67.4752 125.443 67.3527 125.43 67.2099C125.166 64.3261 122.82 38.9067 122.273 38.8321C121.692 38.7533 119.091 39.4833 119.091 39.4833V39.4822Z" fill="white"/>
</mask>
<g mask="url(#mask4_89_37840)">
<path d="M120.839 38.826C120.807 38.9038 120.839 60.0517 124.04 68.3558C124.607 69.8254 121.631 68.2353 121.631 68.2353C121.631 68.2353 117.814 39.475 119.091 38.827C120.367 38.1791 120.839 38.827 120.839 38.827" fill="#1C056D"/>
</g>
<path d="M89.0214 26.2654C89.0214 26.2654 145.601 19.3447 147.495 19.836C149.389 20.3273 152.577 40.9456 150.593 43.0866C149.437 44.3356 92.5609 50.374 91.5164 49.9136C90.4719 49.4542 86.3875 28.4789 89.0225 26.2644L89.0214 26.2654Z" fill="#68A9FD"/>
<path d="M93.9728 34.0786C94.635 33.8953 95.4275 33.7215 96.3062 33.615C97.8978 33.421 99.0769 33.648 99.9147 34.2491C100.765 34.8491 101.333 35.7773 101.504 37.151C101.676 38.5375 101.386 39.7247 100.68 40.6039C99.9771 41.4959 98.7065 42.0863 97.0374 42.2899C96.2481 42.3858 95.5815 42.4295 95.013 42.4348L93.9717 34.0786H93.9728ZM96.0166 41.4543C96.303 41.4703 96.7122 41.433 97.1451 41.3808C99.5141 41.092 100.636 39.6235 100.351 37.33C100.114 35.3244 98.8088 34.1915 96.4656 34.4771C95.8927 34.5475 95.4663 34.6508 95.181 34.7489L96.0166 41.4533V41.4543Z" fill="white"/>
<path d="M103.735 33.4625C103.796 33.8387 103.552 34.1755 103.107 34.2298C102.712 34.2778 102.395 34.0103 102.347 33.6319C102.299 33.2408 102.554 32.903 102.961 32.8529C103.381 32.8017 103.687 33.0714 103.735 33.4625ZM103.461 41.4287L102.7 35.3286L103.821 35.1921L104.582 41.2923L103.461 41.4287Z" fill="white"/>
<path d="M106.146 39.9493C106.504 40.123 107.117 40.2786 107.679 40.2104C108.494 40.1112 108.825 39.6605 108.763 39.1564C108.697 38.6267 108.343 38.3763 107.477 38.1748C106.321 37.9191 105.723 37.3777 105.631 36.6477C105.509 35.6651 106.211 34.7603 107.535 34.5983C108.159 34.5227 108.728 34.6314 109.098 34.7912L108.918 35.6321C108.657 35.5106 108.187 35.3635 107.613 35.4328C106.951 35.5138 106.629 35.9369 106.685 36.3908C106.747 36.8949 107.145 37.0772 107.985 37.2818C109.105 37.5546 109.719 38.0171 109.832 38.924C109.966 39.9951 109.219 40.854 107.755 41.0331C107.08 41.1151 106.436 41.0278 105.972 40.8285L106.146 39.9503V39.9493Z" fill="white"/>
<path d="M115.848 39.6863C115.575 39.8728 114.95 40.1541 114.122 40.2554C112.263 40.4824 110.898 39.3826 110.666 37.5176C110.432 35.6398 111.56 34.1201 113.573 33.8739C114.235 33.7929 114.842 33.8856 115.166 33.9996L115.018 34.8874C114.732 34.7691 114.295 34.6817 113.683 34.7563C112.269 34.9289 111.634 36.0554 111.793 37.3289C111.969 38.741 112.994 39.4987 114.217 39.3495C114.853 39.2717 115.254 39.0564 115.554 38.8795L115.849 39.6884L115.848 39.6863Z" fill="white"/>
<path d="M122.304 35.9808C122.585 38.2369 121.128 39.4123 119.639 39.5946C117.971 39.7981 116.533 38.7452 116.293 36.8173C116.039 34.7754 117.24 33.4135 118.945 33.2056C120.716 32.9893 122.071 34.1168 122.304 35.9818V35.9808ZM117.422 36.6404C117.589 37.9768 118.491 38.8901 119.586 38.7559C120.655 38.6248 121.334 37.5314 121.163 36.1577C121.033 35.1239 120.349 33.877 119.024 34.039C117.7 34.201 117.277 35.4809 117.422 36.6404Z" fill="white"/>
<path d="M129.055 36.6146C129.133 37.2444 129.215 37.7975 129.313 38.2718L128.32 38.3933L128.133 37.4054L128.107 37.4086C127.876 37.9361 127.306 38.6576 126.211 38.7918C125.243 38.9101 124.018 38.5222 123.751 36.3801L123.307 32.8132L124.428 32.6768L124.849 36.054C124.993 37.2135 125.447 37.951 126.466 37.8274C127.218 37.7357 127.675 37.1549 127.817 36.6391C127.861 36.4675 127.873 36.2608 127.849 36.0594L127.382 32.3166L128.503 32.1802L129.056 36.6167L129.055 36.6146Z" fill="white"/>
<path d="M130.566 33.6029C130.488 32.9731 130.41 32.4573 130.31 31.9585L131.303 31.8371L131.492 32.8378L131.518 32.8346C131.752 32.2175 132.394 31.5632 133.412 31.4385C134.265 31.334 135.653 31.6772 135.914 33.7692L136.368 37.4118L135.247 37.5482L134.809 34.0324C134.686 33.0498 134.215 32.2751 133.158 32.404C132.42 32.4946 131.911 33.0807 131.797 33.7223C131.764 33.8672 131.762 34.0591 131.785 34.2488L132.242 37.9159L131.121 38.0523L130.566 33.6029Z" fill="white"/>
<path d="M138.509 29.1782L138.728 30.9303L140.332 30.7342L140.438 31.5782L138.833 31.7743L139.244 35.0641C139.338 35.8208 139.608 36.2226 140.232 36.1458C140.525 36.1096 140.737 36.0457 140.872 35.9913L141.027 36.8172C140.821 36.9323 140.485 37.0368 140.052 37.0901C139.53 37.154 139.09 37.041 138.785 36.7714C138.425 36.4826 138.243 35.9551 138.154 35.2368L137.739 31.9096L136.784 32.0258L136.679 31.1818L137.634 31.0656L137.452 29.6034L138.51 29.1793L138.509 29.1782Z" fill="white"/>
<path d="M142.059 35.565C142.417 35.7387 143.031 35.8943 143.592 35.8261C144.407 35.727 144.738 35.2762 144.676 34.7721C144.61 34.2424 144.256 33.992 143.39 33.7906C142.234 33.5348 141.636 32.9934 141.545 32.2634C141.422 31.2808 142.124 30.376 143.448 30.214C144.072 30.1384 144.642 30.2471 145.011 30.4069L144.831 31.2478C144.57 31.1263 144.1 30.9792 143.526 31.0485C142.864 31.1295 142.542 31.5526 142.598 32.0066C142.66 32.5106 143.059 32.6929 143.898 32.8975C145.018 33.1703 145.632 33.6328 145.745 34.5398C145.879 35.6108 145.133 36.4698 143.668 36.6488C142.993 36.7309 142.349 36.6435 141.885 36.4442L142.059 35.566V35.565Z" fill="white"/>
<path d="M59.597 91.619C59.5485 91.619 59.5055 91.587 59.4926 91.539C58.3167 86.9895 56.0941 84.3029 54.4369 82.8503C52.6407 81.2763 51.103 80.7711 51.0879 80.7658C51.0309 80.7477 51.0007 80.688 51.019 80.6315C51.0373 80.5761 51.0976 80.5452 51.1547 80.5633C51.2182 80.5835 52.743 81.0834 54.5715 82.683C56.2545 84.1558 58.5105 86.8787 59.7025 91.4868C59.7176 91.5444 59.6821 91.6019 59.625 91.6168C59.6164 91.619 59.6067 91.62 59.5981 91.62L59.597 91.619Z" fill="#1C056D"/>
<path d="M78.788 79.1025C78.7396 79.1025 78.6954 79.0705 78.6836 79.0215C77.3892 73.9029 75.1408 71.245 75.1182 71.2184C75.0794 71.1736 75.0848 71.1065 75.13 71.0681C75.1753 71.0298 75.2431 71.0351 75.2819 71.0798C75.3045 71.1065 77.5852 73.7985 78.8925 78.9693C78.9065 79.0268 78.872 79.0844 78.8139 79.0983C78.8052 79.1004 78.7966 79.1014 78.788 79.1014V79.1025Z" fill="#1C056D"/>
<path d="M27.6681 126.02C28.0428 126.02 28.3465 125.719 28.3465 125.348C28.3465 124.977 28.0428 124.677 27.6681 124.677C27.2935 124.677 26.9897 124.977 26.9897 125.348C26.9897 125.719 27.2935 126.02 27.6681 126.02Z" fill="#1C056D"/>
<path d="M30.3065 123.91C30.3065 124.281 30.0028 124.582 29.6281 124.582C29.2534 124.582 28.9497 124.281 28.9497 123.91C28.9497 123.539 29.2534 123.239 29.6281 123.239C30.0028 123.239 30.3065 123.539 30.3065 123.91Z" fill="#1C056D"/>
<path d="M31.6115 123.15C31.9862 123.15 32.2899 122.85 32.2899 122.479C32.2899 122.108 31.9862 121.808 31.6115 121.808C31.2368 121.808 30.9331 122.108 30.9331 122.479C30.9331 122.85 31.2368 123.15 31.6115 123.15Z" fill="#1C056D"/>
<path d="M113.814 71.2202C113.814 71.5911 113.51 71.8916 113.135 71.8916C112.761 71.8916 112.457 71.5911 112.457 71.2202C112.457 70.8494 112.761 70.5488 113.135 70.5488C113.51 70.5488 113.814 70.8494 113.814 71.2202Z" fill="#1C056D"/>
<path d="M115.774 69.7827C115.774 70.1536 115.47 70.4541 115.095 70.4541C114.721 70.4541 114.417 70.1536 114.417 69.7827C114.417 69.4119 114.721 69.1113 115.095 69.1113C115.47 69.1113 115.774 69.4119 115.774 69.7827Z" fill="#1C056D"/>
<path d="M117.758 68.3516C117.758 68.7224 117.455 69.023 117.08 69.023C116.705 69.023 116.401 68.7224 116.401 68.3516C116.401 67.9807 116.705 67.6802 117.08 67.6802C117.455 67.6802 117.758 67.9807 117.758 68.3516Z" fill="#1C056D"/>
<path opacity="0.36" d="M234.6 124.834C234.538 125.045 234.46 125.277 234.365 125.527C235.779 120.215 235.263 114.385 232.466 109.146C226.55 98.0581 212.672 93.8176 201.47 99.6726C191.489 104.889 186.999 116.361 190.323 126.642L130.718 157.794L127.917 166.772L142.035 170.351L145.524 160.276L153.707 162.403L157.629 152.965L194.203 133.849C200.204 143.047 213.091 142.842 213.091 142.842C231.284 141.938 234.6 124.834 234.6 124.834ZM224.733 109.449C226.364 108.597 228.384 109.215 229.246 110.828C230.107 112.443 229.483 114.442 227.852 115.295C226.221 116.147 224.201 115.529 223.339 113.916C222.478 112.301 223.102 110.302 224.733 109.449Z" fill="#6880E4"/>
<path d="M222.078 137.792C233.28 131.937 237.566 118.202 231.65 107.116C225.734 96.0292 211.856 91.7876 200.654 97.6426C190.673 102.859 186.182 114.331 189.506 124.612L129.902 155.764L127.101 164.742L141.218 168.321L144.262 157.494L152.89 160.373L156.812 150.935L193.385 131.819C200.11 140.237 212.144 142.983 222.078 137.792ZM228.429 108.8C229.291 110.414 228.666 112.413 227.036 113.266C225.404 114.119 223.384 113.5 222.523 111.887C221.661 110.272 222.286 108.273 223.916 107.421C225.548 106.568 227.568 107.186 228.429 108.8Z" fill="#F9C438"/>
<path d="M193.385 131.819C193.385 131.819 200.6 138.546 212.436 139.095C224.273 139.644 232.552 127.065 233.783 122.804C233.783 122.804 230.468 139.908 212.275 140.813C212.275 140.813 199.387 141.017 193.386 131.819H193.385Z" fill="#F6AB36"/>
<path d="M127.1 164.742C127.1 164.742 140.598 167.18 140.568 166.823C140.538 166.465 144.261 157.494 144.261 157.494C144.261 157.494 152.493 159.493 152.636 159.259C152.779 159.023 156.812 150.936 156.812 150.936L152.89 160.373L144.706 158.247L141.217 168.322L127.1 164.743V164.742Z" fill="#F6AB36"/>
<path d="M127.1 164.742L156.812 150.935L128.723 165.032L127.1 164.742Z" fill="#F6AB36"/>
<path d="M218.603 98.8371C218.603 98.8371 205.052 95.4779 196.177 105.505C196.177 105.505 189.029 114.338 193.606 126.213C193.606 126.213 189.82 112.198 200.384 103.606C200.384 103.606 207.583 98.6271 218.603 98.8371Z" fill="#F6AB36"/>
<path opacity="0.36" d="M182.969 74.3177C189.995 67.3641 189.995 56.09 182.969 49.1364C175.943 42.1828 164.551 42.1827 157.525 49.1364C150.499 56.09 150.499 67.3641 157.525 74.3177C164.551 81.2714 175.943 81.2714 182.969 74.3177Z" fill="#6880E4"/>
<path d="M169.211 78.0166C179.148 78.0166 187.203 70.0446 187.203 60.2107C187.203 50.3768 179.148 42.4048 169.211 42.4048C159.275 42.4048 151.22 50.3768 151.22 60.2107C151.22 70.0446 159.275 78.0166 169.211 78.0166Z" fill="#EAF2FC"/>
<path d="M169.168 56.8037C169.168 56.8037 180.564 67.0793 178.9 68.9475C177.237 70.8157 174.7 71.891 174.113 71.2153C173.526 70.5397 165.131 58.2531 165.131 58.2531L169.169 56.8048L169.168 56.8037Z" fill="#1B3D9E"/>
<mask id="mask5_89_37840" style="mask-type:luminance" maskUnits="userSpaceOnUse" x="165" y="56" width="15" height="16">
<path d="M169.168 56.8037C169.168 56.8037 180.564 67.0793 178.9 68.9475C177.237 70.8157 174.7 71.891 174.113 71.2153C173.526 70.5397 165.131 58.2531 165.131 58.2531L169.169 56.8048L169.168 56.8037Z" fill="white"/>
</mask>
<g mask="url(#mask5_89_37840)">
<path d="M173.154 59.7205C173.154 59.7205 166.044 62.1652 165.63 61.626C165.215 61.0867 163.96 58.9468 163.96 58.9468C163.96 58.9468 171.182 54.9418 171.631 55.5845C172.08 56.2271 173.153 59.7205 173.153 59.7205H173.154Z" fill="#1C056D"/>
</g>
<path d="M157.881 59.4123C157.445 58.6929 157.543 57.7743 158.121 57.1604C162.716 52.2869 182.03 31.9031 183.519 32.0565C185.211 32.2302 196.289 49.2038 195.589 51.9747C194.968 54.4343 166.266 59.2492 159.821 60.3011C159.051 60.4268 158.282 60.0741 157.882 59.4123H157.881Z" fill="#68A9FD"/>
<mask id="mask6_89_37840" style="mask-type:luminance" maskUnits="userSpaceOnUse" x="157" y="32" width="39" height="29">
<path d="M157.881 59.4123C157.445 58.6929 157.543 57.7743 158.121 57.1604C162.716 52.2869 182.03 31.9031 183.519 32.0565C185.211 32.2302 196.289 49.2038 195.589 51.9747C194.968 54.4343 166.266 59.2492 159.821 60.3011C159.051 60.4268 158.282 60.0741 157.882 59.4123H157.881Z" fill="white"/>
</mask>
<g mask="url(#mask6_89_37840)">
<path d="M162.232 50.75C162.232 50.75 161.949 56.4409 167.856 61.3389C167.856 61.3389 157.026 62.8693 156.371 61.7876C155.715 60.7059 154.611 59.8267 154.947 58.8995C155.283 57.9723 162.232 50.75 162.232 50.75Z" fill="#1B3D9E"/>
<path opacity="0.24" d="M194.348 46.1162C194.348 46.1162 186.531 46.3315 180.598 51.7282C174.666 57.125 160.8 58.3644 160.8 58.3644L162.356 60.9477C162.356 60.9477 190.514 57.6632 194.29 55.7481C198.067 53.833 196.381 48.0942 194.349 46.1173" fill="#1C056D"/>
</g>
<path d="M195.581 52.2238C196.783 51.5107 195.023 46.4203 191.65 40.8542C188.278 35.2881 184.569 31.354 183.368 32.0671C182.166 32.7803 183.926 37.8706 187.299 43.4368C190.671 49.0029 194.38 52.937 195.581 52.2238Z" fill="#1B3D9E"/>
<mask id="mask7_89_37840" style="mask-type:luminance" maskUnits="userSpaceOnUse" x="182" y="31" width="14" height="22">
<path d="M195.581 52.2238C196.783 51.5107 195.023 46.4203 191.65 40.8542C188.278 35.2881 184.569 31.354 183.368 32.0671C182.166 32.7803 183.926 37.8706 187.299 43.4368C190.671 49.0029 194.38 52.937 195.581 52.2238Z" fill="white"/>
</mask>
<g mask="url(#mask7_89_37840)">
<path d="M185.771 42.5165C185.771 42.5165 189.099 38.8356 190.535 41.162C191.972 43.4885 192.142 44.3858 187.232 46.0366L185.771 42.5165Z" fill="white"/>
<path d="M184.837 32.1587C184.837 32.1587 183.708 33.0187 184.829 35.9633C185.799 38.5103 192.389 51.1571 196.535 51.6516C196.535 51.6516 196.176 53.4548 195.012 53.5709C193.848 53.6871 189.045 49.7131 187.561 46.7856C186.077 43.8581 181.296 35.8482 181.072 34.4009C180.848 32.9537 183.731 30.9672 184.836 32.1587H184.837Z" fill="#1C056D"/>
</g>
</g>
<defs>
<clipPath id="clip0_89_37840">
<rect width="267" height="179" fill="white"/>
</clipPath>
</defs>
</svg>
